M48
; DRILL file {KiCad (5.1.10)-1} date 06/16/21 14:50:10
; FORMAT={-:-/ absolute / metric / decimal}
; #@! TF.CreationDate,2021-06-16T14:50:10-05:00
; #@! TF.GenerationSoftware,Kicad,Pcbnew,(5.1.10)-1
; #@! TF.FileFunction,Plated,1,2,PTH
FMAT,2
METRIC
T1C0.400
T2C0.600
T3C0.750
T4C0.800
%
G90
G05
T1
X102.362Y-98.552
X124.714Y-88.138
X124.714Y-98.552
X158.242Y-80.01
X165.354Y-99.822
T2
X124.714Y-80.01
X127.508Y-80.01
X130.302Y-80.01
X133.096Y-80.01
X135.89Y-80.01
X138.684Y-80.01
X141.478Y-80.01
T3
X186.69Y-83.058
X186.69Y-91.186
X187.96Y-84.328
X187.96Y-92.456
X189.23Y-83.058
X189.23Y-91.186
T4
X160.782Y-77.47
X160.782Y-80.01
X160.782Y-82.55
X160.782Y-85.09
X160.782Y-87.63
X160.782Y-90.17
X160.782Y-92.71
X168.402Y-77.47
X168.402Y-80.01
X168.402Y-82.55
X168.402Y-85.09
X168.402Y-87.63
X168.402Y-90.17
X168.402Y-92.71
X172.212Y-77.216
X172.212Y-82.381
X172.212Y-87.545
X172.212Y-92.71
X182.372Y-77.216
X182.372Y-82.381
X182.372Y-87.545
X182.372Y-92.71
T0
M30
