%TF.GenerationSoftware,KiCad,Pcbnew,(5.1.10)-1*%
%TF.CreationDate,2021-06-16T14:50:00-05:00*%
%TF.ProjectId,nes-c64,6e65732d-6336-4342-9e6b-696361645f70,rev?*%
%TF.SameCoordinates,Original*%
%TF.FileFunction,Legend,Bot*%
%TF.FilePolarity,Positive*%
%FSLAX46Y46*%
G04 Gerber Fmt 4.6, Leading zero omitted, Abs format (unit mm)*
G04 Created by KiCad (PCBNEW (5.1.10)-1) date 2021-06-16 14:50:00*
%MOMM*%
%LPD*%
G01*
G04 APERTURE LIST*
%ADD10C,0.150000*%
%ADD11C,0.120000*%
%ADD12O,1.600000X1.600000*%
%ADD13R,1.600000X1.600000*%
%ADD14R,1.100000X1.800000*%
%ADD15C,1.600000*%
%ADD16R,0.889000X0.889000*%
G04 APERTURE END LIST*
D10*
X190293047Y-109688380D02*
X190293047Y-110402666D01*
X190340666Y-110545523D01*
X190435904Y-110640761D01*
X190578761Y-110688380D01*
X190674000Y-110688380D01*
X189340666Y-110688380D02*
X189816857Y-110688380D01*
X189816857Y-109688380D01*
X188435904Y-110593142D02*
X188483523Y-110640761D01*
X188626380Y-110688380D01*
X188721619Y-110688380D01*
X188864476Y-110640761D01*
X188959714Y-110545523D01*
X189007333Y-110450285D01*
X189054952Y-110259809D01*
X189054952Y-110116952D01*
X189007333Y-109926476D01*
X188959714Y-109831238D01*
X188864476Y-109736000D01*
X188721619Y-109688380D01*
X188626380Y-109688380D01*
X188483523Y-109736000D01*
X188435904Y-109783619D01*
X187721619Y-109688380D02*
X187721619Y-110402666D01*
X187769238Y-110545523D01*
X187864476Y-110640761D01*
X188007333Y-110688380D01*
X188102571Y-110688380D01*
X186769238Y-110688380D02*
X187245428Y-110688380D01*
X187245428Y-109688380D01*
X185864476Y-110593142D02*
X185912095Y-110640761D01*
X186054952Y-110688380D01*
X186150190Y-110688380D01*
X186293047Y-110640761D01*
X186388285Y-110545523D01*
X186435904Y-110450285D01*
X186483523Y-110259809D01*
X186483523Y-110116952D01*
X186435904Y-109926476D01*
X186388285Y-109831238D01*
X186293047Y-109736000D01*
X186150190Y-109688380D01*
X186054952Y-109688380D01*
X185912095Y-109736000D01*
X185864476Y-109783619D01*
X185150190Y-109688380D02*
X185150190Y-110402666D01*
X185197809Y-110545523D01*
X185293047Y-110640761D01*
X185435904Y-110688380D01*
X185531142Y-110688380D01*
X184197809Y-110688380D02*
X184674000Y-110688380D01*
X184674000Y-109688380D01*
X183293047Y-110593142D02*
X183340666Y-110640761D01*
X183483523Y-110688380D01*
X183578761Y-110688380D01*
X183721619Y-110640761D01*
X183816857Y-110545523D01*
X183864476Y-110450285D01*
X183912095Y-110259809D01*
X183912095Y-110116952D01*
X183864476Y-109926476D01*
X183816857Y-109831238D01*
X183721619Y-109736000D01*
X183578761Y-109688380D01*
X183483523Y-109688380D01*
X183340666Y-109736000D01*
X183293047Y-109783619D01*
X182578761Y-109688380D02*
X182578761Y-110402666D01*
X182626380Y-110545523D01*
X182721619Y-110640761D01*
X182864476Y-110688380D01*
X182959714Y-110688380D01*
X181626380Y-110688380D02*
X182102571Y-110688380D01*
X182102571Y-109688380D01*
X180721619Y-110593142D02*
X180769238Y-110640761D01*
X180912095Y-110688380D01*
X181007333Y-110688380D01*
X181150190Y-110640761D01*
X181245428Y-110545523D01*
X181293047Y-110450285D01*
X181340666Y-110259809D01*
X181340666Y-110116952D01*
X181293047Y-109926476D01*
X181245428Y-109831238D01*
X181150190Y-109736000D01*
X181007333Y-109688380D01*
X180912095Y-109688380D01*
X180769238Y-109736000D01*
X180721619Y-109783619D01*
D11*
%TO.C,U1*%
X161942000Y-76140000D02*
X163592000Y-76140000D01*
X161942000Y-94040000D02*
X161942000Y-76140000D01*
X167242000Y-94040000D02*
X161942000Y-94040000D01*
X167242000Y-76140000D02*
X167242000Y-94040000D01*
X165592000Y-76140000D02*
X167242000Y-76140000D01*
X163592000Y-76140000D02*
G75*
G03*
X165592000Y-76140000I1000000J0D01*
G01*
%TO.C,Q2*%
X186160000Y-89336000D02*
X189760000Y-89336000D01*
X189768445Y-89358316D02*
G75*
G02*
X188740000Y-93636000I-1808445J-1827684D01*
G01*
X186148125Y-89344259D02*
G75*
G03*
X187140000Y-93636000I1811875J-1841741D01*
G01*
%TO.C,Q1*%
X186160000Y-81208000D02*
X189760000Y-81208000D01*
X189768445Y-81230316D02*
G75*
G02*
X188740000Y-85508000I-1808445J-1827684D01*
G01*
X186148125Y-81216259D02*
G75*
G03*
X187140000Y-85508000I1811875J-1841741D01*
G01*
%TO.C,R1*%
X173252000Y-77216000D02*
X174022000Y-77216000D01*
X181332000Y-77216000D02*
X180562000Y-77216000D01*
X174022000Y-75846000D02*
X180562000Y-75846000D01*
X174022000Y-78586000D02*
X174022000Y-75846000D01*
X180562000Y-78586000D02*
X174022000Y-78586000D01*
X180562000Y-75846000D02*
X180562000Y-78586000D01*
%TO.C,R2*%
X180562000Y-81010666D02*
X180562000Y-83750666D01*
X180562000Y-83750666D02*
X174022000Y-83750666D01*
X174022000Y-83750666D02*
X174022000Y-81010666D01*
X174022000Y-81010666D02*
X180562000Y-81010666D01*
X181332000Y-82380666D02*
X180562000Y-82380666D01*
X173252000Y-82380666D02*
X174022000Y-82380666D01*
%TO.C,R3*%
X174022000Y-88915332D02*
X174022000Y-86175332D01*
X174022000Y-86175332D02*
X180562000Y-86175332D01*
X180562000Y-86175332D02*
X180562000Y-88915332D01*
X180562000Y-88915332D02*
X174022000Y-88915332D01*
X173252000Y-87545332D02*
X174022000Y-87545332D01*
X181332000Y-87545332D02*
X180562000Y-87545332D01*
%TO.C,R4*%
X181332000Y-92710000D02*
X180562000Y-92710000D01*
X173252000Y-92710000D02*
X174022000Y-92710000D01*
X180562000Y-94080000D02*
X174022000Y-94080000D01*
X180562000Y-91340000D02*
X180562000Y-94080000D01*
X174022000Y-91340000D02*
X180562000Y-91340000D01*
X174022000Y-94080000D02*
X174022000Y-91340000D01*
%TO.C,U1*%
D10*
X165099904Y-94702380D02*
X165099904Y-95511904D01*
X165052285Y-95607142D01*
X165004666Y-95654761D01*
X164909428Y-95702380D01*
X164718952Y-95702380D01*
X164623714Y-95654761D01*
X164576095Y-95607142D01*
X164528476Y-95511904D01*
X164528476Y-94702380D01*
X163528476Y-95702380D02*
X164099904Y-95702380D01*
X163814190Y-95702380D02*
X163814190Y-94702380D01*
X163909428Y-94845238D01*
X164004666Y-94940476D01*
X164099904Y-94988095D01*
%TO.C,Q2*%
X188055238Y-96133619D02*
X188150476Y-96086000D01*
X188245714Y-95990761D01*
X188388571Y-95847904D01*
X188483809Y-95800285D01*
X188579047Y-95800285D01*
X188531428Y-96038380D02*
X188626666Y-95990761D01*
X188721904Y-95895523D01*
X188769523Y-95705047D01*
X188769523Y-95371714D01*
X188721904Y-95181238D01*
X188626666Y-95086000D01*
X188531428Y-95038380D01*
X188340952Y-95038380D01*
X188245714Y-95086000D01*
X188150476Y-95181238D01*
X188102857Y-95371714D01*
X188102857Y-95705047D01*
X188150476Y-95895523D01*
X188245714Y-95990761D01*
X188340952Y-96038380D01*
X188531428Y-96038380D01*
X187721904Y-95133619D02*
X187674285Y-95086000D01*
X187579047Y-95038380D01*
X187340952Y-95038380D01*
X187245714Y-95086000D01*
X187198095Y-95133619D01*
X187150476Y-95228857D01*
X187150476Y-95324095D01*
X187198095Y-95466952D01*
X187769523Y-96038380D01*
X187150476Y-96038380D01*
%TO.C,Q1*%
X188055238Y-88005619D02*
X188150476Y-87958000D01*
X188245714Y-87862761D01*
X188388571Y-87719904D01*
X188483809Y-87672285D01*
X188579047Y-87672285D01*
X188531428Y-87910380D02*
X188626666Y-87862761D01*
X188721904Y-87767523D01*
X188769523Y-87577047D01*
X188769523Y-87243714D01*
X188721904Y-87053238D01*
X188626666Y-86958000D01*
X188531428Y-86910380D01*
X188340952Y-86910380D01*
X188245714Y-86958000D01*
X188150476Y-87053238D01*
X188102857Y-87243714D01*
X188102857Y-87577047D01*
X188150476Y-87767523D01*
X188245714Y-87862761D01*
X188340952Y-87910380D01*
X188531428Y-87910380D01*
X187150476Y-87910380D02*
X187721904Y-87910380D01*
X187436190Y-87910380D02*
X187436190Y-86910380D01*
X187531428Y-87053238D01*
X187626666Y-87148476D01*
X187721904Y-87196095D01*
%TO.C,R1*%
X177458666Y-80208380D02*
X177792000Y-79732190D01*
X178030095Y-80208380D02*
X178030095Y-79208380D01*
X177649142Y-79208380D01*
X177553904Y-79256000D01*
X177506285Y-79303619D01*
X177458666Y-79398857D01*
X177458666Y-79541714D01*
X177506285Y-79636952D01*
X177553904Y-79684571D01*
X177649142Y-79732190D01*
X178030095Y-79732190D01*
X176506285Y-80208380D02*
X177077714Y-80208380D01*
X176792000Y-80208380D02*
X176792000Y-79208380D01*
X176887238Y-79351238D01*
X176982476Y-79446476D01*
X177077714Y-79494095D01*
%TO.C,J1*%
X125404476Y-81795714D02*
X125404476Y-82605238D01*
X125452095Y-82700476D01*
X125499714Y-82748095D01*
X125594952Y-82795714D01*
X125737809Y-82795714D01*
X125833047Y-82748095D01*
X125404476Y-82414761D02*
X125499714Y-82462380D01*
X125690190Y-82462380D01*
X125785428Y-82414761D01*
X125833047Y-82367142D01*
X125880666Y-82271904D01*
X125880666Y-81986190D01*
X125833047Y-81890952D01*
X125785428Y-81843333D01*
X125690190Y-81795714D01*
X125499714Y-81795714D01*
X125404476Y-81843333D01*
X124928285Y-81795714D02*
X124928285Y-82462380D01*
X124928285Y-81890952D02*
X124880666Y-81843333D01*
X124785428Y-81795714D01*
X124642571Y-81795714D01*
X124547333Y-81843333D01*
X124499714Y-81938571D01*
X124499714Y-82462380D01*
X123594952Y-82462380D02*
X123594952Y-81462380D01*
X123594952Y-82414761D02*
X123690190Y-82462380D01*
X123880666Y-82462380D01*
X123975904Y-82414761D01*
X124023523Y-82367142D01*
X124071142Y-82271904D01*
X124071142Y-81986190D01*
X124023523Y-81890952D01*
X123975904Y-81843333D01*
X123880666Y-81795714D01*
X123690190Y-81795714D01*
X123594952Y-81843333D01*
%TO.C,J2*%
X127198476Y-82462380D02*
X127674666Y-82462380D01*
X127674666Y-81462380D01*
%TO.C,J3*%
X130587714Y-81462380D02*
X130587714Y-82271904D01*
X130540095Y-82367142D01*
X130492476Y-82414761D01*
X130397238Y-82462380D01*
X130206761Y-82462380D01*
X130111523Y-82414761D01*
X130063904Y-82367142D01*
X130016285Y-82271904D01*
X130016285Y-81462380D01*
%TO.C,J4*%
X133357904Y-82462380D02*
X133357904Y-81462380D01*
X133119809Y-81462380D01*
X132976952Y-81510000D01*
X132881714Y-81605238D01*
X132834095Y-81700476D01*
X132786476Y-81890952D01*
X132786476Y-82033809D01*
X132834095Y-82224285D01*
X132881714Y-82319523D01*
X132976952Y-82414761D01*
X133119809Y-82462380D01*
X133357904Y-82462380D01*
%TO.C,J5*%
X135580476Y-82462380D02*
X135913809Y-81986190D01*
X136151904Y-82462380D02*
X136151904Y-81462380D01*
X135770952Y-81462380D01*
X135675714Y-81510000D01*
X135628095Y-81557619D01*
X135580476Y-81652857D01*
X135580476Y-81795714D01*
X135628095Y-81890952D01*
X135675714Y-81938571D01*
X135770952Y-81986190D01*
X136151904Y-81986190D01*
%TO.C,J6*%
X138541142Y-81938571D02*
X138874476Y-81938571D01*
X138874476Y-82462380D02*
X138874476Y-81462380D01*
X138398285Y-81462380D01*
%TO.C,J7*%
X142716095Y-82081428D02*
X141954190Y-82081428D01*
X142335142Y-82462380D02*
X142335142Y-81700476D01*
X141001809Y-81462380D02*
X141478000Y-81462380D01*
X141525619Y-81938571D01*
X141478000Y-81890952D01*
X141382761Y-81843333D01*
X141144666Y-81843333D01*
X141049428Y-81890952D01*
X141001809Y-81938571D01*
X140954190Y-82033809D01*
X140954190Y-82271904D01*
X141001809Y-82367142D01*
X141049428Y-82414761D01*
X141144666Y-82462380D01*
X141382761Y-82462380D01*
X141478000Y-82414761D01*
X141525619Y-82367142D01*
X140620857Y-81795714D02*
X140382761Y-82462380D01*
X140144666Y-81795714D01*
%TO.C,R2*%
X177458666Y-85288380D02*
X177792000Y-84812190D01*
X178030095Y-85288380D02*
X178030095Y-84288380D01*
X177649142Y-84288380D01*
X177553904Y-84336000D01*
X177506285Y-84383619D01*
X177458666Y-84478857D01*
X177458666Y-84621714D01*
X177506285Y-84716952D01*
X177553904Y-84764571D01*
X177649142Y-84812190D01*
X178030095Y-84812190D01*
X177077714Y-84383619D02*
X177030095Y-84336000D01*
X176934857Y-84288380D01*
X176696761Y-84288380D01*
X176601523Y-84336000D01*
X176553904Y-84383619D01*
X176506285Y-84478857D01*
X176506285Y-84574095D01*
X176553904Y-84716952D01*
X177125333Y-85288380D01*
X176506285Y-85288380D01*
%TO.C,R3*%
X177458666Y-90368380D02*
X177792000Y-89892190D01*
X178030095Y-90368380D02*
X178030095Y-89368380D01*
X177649142Y-89368380D01*
X177553904Y-89416000D01*
X177506285Y-89463619D01*
X177458666Y-89558857D01*
X177458666Y-89701714D01*
X177506285Y-89796952D01*
X177553904Y-89844571D01*
X177649142Y-89892190D01*
X178030095Y-89892190D01*
X177125333Y-89368380D02*
X176506285Y-89368380D01*
X176839619Y-89749333D01*
X176696761Y-89749333D01*
X176601523Y-89796952D01*
X176553904Y-89844571D01*
X176506285Y-89939809D01*
X176506285Y-90177904D01*
X176553904Y-90273142D01*
X176601523Y-90320761D01*
X176696761Y-90368380D01*
X176982476Y-90368380D01*
X177077714Y-90320761D01*
X177125333Y-90273142D01*
%TO.C,R4*%
X177458666Y-95702380D02*
X177792000Y-95226190D01*
X178030095Y-95702380D02*
X178030095Y-94702380D01*
X177649142Y-94702380D01*
X177553904Y-94750000D01*
X177506285Y-94797619D01*
X177458666Y-94892857D01*
X177458666Y-95035714D01*
X177506285Y-95130952D01*
X177553904Y-95178571D01*
X177649142Y-95226190D01*
X178030095Y-95226190D01*
X176601523Y-95035714D02*
X176601523Y-95702380D01*
X176839619Y-94654761D02*
X177077714Y-95369047D01*
X176458666Y-95369047D01*
%TD*%
%LPC*%
D12*
%TO.C,U1*%
X160782000Y-77470000D03*
X168402000Y-92710000D03*
X160782000Y-80010000D03*
X168402000Y-90170000D03*
X160782000Y-82550000D03*
X168402000Y-87630000D03*
X160782000Y-85090000D03*
X168402000Y-85090000D03*
X160782000Y-87630000D03*
X168402000Y-82550000D03*
X160782000Y-90170000D03*
X168402000Y-80010000D03*
X160782000Y-92710000D03*
D13*
X168402000Y-77470000D03*
%TD*%
D14*
%TO.C,Q2*%
X186690000Y-90786000D03*
G36*
G01*
X188680000Y-91411000D02*
X188680000Y-90161000D01*
G75*
G02*
X188955000Y-89886000I275000J0D01*
G01*
X189505000Y-89886000D01*
G75*
G02*
X189780000Y-90161000I0J-275000D01*
G01*
X189780000Y-91411000D01*
G75*
G02*
X189505000Y-91686000I-275000J0D01*
G01*
X188955000Y-91686000D01*
G75*
G02*
X188680000Y-91411000I0J275000D01*
G01*
G37*
G36*
G01*
X187410000Y-93481000D02*
X187410000Y-92231000D01*
G75*
G02*
X187685000Y-91956000I275000J0D01*
G01*
X188235000Y-91956000D01*
G75*
G02*
X188510000Y-92231000I0J-275000D01*
G01*
X188510000Y-93481000D01*
G75*
G02*
X188235000Y-93756000I-275000J0D01*
G01*
X187685000Y-93756000D01*
G75*
G02*
X187410000Y-93481000I0J275000D01*
G01*
G37*
%TD*%
%TO.C,Q1*%
X186690000Y-82658000D03*
G36*
G01*
X188680000Y-83283000D02*
X188680000Y-82033000D01*
G75*
G02*
X188955000Y-81758000I275000J0D01*
G01*
X189505000Y-81758000D01*
G75*
G02*
X189780000Y-82033000I0J-275000D01*
G01*
X189780000Y-83283000D01*
G75*
G02*
X189505000Y-83558000I-275000J0D01*
G01*
X188955000Y-83558000D01*
G75*
G02*
X188680000Y-83283000I0J275000D01*
G01*
G37*
G36*
G01*
X187410000Y-85353000D02*
X187410000Y-84103000D01*
G75*
G02*
X187685000Y-83828000I275000J0D01*
G01*
X188235000Y-83828000D01*
G75*
G02*
X188510000Y-84103000I0J-275000D01*
G01*
X188510000Y-85353000D01*
G75*
G02*
X188235000Y-85628000I-275000J0D01*
G01*
X187685000Y-85628000D01*
G75*
G02*
X187410000Y-85353000I0J275000D01*
G01*
G37*
%TD*%
D15*
%TO.C,R1*%
X182372000Y-77216000D03*
D12*
X172212000Y-77216000D03*
%TD*%
D16*
%TO.C,SW1*%
X99568000Y-98552000D03*
X90932000Y-98552000D03*
%TD*%
%TO.C,SW2*%
X108712000Y-89662000D03*
X100076000Y-89662000D03*
%TD*%
%TO.C,SW3*%
X108712000Y-107696000D03*
X100076000Y-107696000D03*
%TD*%
%TO.C,SW4*%
X117602000Y-98552000D03*
X108966000Y-98552000D03*
%TD*%
%TO.C,SW5*%
X136144000Y-104648000D03*
X127508000Y-104648000D03*
%TD*%
%TO.C,SW6*%
X152400000Y-104648000D03*
X143764000Y-104648000D03*
%TD*%
%TO.C,SW7*%
X173990000Y-104648000D03*
X165354000Y-104648000D03*
%TD*%
%TO.C,SW8*%
X189738000Y-104648000D03*
X181102000Y-104648000D03*
%TD*%
%TO.C,J1*%
G36*
G01*
X123914000Y-80560000D02*
X123914000Y-79460000D01*
G75*
G02*
X124164000Y-79210000I250000J0D01*
G01*
X125264000Y-79210000D01*
G75*
G02*
X125514000Y-79460000I0J-250000D01*
G01*
X125514000Y-80560000D01*
G75*
G02*
X125264000Y-80810000I-250000J0D01*
G01*
X124164000Y-80810000D01*
G75*
G02*
X123914000Y-80560000I0J250000D01*
G01*
G37*
%TD*%
%TO.C,J2*%
G36*
G01*
X126708000Y-80560000D02*
X126708000Y-79460000D01*
G75*
G02*
X126958000Y-79210000I250000J0D01*
G01*
X128058000Y-79210000D01*
G75*
G02*
X128308000Y-79460000I0J-250000D01*
G01*
X128308000Y-80560000D01*
G75*
G02*
X128058000Y-80810000I-250000J0D01*
G01*
X126958000Y-80810000D01*
G75*
G02*
X126708000Y-80560000I0J250000D01*
G01*
G37*
%TD*%
%TO.C,J3*%
G36*
G01*
X129502000Y-80560000D02*
X129502000Y-79460000D01*
G75*
G02*
X129752000Y-79210000I250000J0D01*
G01*
X130852000Y-79210000D01*
G75*
G02*
X131102000Y-79460000I0J-250000D01*
G01*
X131102000Y-80560000D01*
G75*
G02*
X130852000Y-80810000I-250000J0D01*
G01*
X129752000Y-80810000D01*
G75*
G02*
X129502000Y-80560000I0J250000D01*
G01*
G37*
%TD*%
%TO.C,J4*%
G36*
G01*
X132296000Y-80560000D02*
X132296000Y-79460000D01*
G75*
G02*
X132546000Y-79210000I250000J0D01*
G01*
X133646000Y-79210000D01*
G75*
G02*
X133896000Y-79460000I0J-250000D01*
G01*
X133896000Y-80560000D01*
G75*
G02*
X133646000Y-80810000I-250000J0D01*
G01*
X132546000Y-80810000D01*
G75*
G02*
X132296000Y-80560000I0J250000D01*
G01*
G37*
%TD*%
%TO.C,J5*%
G36*
G01*
X135090000Y-80560000D02*
X135090000Y-79460000D01*
G75*
G02*
X135340000Y-79210000I250000J0D01*
G01*
X136440000Y-79210000D01*
G75*
G02*
X136690000Y-79460000I0J-250000D01*
G01*
X136690000Y-80560000D01*
G75*
G02*
X136440000Y-80810000I-250000J0D01*
G01*
X135340000Y-80810000D01*
G75*
G02*
X135090000Y-80560000I0J250000D01*
G01*
G37*
%TD*%
%TO.C,J6*%
G36*
G01*
X137884000Y-80560000D02*
X137884000Y-79460000D01*
G75*
G02*
X138134000Y-79210000I250000J0D01*
G01*
X139234000Y-79210000D01*
G75*
G02*
X139484000Y-79460000I0J-250000D01*
G01*
X139484000Y-80560000D01*
G75*
G02*
X139234000Y-80810000I-250000J0D01*
G01*
X138134000Y-80810000D01*
G75*
G02*
X137884000Y-80560000I0J250000D01*
G01*
G37*
%TD*%
%TO.C,J7*%
G36*
G01*
X140678000Y-80560000D02*
X140678000Y-79460000D01*
G75*
G02*
X140928000Y-79210000I250000J0D01*
G01*
X142028000Y-79210000D01*
G75*
G02*
X142278000Y-79460000I0J-250000D01*
G01*
X142278000Y-80560000D01*
G75*
G02*
X142028000Y-80810000I-250000J0D01*
G01*
X140928000Y-80810000D01*
G75*
G02*
X140678000Y-80560000I0J250000D01*
G01*
G37*
%TD*%
D12*
%TO.C,R2*%
X172212000Y-82380666D03*
D15*
X182372000Y-82380666D03*
%TD*%
D12*
%TO.C,R3*%
X182372000Y-87545332D03*
D15*
X172212000Y-87545332D03*
%TD*%
%TO.C,R4*%
X172212000Y-92710000D03*
D12*
X182372000Y-92710000D03*
%TD*%
M02*
