%TF.GenerationSoftware,KiCad,Pcbnew,(5.1.10)-1*%
%TF.CreationDate,2021-06-16T14:50:00-05:00*%
%TF.ProjectId,nes-c64,6e65732d-6336-4342-9e6b-696361645f70,rev?*%
%TF.SameCoordinates,Original*%
%TF.FileFunction,Profile,NP*%
%FSLAX46Y46*%
G04 Gerber Fmt 4.6, Leading zero omitted, Abs format (unit mm)*
G04 Created by KiCad (PCBNEW (5.1.10)-1) date 2021-06-16 14:50:00*
%MOMM*%
%LPD*%
G01*
G04 APERTURE LIST*
%TA.AperFunction,Profile*%
%ADD10C,0.100000*%
%TD*%
G04 APERTURE END LIST*
D10*
X122682000Y-115062000D02*
X122682000Y-113030000D01*
X166116000Y-113030000D02*
X166116000Y-115062000D01*
X162814000Y-115062000D02*
X162814000Y-113030000D01*
X122936000Y-74168000D02*
X126238000Y-74168000D01*
X162814000Y-72136000D02*
X162814000Y-72644000D01*
X162306000Y-72136000D02*
X162814000Y-72136000D01*
X162814000Y-73914000D02*
X162814000Y-74168000D01*
X163068000Y-74168000D02*
X162814000Y-74168000D01*
X166116000Y-74168000D02*
X165862000Y-74168000D01*
X166116000Y-73914000D02*
X166116000Y-74168000D01*
X166116000Y-72136000D02*
X166624000Y-72136000D01*
X166116000Y-72644000D02*
X166116000Y-72136000D01*
X126238000Y-72136000D02*
X126746000Y-72136000D01*
X126238000Y-74168000D02*
X126238000Y-72136000D01*
X122936000Y-72136000D02*
X122936000Y-74168000D01*
X121158000Y-72136000D02*
X122936000Y-72136000D01*
X121158000Y-72644000D02*
X121158000Y-72136000D01*
X98806000Y-83058000D02*
X101346000Y-82296000D01*
X96266000Y-84328000D02*
X98806000Y-83058000D01*
X101346000Y-82296000D02*
X102870000Y-82042000D01*
X94742000Y-85344000D02*
X96266000Y-84328000D01*
X93472000Y-86360000D02*
X94742000Y-85344000D01*
X92710000Y-87122000D02*
X93472000Y-86360000D01*
X91948000Y-87884000D02*
X92710000Y-87122000D01*
X90170000Y-90424000D02*
X91948000Y-87884000D01*
X89662000Y-91440000D02*
X90170000Y-90424000D01*
X89154000Y-92456000D02*
X89662000Y-91440000D01*
X88646000Y-93980000D02*
X89154000Y-92456000D01*
X88392000Y-94996000D02*
X88646000Y-93980000D01*
X88138000Y-96266000D02*
X88392000Y-94996000D01*
X87884000Y-98044000D02*
X88138000Y-96266000D01*
X87884000Y-103378000D02*
X87884000Y-98044000D01*
X125984000Y-113030000D02*
X125984000Y-115062000D01*
X162814000Y-113030000D02*
X166116000Y-113030000D01*
X166624000Y-72136000D02*
X199390000Y-72136000D01*
X166116000Y-73914000D02*
X166116000Y-72644000D01*
X163068000Y-74168000D02*
X165862000Y-74168000D01*
X162814000Y-72644000D02*
X162814000Y-73914000D01*
X126746000Y-72136000D02*
X162306000Y-72136000D01*
X121158000Y-82042000D02*
X121158000Y-72644000D01*
X88646000Y-114554000D02*
X89662000Y-115062000D01*
X88138000Y-113792000D02*
X88646000Y-114554000D01*
X87884000Y-113030000D02*
X88138000Y-113792000D01*
X200660000Y-73152000D02*
X200914000Y-73660000D01*
X199898000Y-72390000D02*
X200660000Y-73152000D01*
X199390000Y-72136000D02*
X199898000Y-72390000D01*
X200660000Y-114046000D02*
X200914000Y-113030000D01*
X199898000Y-114808000D02*
X200660000Y-114046000D01*
X198374000Y-115062000D02*
X199898000Y-114808000D01*
X166116000Y-115062000D02*
X198374000Y-115062000D01*
X125984000Y-115062000D02*
X162814000Y-115062000D01*
X122682000Y-113030000D02*
X125984000Y-113030000D01*
X89662000Y-115062000D02*
X122682000Y-115062000D01*
X141100000Y-111000000D02*
G75*
G03*
X141100000Y-111000000I-1150000J0D01*
G01*
X198120000Y-110998000D02*
G75*
G03*
X198120000Y-110998000I-1150000J0D01*
G01*
X198150000Y-76000000D02*
G75*
G03*
X198150000Y-76000000I-1150000J0D01*
G01*
X93050000Y-110950000D02*
G75*
G03*
X93050000Y-110950000I-1150000J0D01*
G01*
X159100000Y-98000000D02*
G75*
G03*
X159100000Y-98000000I-1100000J0D01*
G01*
X153436841Y-95000000D02*
G75*
G03*
X153436841Y-95000000I-1436841J0D01*
G01*
X145676000Y-76050000D02*
G75*
G03*
X145676000Y-76050000I-1150000J0D01*
G01*
X118135923Y-86000000D02*
G75*
G03*
X118135923Y-86000000I-1135923J0D01*
G01*
X102870000Y-82042000D02*
X121158000Y-82042000D01*
X87884000Y-113030000D02*
X87884000Y-103378000D01*
X200914000Y-73660000D02*
X200914000Y-113030000D01*
M02*
