%FSLAX45Y45*%
G04 Gerber Fmt 4.5, Leading zero omitted, Abs format (unit mm)*
G04 Created by KiCad (PCBNEW (5.1.10)-1) date 2021-06-16 14:50:18*
%MOMM*%
%LPD*%
G01*
G04 APERTURE LIST*
%TA.AperFunction,Profile*%
%ADD10C,0.100000*%
%TD*%
%ADD11C,0.200000*%
%ADD12C,0.300000*%
G04 APERTURE END LIST*
D10*
X12268200Y-11506200D02*
X12268200Y-11303000D01*
X16611600Y-11303000D02*
X16611600Y-11506200D01*
X16281400Y-11506200D02*
X16281400Y-11303000D01*
X12293600Y-7416800D02*
X12623800Y-7416800D01*
X16281400Y-7213600D02*
X16281400Y-7264400D01*
X16230600Y-7213600D02*
X16281400Y-7213600D01*
X16281400Y-7391400D02*
X16281400Y-7416800D01*
X16306800Y-7416800D02*
X16281400Y-7416800D01*
X16611600Y-7416800D02*
X16586200Y-7416800D01*
X16611600Y-7391400D02*
X16611600Y-7416800D01*
X16611600Y-7213600D02*
X16662400Y-7213600D01*
X16611600Y-7264400D02*
X16611600Y-7213600D01*
X12623800Y-7213600D02*
X12674600Y-7213600D01*
X12623800Y-7416800D02*
X12623800Y-7213600D01*
X12293600Y-7213600D02*
X12293600Y-7416800D01*
X12115800Y-7213600D02*
X12293600Y-7213600D01*
X12115800Y-7264400D02*
X12115800Y-7213600D01*
X9880600Y-8305800D02*
X10134600Y-8229600D01*
X9626600Y-8432800D02*
X9880600Y-8305800D01*
X10134600Y-8229600D02*
X10287000Y-8204200D01*
X9474200Y-8534400D02*
X9626600Y-8432800D01*
X9347200Y-8636000D02*
X9474200Y-8534400D01*
X9271000Y-8712200D02*
X9347200Y-8636000D01*
X9194800Y-8788400D02*
X9271000Y-8712200D01*
X9017000Y-9042400D02*
X9194800Y-8788400D01*
X8966200Y-9144000D02*
X9017000Y-9042400D01*
X8915400Y-9245600D02*
X8966200Y-9144000D01*
X8864600Y-9398000D02*
X8915400Y-9245600D01*
X8839200Y-9499600D02*
X8864600Y-9398000D01*
X8813800Y-9626600D02*
X8839200Y-9499600D01*
X8788400Y-9804400D02*
X8813800Y-9626600D01*
X8788400Y-10337800D02*
X8788400Y-9804400D01*
X12598400Y-11303000D02*
X12598400Y-11506200D01*
X16281400Y-11303000D02*
X16611600Y-11303000D01*
X16662400Y-7213600D02*
X19939000Y-7213600D01*
X16611600Y-7391400D02*
X16611600Y-7264400D01*
X16306800Y-7416800D02*
X16586200Y-7416800D01*
X16281400Y-7264400D02*
X16281400Y-7391400D01*
X12674600Y-7213600D02*
X16230600Y-7213600D01*
X12115800Y-8204200D02*
X12115800Y-7264400D01*
X8864600Y-11455400D02*
X8966200Y-11506200D01*
X8813800Y-11379200D02*
X8864600Y-11455400D01*
X8788400Y-11303000D02*
X8813800Y-11379200D01*
X20066000Y-7315200D02*
X20091400Y-7366000D01*
X19989800Y-7239000D02*
X20066000Y-7315200D01*
X19939000Y-7213600D02*
X19989800Y-7239000D01*
X20066000Y-11404600D02*
X20091400Y-11303000D01*
X19989800Y-11480800D02*
X20066000Y-11404600D01*
X19837400Y-11506200D02*
X19989800Y-11480800D01*
X16611600Y-11506200D02*
X19837400Y-11506200D01*
X12598400Y-11506200D02*
X16281400Y-11506200D01*
X12268200Y-11303000D02*
X12598400Y-11303000D01*
X8966200Y-11506200D02*
X12268200Y-11506200D01*
X14110000Y-11100000D02*
G75*
G03*
X14110000Y-11100000I-115000J0D01*
G01*
X19812000Y-11099800D02*
G75*
G03*
X19812000Y-11099800I-115000J0D01*
G01*
X19815000Y-7600000D02*
G75*
G03*
X19815000Y-7600000I-115000J0D01*
G01*
X9305000Y-11095000D02*
G75*
G03*
X9305000Y-11095000I-115000J0D01*
G01*
X15910000Y-9800000D02*
G75*
G03*
X15910000Y-9800000I-110000J0D01*
G01*
X15343684Y-9500000D02*
G75*
G03*
X15343684Y-9500000I-143684J0D01*
G01*
X14567600Y-7605000D02*
G75*
G03*
X14567600Y-7605000I-115000J0D01*
G01*
X11813592Y-8600000D02*
G75*
G03*
X11813592Y-8600000I-113592J0D01*
G01*
X10287000Y-8204200D02*
X12115800Y-8204200D01*
X8788400Y-11303000D02*
X8788400Y-10337800D01*
X20091400Y-7366000D02*
X20091400Y-11303000D01*
D11*
D12*
X9069828Y-11976914D02*
X9069828Y-11676914D01*
X9141257Y-11676914D01*
X9184114Y-11691200D01*
X9212686Y-11719771D01*
X9226971Y-11748343D01*
X9241257Y-11805486D01*
X9241257Y-11848343D01*
X9226971Y-11905486D01*
X9212686Y-11934057D01*
X9184114Y-11962629D01*
X9141257Y-11976914D01*
X9069828Y-11976914D01*
X9369828Y-11976914D02*
X9369828Y-11776914D01*
X9369828Y-11834057D02*
X9384114Y-11805486D01*
X9398400Y-11791200D01*
X9426971Y-11776914D01*
X9455543Y-11776914D01*
X9555543Y-11976914D02*
X9555543Y-11776914D01*
X9555543Y-11676914D02*
X9541257Y-11691200D01*
X9555543Y-11705486D01*
X9569828Y-11691200D01*
X9555543Y-11676914D01*
X9555543Y-11705486D01*
X9741257Y-11976914D02*
X9712686Y-11962629D01*
X9698400Y-11934057D01*
X9698400Y-11676914D01*
X9898400Y-11976914D02*
X9869828Y-11962629D01*
X9855543Y-11934057D01*
X9855543Y-11676914D01*
X10241257Y-11976914D02*
X10241257Y-11676914D01*
X10341257Y-11891200D01*
X10441257Y-11676914D01*
X10441257Y-11976914D01*
X10712686Y-11976914D02*
X10712686Y-11819771D01*
X10698400Y-11791200D01*
X10669828Y-11776914D01*
X10612686Y-11776914D01*
X10584114Y-11791200D01*
X10712686Y-11962629D02*
X10684114Y-11976914D01*
X10612686Y-11976914D01*
X10584114Y-11962629D01*
X10569828Y-11934057D01*
X10569828Y-11905486D01*
X10584114Y-11876914D01*
X10612686Y-11862629D01*
X10684114Y-11862629D01*
X10712686Y-11848343D01*
X10855543Y-11776914D02*
X10855543Y-12076914D01*
X10855543Y-11791200D02*
X10884114Y-11776914D01*
X10941257Y-11776914D01*
X10969828Y-11791200D01*
X10984114Y-11805486D01*
X10998400Y-11834057D01*
X10998400Y-11919771D01*
X10984114Y-11948343D01*
X10969828Y-11962629D01*
X10941257Y-11976914D01*
X10884114Y-11976914D01*
X10855543Y-11962629D01*
X11126971Y-11948343D02*
X11141257Y-11962629D01*
X11126971Y-11976914D01*
X11112686Y-11962629D01*
X11126971Y-11948343D01*
X11126971Y-11976914D01*
X11126971Y-11791200D02*
X11141257Y-11805486D01*
X11126971Y-11819771D01*
X11112686Y-11805486D01*
X11126971Y-11791200D01*
X11126971Y-11819771D01*
M02*
