%TF.GenerationSoftware,KiCad,Pcbnew,(5.1.10)-1*%
%TF.CreationDate,2021-06-16T14:50:00-05:00*%
%TF.ProjectId,nes-c64,6e65732d-6336-4342-9e6b-696361645f70,rev?*%
%TF.SameCoordinates,Original*%
%TF.FileFunction,Copper,L1,Top*%
%TF.FilePolarity,Positive*%
%FSLAX46Y46*%
G04 Gerber Fmt 4.6, Leading zero omitted, Abs format (unit mm)*
G04 Created by KiCad (PCBNEW (5.1.10)-1) date 2021-06-16 14:50:00*
%MOMM*%
%LPD*%
G01*
G04 APERTURE LIST*
%TA.AperFunction,EtchedComponent*%
%ADD10C,0.203200*%
%TD*%
%TA.AperFunction,ComponentPad*%
%ADD11O,1.600000X1.600000*%
%TD*%
%TA.AperFunction,ComponentPad*%
%ADD12R,1.600000X1.600000*%
%TD*%
%TA.AperFunction,ComponentPad*%
%ADD13R,1.100000X1.800000*%
%TD*%
%TA.AperFunction,ComponentPad*%
%ADD14C,1.600000*%
%TD*%
%TA.AperFunction,ConnectorPad*%
%ADD15R,0.889000X0.889000*%
%TD*%
%TA.AperFunction,ViaPad*%
%ADD16C,0.800000*%
%TD*%
%TA.AperFunction,Conductor*%
%ADD17C,0.250000*%
%TD*%
%TA.AperFunction,Conductor*%
%ADD18C,0.254000*%
%TD*%
%TA.AperFunction,Conductor*%
%ADD19C,0.100000*%
%TD*%
G04 APERTURE END LIST*
D10*
%TO.C,SW1*%
X98298000Y-95504000D02*
X91440000Y-95504000D01*
X99060000Y-96266000D02*
X92202000Y-96266000D01*
X98298000Y-97028000D02*
X91440000Y-97028000D01*
X99060000Y-97790000D02*
X92202000Y-97790000D01*
X98298000Y-98552000D02*
X91440000Y-98552000D01*
X99060000Y-99314000D02*
X92202000Y-99314000D01*
X98298000Y-100076000D02*
X91440000Y-100076000D01*
X99060000Y-100838000D02*
X92202000Y-100838000D01*
X98298000Y-101600000D02*
X91440000Y-101600000D01*
X99060000Y-102362000D02*
X95758000Y-102362000D01*
X99060000Y-94742000D02*
X95758000Y-94742000D01*
X94742000Y-94742000D02*
X91440000Y-94742000D01*
X99060000Y-102362000D02*
X99060000Y-94742000D01*
X91440000Y-102362000D02*
X91440000Y-94742000D01*
X94742000Y-102362000D02*
X91440000Y-102362000D01*
%TO.C,SW2*%
X107442000Y-86614000D02*
X100584000Y-86614000D01*
X108204000Y-87376000D02*
X101346000Y-87376000D01*
X107442000Y-88138000D02*
X100584000Y-88138000D01*
X108204000Y-88900000D02*
X101346000Y-88900000D01*
X107442000Y-89662000D02*
X100584000Y-89662000D01*
X108204000Y-90424000D02*
X101346000Y-90424000D01*
X107442000Y-91186000D02*
X100584000Y-91186000D01*
X108204000Y-91948000D02*
X101346000Y-91948000D01*
X107442000Y-92710000D02*
X100584000Y-92710000D01*
X108204000Y-93472000D02*
X104902000Y-93472000D01*
X108204000Y-85852000D02*
X104902000Y-85852000D01*
X103886000Y-85852000D02*
X100584000Y-85852000D01*
X108204000Y-93472000D02*
X108204000Y-85852000D01*
X100584000Y-93472000D02*
X100584000Y-85852000D01*
X103886000Y-93472000D02*
X100584000Y-93472000D01*
%TO.C,SW3*%
X107442000Y-104648000D02*
X100584000Y-104648000D01*
X108204000Y-105410000D02*
X101346000Y-105410000D01*
X107442000Y-106172000D02*
X100584000Y-106172000D01*
X108204000Y-106934000D02*
X101346000Y-106934000D01*
X107442000Y-107696000D02*
X100584000Y-107696000D01*
X108204000Y-108458000D02*
X101346000Y-108458000D01*
X107442000Y-109220000D02*
X100584000Y-109220000D01*
X108204000Y-109982000D02*
X101346000Y-109982000D01*
X107442000Y-110744000D02*
X100584000Y-110744000D01*
X108204000Y-111506000D02*
X104902000Y-111506000D01*
X108204000Y-103886000D02*
X104902000Y-103886000D01*
X103886000Y-103886000D02*
X100584000Y-103886000D01*
X108204000Y-111506000D02*
X108204000Y-103886000D01*
X100584000Y-111506000D02*
X100584000Y-103886000D01*
X103886000Y-111506000D02*
X100584000Y-111506000D01*
%TO.C,SW4*%
X116332000Y-95504000D02*
X109474000Y-95504000D01*
X117094000Y-96266000D02*
X110236000Y-96266000D01*
X116332000Y-97028000D02*
X109474000Y-97028000D01*
X117094000Y-97790000D02*
X110236000Y-97790000D01*
X116332000Y-98552000D02*
X109474000Y-98552000D01*
X117094000Y-99314000D02*
X110236000Y-99314000D01*
X116332000Y-100076000D02*
X109474000Y-100076000D01*
X117094000Y-100838000D02*
X110236000Y-100838000D01*
X116332000Y-101600000D02*
X109474000Y-101600000D01*
X117094000Y-102362000D02*
X113792000Y-102362000D01*
X117094000Y-94742000D02*
X113792000Y-94742000D01*
X112776000Y-94742000D02*
X109474000Y-94742000D01*
X117094000Y-102362000D02*
X117094000Y-94742000D01*
X109474000Y-102362000D02*
X109474000Y-94742000D01*
X112776000Y-102362000D02*
X109474000Y-102362000D01*
%TO.C,SW5*%
X134874000Y-101600000D02*
X128016000Y-101600000D01*
X135636000Y-102362000D02*
X128778000Y-102362000D01*
X134874000Y-103124000D02*
X128016000Y-103124000D01*
X135636000Y-103886000D02*
X128778000Y-103886000D01*
X134874000Y-104648000D02*
X128016000Y-104648000D01*
X135636000Y-105410000D02*
X128778000Y-105410000D01*
X134874000Y-106172000D02*
X128016000Y-106172000D01*
X135636000Y-106934000D02*
X128778000Y-106934000D01*
X134874000Y-107696000D02*
X128016000Y-107696000D01*
X135636000Y-108458000D02*
X132334000Y-108458000D01*
X135636000Y-100838000D02*
X132334000Y-100838000D01*
X131318000Y-100838000D02*
X128016000Y-100838000D01*
X135636000Y-108458000D02*
X135636000Y-100838000D01*
X128016000Y-108458000D02*
X128016000Y-100838000D01*
X131318000Y-108458000D02*
X128016000Y-108458000D01*
%TO.C,SW6*%
X151130000Y-101600000D02*
X144272000Y-101600000D01*
X151892000Y-102362000D02*
X145034000Y-102362000D01*
X151130000Y-103124000D02*
X144272000Y-103124000D01*
X151892000Y-103886000D02*
X145034000Y-103886000D01*
X151130000Y-104648000D02*
X144272000Y-104648000D01*
X151892000Y-105410000D02*
X145034000Y-105410000D01*
X151130000Y-106172000D02*
X144272000Y-106172000D01*
X151892000Y-106934000D02*
X145034000Y-106934000D01*
X151130000Y-107696000D02*
X144272000Y-107696000D01*
X151892000Y-108458000D02*
X148590000Y-108458000D01*
X151892000Y-100838000D02*
X148590000Y-100838000D01*
X147574000Y-100838000D02*
X144272000Y-100838000D01*
X151892000Y-108458000D02*
X151892000Y-100838000D01*
X144272000Y-108458000D02*
X144272000Y-100838000D01*
X147574000Y-108458000D02*
X144272000Y-108458000D01*
%TO.C,SW7*%
X172720000Y-101600000D02*
X165862000Y-101600000D01*
X173482000Y-102362000D02*
X166624000Y-102362000D01*
X172720000Y-103124000D02*
X165862000Y-103124000D01*
X173482000Y-103886000D02*
X166624000Y-103886000D01*
X172720000Y-104648000D02*
X165862000Y-104648000D01*
X173482000Y-105410000D02*
X166624000Y-105410000D01*
X172720000Y-106172000D02*
X165862000Y-106172000D01*
X173482000Y-106934000D02*
X166624000Y-106934000D01*
X172720000Y-107696000D02*
X165862000Y-107696000D01*
X173482000Y-108458000D02*
X170180000Y-108458000D01*
X173482000Y-100838000D02*
X170180000Y-100838000D01*
X169164000Y-100838000D02*
X165862000Y-100838000D01*
X173482000Y-108458000D02*
X173482000Y-100838000D01*
X165862000Y-108458000D02*
X165862000Y-100838000D01*
X169164000Y-108458000D02*
X165862000Y-108458000D01*
%TO.C,SW8*%
X188468000Y-101600000D02*
X181610000Y-101600000D01*
X189230000Y-102362000D02*
X182372000Y-102362000D01*
X188468000Y-103124000D02*
X181610000Y-103124000D01*
X189230000Y-103886000D02*
X182372000Y-103886000D01*
X188468000Y-104648000D02*
X181610000Y-104648000D01*
X189230000Y-105410000D02*
X182372000Y-105410000D01*
X188468000Y-106172000D02*
X181610000Y-106172000D01*
X189230000Y-106934000D02*
X182372000Y-106934000D01*
X188468000Y-107696000D02*
X181610000Y-107696000D01*
X189230000Y-108458000D02*
X185928000Y-108458000D01*
X189230000Y-100838000D02*
X185928000Y-100838000D01*
X184912000Y-100838000D02*
X181610000Y-100838000D01*
X189230000Y-108458000D02*
X189230000Y-100838000D01*
X181610000Y-108458000D02*
X181610000Y-100838000D01*
X184912000Y-108458000D02*
X181610000Y-108458000D01*
%TD*%
D11*
%TO.P,U1,14*%
%TO.N,+5V*%
X160782000Y-77470000D03*
%TO.P,U1,7*%
%TO.N,GND*%
X168402000Y-92710000D03*
%TO.P,U1,13*%
%TO.N,N/C*%
X160782000Y-80010000D03*
%TO.P,U1,6*%
%TO.N,Net-(R2-Pad2)*%
X168402000Y-90170000D03*
%TO.P,U1,12*%
%TO.N,Net-(R4-Pad1)*%
X160782000Y-82550000D03*
%TO.P,U1,5*%
X168402000Y-87630000D03*
%TO.P,U1,11*%
%TO.N,N/C*%
X160782000Y-85090000D03*
%TO.P,U1,4*%
%TO.N,Net-(R1-Pad2)*%
X168402000Y-85090000D03*
%TO.P,U1,10*%
%TO.N,+5V*%
X160782000Y-87630000D03*
%TO.P,U1,3*%
%TO.N,GND*%
X168402000Y-82550000D03*
%TO.P,U1,9*%
%TO.N,Net-(R3-Pad1)*%
X160782000Y-90170000D03*
%TO.P,U1,2*%
%TO.N,N/C*%
X168402000Y-80010000D03*
%TO.P,U1,8*%
%TO.N,Net-(R4-Pad1)*%
X160782000Y-92710000D03*
D12*
%TO.P,U1,1*%
%TO.N,N/C*%
X168402000Y-77470000D03*
%TD*%
D13*
%TO.P,Q2,1*%
%TO.N,/pin-fire*%
X186690000Y-90786000D03*
%TO.P,Q2,3*%
%TO.N,Net-(Q1-Pad3)*%
%TA.AperFunction,ComponentPad*%
G36*
G01*
X188680000Y-91411000D02*
X188680000Y-90161000D01*
G75*
G02*
X188955000Y-89886000I275000J0D01*
G01*
X189505000Y-89886000D01*
G75*
G02*
X189780000Y-90161000I0J-275000D01*
G01*
X189780000Y-91411000D01*
G75*
G02*
X189505000Y-91686000I-275000J0D01*
G01*
X188955000Y-91686000D01*
G75*
G02*
X188680000Y-91411000I0J275000D01*
G01*
G37*
%TD.AperFunction*%
%TO.P,Q2,2*%
%TO.N,Net-(Q2-Pad2)*%
%TA.AperFunction,ComponentPad*%
G36*
G01*
X187410000Y-93481000D02*
X187410000Y-92231000D01*
G75*
G02*
X187685000Y-91956000I275000J0D01*
G01*
X188235000Y-91956000D01*
G75*
G02*
X188510000Y-92231000I0J-275000D01*
G01*
X188510000Y-93481000D01*
G75*
G02*
X188235000Y-93756000I-275000J0D01*
G01*
X187685000Y-93756000D01*
G75*
G02*
X187410000Y-93481000I0J275000D01*
G01*
G37*
%TD.AperFunction*%
%TD*%
%TO.P,Q1,1*%
%TO.N,/pin-up*%
X186690000Y-82658000D03*
%TO.P,Q1,3*%
%TO.N,Net-(Q1-Pad3)*%
%TA.AperFunction,ComponentPad*%
G36*
G01*
X188680000Y-83283000D02*
X188680000Y-82033000D01*
G75*
G02*
X188955000Y-81758000I275000J0D01*
G01*
X189505000Y-81758000D01*
G75*
G02*
X189780000Y-82033000I0J-275000D01*
G01*
X189780000Y-83283000D01*
G75*
G02*
X189505000Y-83558000I-275000J0D01*
G01*
X188955000Y-83558000D01*
G75*
G02*
X188680000Y-83283000I0J275000D01*
G01*
G37*
%TD.AperFunction*%
%TO.P,Q1,2*%
%TO.N,Net-(Q1-Pad2)*%
%TA.AperFunction,ComponentPad*%
G36*
G01*
X187410000Y-85353000D02*
X187410000Y-84103000D01*
G75*
G02*
X187685000Y-83828000I275000J0D01*
G01*
X188235000Y-83828000D01*
G75*
G02*
X188510000Y-84103000I0J-275000D01*
G01*
X188510000Y-85353000D01*
G75*
G02*
X188235000Y-85628000I-275000J0D01*
G01*
X187685000Y-85628000D01*
G75*
G02*
X187410000Y-85353000I0J275000D01*
G01*
G37*
%TD.AperFunction*%
%TD*%
D14*
%TO.P,R1,1*%
%TO.N,+5V*%
X182372000Y-77216000D03*
D11*
%TO.P,R1,2*%
%TO.N,Net-(R1-Pad2)*%
X172212000Y-77216000D03*
%TD*%
D15*
%TO.P,SW1,2*%
%TO.N,GND*%
X99568000Y-98552000D03*
%TO.P,SW1,1*%
%TO.N,/pin-left*%
X90932000Y-98552000D03*
%TD*%
%TO.P,SW2,2*%
%TO.N,GND*%
X108712000Y-89662000D03*
%TO.P,SW2,1*%
%TO.N,/pin-up*%
X100076000Y-89662000D03*
%TD*%
%TO.P,SW3,2*%
%TO.N,GND*%
X108712000Y-107696000D03*
%TO.P,SW3,1*%
%TO.N,/pin-down*%
X100076000Y-107696000D03*
%TD*%
%TO.P,SW4,2*%
%TO.N,GND*%
X117602000Y-98552000D03*
%TO.P,SW4,1*%
%TO.N,/pin-right*%
X108966000Y-98552000D03*
%TD*%
%TO.P,SW5,2*%
%TO.N,GND*%
X136144000Y-104648000D03*
%TO.P,SW5,1*%
%TO.N,Net-(R1-Pad2)*%
X127508000Y-104648000D03*
%TD*%
%TO.P,SW6,2*%
%TO.N,GND*%
X152400000Y-104648000D03*
%TO.P,SW6,1*%
%TO.N,Net-(R2-Pad2)*%
X143764000Y-104648000D03*
%TD*%
%TO.P,SW7,2*%
%TO.N,GND*%
X173990000Y-104648000D03*
%TO.P,SW7,1*%
%TO.N,/pin-fire*%
X165354000Y-104648000D03*
%TD*%
%TO.P,SW8,2*%
%TO.N,GND*%
X189738000Y-104648000D03*
%TO.P,SW8,1*%
%TO.N,Net-(Q1-Pad3)*%
X181102000Y-104648000D03*
%TD*%
%TO.P,J1,1*%
%TO.N,GND*%
%TA.AperFunction,ComponentPad*%
G36*
G01*
X123914000Y-80560000D02*
X123914000Y-79460000D01*
G75*
G02*
X124164000Y-79210000I250000J0D01*
G01*
X125264000Y-79210000D01*
G75*
G02*
X125514000Y-79460000I0J-250000D01*
G01*
X125514000Y-80560000D01*
G75*
G02*
X125264000Y-80810000I-250000J0D01*
G01*
X124164000Y-80810000D01*
G75*
G02*
X123914000Y-80560000I0J250000D01*
G01*
G37*
%TD.AperFunction*%
%TD*%
%TO.P,J2,1*%
%TO.N,/pin-left*%
%TA.AperFunction,ComponentPad*%
G36*
G01*
X126708000Y-80560000D02*
X126708000Y-79460000D01*
G75*
G02*
X126958000Y-79210000I250000J0D01*
G01*
X128058000Y-79210000D01*
G75*
G02*
X128308000Y-79460000I0J-250000D01*
G01*
X128308000Y-80560000D01*
G75*
G02*
X128058000Y-80810000I-250000J0D01*
G01*
X126958000Y-80810000D01*
G75*
G02*
X126708000Y-80560000I0J250000D01*
G01*
G37*
%TD.AperFunction*%
%TD*%
%TO.P,J3,1*%
%TO.N,/pin-up*%
%TA.AperFunction,ComponentPad*%
G36*
G01*
X129502000Y-80560000D02*
X129502000Y-79460000D01*
G75*
G02*
X129752000Y-79210000I250000J0D01*
G01*
X130852000Y-79210000D01*
G75*
G02*
X131102000Y-79460000I0J-250000D01*
G01*
X131102000Y-80560000D01*
G75*
G02*
X130852000Y-80810000I-250000J0D01*
G01*
X129752000Y-80810000D01*
G75*
G02*
X129502000Y-80560000I0J250000D01*
G01*
G37*
%TD.AperFunction*%
%TD*%
%TO.P,J4,1*%
%TO.N,/pin-down*%
%TA.AperFunction,ComponentPad*%
G36*
G01*
X132296000Y-80560000D02*
X132296000Y-79460000D01*
G75*
G02*
X132546000Y-79210000I250000J0D01*
G01*
X133646000Y-79210000D01*
G75*
G02*
X133896000Y-79460000I0J-250000D01*
G01*
X133896000Y-80560000D01*
G75*
G02*
X133646000Y-80810000I-250000J0D01*
G01*
X132546000Y-80810000D01*
G75*
G02*
X132296000Y-80560000I0J250000D01*
G01*
G37*
%TD.AperFunction*%
%TD*%
%TO.P,J5,1*%
%TO.N,/pin-right*%
%TA.AperFunction,ComponentPad*%
G36*
G01*
X135090000Y-80560000D02*
X135090000Y-79460000D01*
G75*
G02*
X135340000Y-79210000I250000J0D01*
G01*
X136440000Y-79210000D01*
G75*
G02*
X136690000Y-79460000I0J-250000D01*
G01*
X136690000Y-80560000D01*
G75*
G02*
X136440000Y-80810000I-250000J0D01*
G01*
X135340000Y-80810000D01*
G75*
G02*
X135090000Y-80560000I0J250000D01*
G01*
G37*
%TD.AperFunction*%
%TD*%
%TO.P,J6,1*%
%TO.N,/pin-fire*%
%TA.AperFunction,ComponentPad*%
G36*
G01*
X137884000Y-80560000D02*
X137884000Y-79460000D01*
G75*
G02*
X138134000Y-79210000I250000J0D01*
G01*
X139234000Y-79210000D01*
G75*
G02*
X139484000Y-79460000I0J-250000D01*
G01*
X139484000Y-80560000D01*
G75*
G02*
X139234000Y-80810000I-250000J0D01*
G01*
X138134000Y-80810000D01*
G75*
G02*
X137884000Y-80560000I0J250000D01*
G01*
G37*
%TD.AperFunction*%
%TD*%
%TO.P,J7,1*%
%TO.N,+5V*%
%TA.AperFunction,ComponentPad*%
G36*
G01*
X140678000Y-80560000D02*
X140678000Y-79460000D01*
G75*
G02*
X140928000Y-79210000I250000J0D01*
G01*
X142028000Y-79210000D01*
G75*
G02*
X142278000Y-79460000I0J-250000D01*
G01*
X142278000Y-80560000D01*
G75*
G02*
X142028000Y-80810000I-250000J0D01*
G01*
X140928000Y-80810000D01*
G75*
G02*
X140678000Y-80560000I0J250000D01*
G01*
G37*
%TD.AperFunction*%
%TD*%
D11*
%TO.P,R2,2*%
%TO.N,Net-(R2-Pad2)*%
X172212000Y-82380666D03*
D14*
%TO.P,R2,1*%
%TO.N,+5V*%
X182372000Y-82380666D03*
%TD*%
D11*
%TO.P,R3,2*%
%TO.N,Net-(Q1-Pad2)*%
X182372000Y-87545332D03*
D14*
%TO.P,R3,1*%
%TO.N,Net-(R3-Pad1)*%
X172212000Y-87545332D03*
%TD*%
%TO.P,R4,1*%
%TO.N,Net-(R4-Pad1)*%
X172212000Y-92710000D03*
D11*
%TO.P,R4,2*%
%TO.N,Net-(Q2-Pad2)*%
X182372000Y-92710000D03*
%TD*%
D16*
%TO.N,GND*%
X124714000Y-88138000D03*
X124714000Y-98552000D03*
X102362000Y-98552000D03*
%TO.N,/pin-fire*%
X165354000Y-99822000D03*
%TO.N,+5V*%
X158242000Y-80010000D03*
%TD*%
D17*
%TO.N,GND*%
X123190000Y-89662000D02*
X124714000Y-88138000D01*
X108712000Y-89662000D02*
X123190000Y-89662000D01*
X115570000Y-107696000D02*
X124714000Y-98552000D01*
X108712000Y-107696000D02*
X115570000Y-107696000D01*
X117602000Y-98552000D02*
X124714000Y-98552000D01*
X170016190Y-112527127D02*
X169666873Y-112527127D01*
X189738000Y-108553317D02*
X189738000Y-104648000D01*
X189738000Y-112014000D02*
X189738000Y-108553317D01*
X189224873Y-112527127D02*
X189738000Y-112014000D01*
X173990000Y-111770254D02*
X173233127Y-112527127D01*
X173990000Y-104648000D02*
X173990000Y-111770254D01*
X173233127Y-112527127D02*
X189224873Y-112527127D01*
X169666873Y-112527127D02*
X173233127Y-112527127D01*
X152400000Y-111770254D02*
X151643127Y-112527127D01*
X152400000Y-104648000D02*
X152400000Y-111770254D01*
X169666873Y-112527127D02*
X151643127Y-112527127D01*
X99568000Y-98552000D02*
X102362000Y-98552000D01*
X136144000Y-104648000D02*
X136144000Y-112776000D01*
X136144000Y-112776000D02*
X135636000Y-113284000D01*
X135387127Y-113284000D02*
X135636000Y-113284000D01*
X133699317Y-111596190D02*
X135387127Y-113284000D01*
X133699317Y-110998000D02*
X133699317Y-111596190D01*
X126492000Y-110998000D02*
X133699317Y-110998000D01*
X124714000Y-109220000D02*
X126492000Y-110998000D01*
X124714000Y-98552000D02*
X124714000Y-109220000D01*
X149092873Y-112527127D02*
X148336000Y-113284000D01*
X151643127Y-112527127D02*
X149092873Y-112527127D01*
X148336000Y-113284000D02*
X135636000Y-113284000D01*
%TO.N,/pin-fire*%
X165354000Y-104648000D02*
X165354000Y-99822000D01*
%TO.N,/pin-right*%
X108966000Y-94646683D02*
X108966000Y-98552000D01*
X109297293Y-94315390D02*
X108966000Y-94646683D01*
X121584610Y-94315390D02*
X109297293Y-94315390D01*
X135890000Y-80010000D02*
X121584610Y-94315390D01*
%TO.N,/pin-left*%
X127508000Y-80010000D02*
X127508000Y-80810000D01*
X114182567Y-87512567D02*
X122163023Y-87512567D01*
X110490000Y-83820000D02*
X114182567Y-87512567D01*
X122163023Y-87512567D02*
X127508000Y-82167590D01*
X100838000Y-83820000D02*
X110490000Y-83820000D01*
X127508000Y-82167590D02*
X127508000Y-80010000D01*
X90932000Y-93726000D02*
X100838000Y-83820000D01*
X90932000Y-98552000D02*
X90932000Y-93726000D01*
%TO.N,/pin-down*%
X133096000Y-82042000D02*
X133096000Y-80010000D01*
X121412000Y-93726000D02*
X133096000Y-82042000D01*
X100076000Y-102900273D02*
X100076000Y-103124000D01*
X121412000Y-93726000D02*
X109250273Y-93726000D01*
X109250273Y-93726000D02*
X100076000Y-102900273D01*
X100076000Y-107696000D02*
X100076000Y-103124000D01*
%TO.N,/pin-up*%
X100076000Y-85756683D02*
X100076000Y-89662000D01*
X101504683Y-84328000D02*
X100076000Y-85756683D01*
X110361590Y-84328000D02*
X101504683Y-84328000D01*
X113996166Y-87962576D02*
X110361590Y-84328000D01*
X122349423Y-87962577D02*
X113996166Y-87962576D01*
X130302000Y-80010000D02*
X122349423Y-87962577D01*
%TO.N,+5V*%
X158242000Y-80010000D02*
X158242000Y-80010000D01*
X141478000Y-80010000D02*
X158242000Y-80010000D01*
X160782000Y-77470000D02*
X163068000Y-75184000D01*
X180340000Y-75184000D02*
X182372000Y-77216000D01*
X163068000Y-75184000D02*
X180340000Y-75184000D01*
X182372000Y-77216000D02*
X182372000Y-82380666D01*
X158242000Y-80010000D02*
X160782000Y-77470000D01*
%TO.N,Net-(R1-Pad2)*%
X167276999Y-86215001D02*
X168402000Y-85090000D01*
X142035682Y-86215001D02*
X167276999Y-86215001D01*
X127508000Y-100742683D02*
X142035682Y-86215001D01*
X127508000Y-104648000D02*
X127508000Y-100742683D01*
%TO.N,Net-(R2-Pad2)*%
X164736999Y-93835001D02*
X168402000Y-90170000D01*
X157104704Y-96817747D02*
X160087450Y-93835001D01*
X147688936Y-96817747D02*
X157104704Y-96817747D01*
X160087450Y-93835001D02*
X164736999Y-93835001D01*
X143764000Y-100742683D02*
X147688936Y-96817747D01*
X143764000Y-104648000D02*
X143764000Y-100742683D01*
%TO.N,Net-(Q1-Pad3)*%
X189230000Y-83058000D02*
X189230000Y-91186000D01*
X189230000Y-93726000D02*
X182880000Y-100076000D01*
X189230000Y-91186000D02*
X189230000Y-93726000D01*
X181102000Y-100742683D02*
X181102000Y-104648000D01*
X181768683Y-100076000D02*
X181102000Y-100742683D01*
X182880000Y-100076000D02*
X181768683Y-100076000D01*
%TO.N,Net-(Q1-Pad2)*%
X184742668Y-87545332D02*
X187960000Y-84328000D01*
X182372000Y-87545332D02*
X184742668Y-87545332D01*
%TO.N,Net-(Q2-Pad2)*%
X187706000Y-92710000D02*
X187960000Y-92456000D01*
X182372000Y-92710000D02*
X187706000Y-92710000D01*
%TO.N,Net-(R3-Pad1)*%
X172127332Y-87630000D02*
X172212000Y-87545332D01*
X171171667Y-86504999D02*
X172212000Y-87545332D01*
X167861999Y-86504999D02*
X171171667Y-86504999D01*
X164196998Y-90170000D02*
X167861999Y-86504999D01*
X160782000Y-90170000D02*
X164196998Y-90170000D01*
%TO.N,Net-(R4-Pad1)*%
X172212000Y-91440000D02*
X172212000Y-92710000D01*
X168402000Y-87630000D02*
X172212000Y-91440000D01*
%TD*%
D18*
%TO.N,GND*%
X199492233Y-72952969D02*
X200097030Y-73557766D01*
X200229000Y-73821705D01*
X200229001Y-112945673D01*
X200041470Y-113695794D01*
X199568855Y-114168409D01*
X198317310Y-114377000D01*
X166801000Y-114377000D01*
X166801000Y-113063646D01*
X166804314Y-113030000D01*
X166791088Y-112895717D01*
X166751919Y-112766594D01*
X166688312Y-112647593D01*
X166602711Y-112543289D01*
X166498407Y-112457688D01*
X166379406Y-112394081D01*
X166250283Y-112354912D01*
X166149647Y-112345000D01*
X166116000Y-112341686D01*
X166082353Y-112345000D01*
X162847647Y-112345000D01*
X162814000Y-112341686D01*
X162780353Y-112345000D01*
X162679717Y-112354912D01*
X162550594Y-112394081D01*
X162431593Y-112457688D01*
X162327289Y-112543289D01*
X162241688Y-112647593D01*
X162178081Y-112766594D01*
X162138912Y-112895717D01*
X162125686Y-113030000D01*
X162129001Y-113063657D01*
X162129000Y-114377000D01*
X126669000Y-114377000D01*
X126669000Y-113063646D01*
X126672314Y-113030000D01*
X126659088Y-112895717D01*
X126619919Y-112766594D01*
X126556312Y-112647593D01*
X126470711Y-112543289D01*
X126366407Y-112457688D01*
X126247406Y-112394081D01*
X126118283Y-112354912D01*
X126017647Y-112345000D01*
X125984000Y-112341686D01*
X125950353Y-112345000D01*
X122715647Y-112345000D01*
X122682000Y-112341686D01*
X122648353Y-112345000D01*
X122547717Y-112354912D01*
X122418594Y-112394081D01*
X122299593Y-112457688D01*
X122195289Y-112543289D01*
X122109688Y-112647593D01*
X122046081Y-112766594D01*
X122006912Y-112895717D01*
X121993686Y-113030000D01*
X121997001Y-113063657D01*
X121997000Y-114377000D01*
X89823706Y-114377000D01*
X89115048Y-114022671D01*
X88758840Y-113488359D01*
X88569000Y-112918843D01*
X88569000Y-110768178D01*
X90053932Y-110768178D01*
X90053932Y-111131822D01*
X90124876Y-111488478D01*
X90264036Y-111824441D01*
X90466066Y-112126800D01*
X90723200Y-112383934D01*
X91025559Y-112585964D01*
X91361522Y-112725124D01*
X91718178Y-112796068D01*
X92081822Y-112796068D01*
X92438478Y-112725124D01*
X92774441Y-112585964D01*
X93076800Y-112383934D01*
X93333934Y-112126800D01*
X93535964Y-111824441D01*
X93675124Y-111488478D01*
X93746068Y-111131822D01*
X93746068Y-110768178D01*
X93675124Y-110411522D01*
X93535964Y-110075559D01*
X93333934Y-109773200D01*
X93076800Y-109516066D01*
X92774441Y-109314036D01*
X92438478Y-109174876D01*
X92081822Y-109103932D01*
X91718178Y-109103932D01*
X91361522Y-109174876D01*
X91025559Y-109314036D01*
X90723200Y-109516066D01*
X90466066Y-109773200D01*
X90264036Y-110075559D01*
X90124876Y-110411522D01*
X90053932Y-110768178D01*
X88569000Y-110768178D01*
X88569000Y-98092674D01*
X88813424Y-96381705D01*
X89060499Y-95146331D01*
X89304170Y-94171647D01*
X89788454Y-92718799D01*
X90289732Y-91716243D01*
X90760117Y-90775474D01*
X92474781Y-88325955D01*
X93929542Y-86871194D01*
X95146710Y-85897460D01*
X96610488Y-84921609D01*
X99059465Y-83697121D01*
X100240339Y-83342859D01*
X90420998Y-93162201D01*
X90392000Y-93185999D01*
X90368202Y-93214997D01*
X90368201Y-93214998D01*
X90297026Y-93301724D01*
X90226454Y-93433754D01*
X90214344Y-93473677D01*
X90182998Y-93577014D01*
X90176673Y-93641230D01*
X90168324Y-93726000D01*
X90172001Y-93763332D01*
X90172000Y-97556120D01*
X90133006Y-97576963D01*
X90036315Y-97656315D01*
X89956963Y-97753006D01*
X89897998Y-97863320D01*
X89861688Y-97983018D01*
X89849428Y-98107500D01*
X89849428Y-98996500D01*
X89861688Y-99120982D01*
X89897998Y-99240680D01*
X89956963Y-99350994D01*
X90036315Y-99447685D01*
X90133006Y-99527037D01*
X90243320Y-99586002D01*
X90363018Y-99622312D01*
X90487500Y-99634572D01*
X90703400Y-99634572D01*
X90703400Y-100039811D01*
X90699836Y-100076000D01*
X90703400Y-100112189D01*
X90703400Y-101563813D01*
X90699836Y-101600000D01*
X90703400Y-101636187D01*
X90703400Y-102325814D01*
X90699836Y-102362000D01*
X90714058Y-102506399D01*
X90756178Y-102645249D01*
X90824576Y-102773213D01*
X90916625Y-102885375D01*
X91025850Y-102975014D01*
X91028787Y-102977424D01*
X91156751Y-103045822D01*
X91295601Y-103087942D01*
X91440000Y-103102164D01*
X91476186Y-103098600D01*
X94778186Y-103098600D01*
X94886399Y-103087942D01*
X95025249Y-103045822D01*
X95153213Y-102977424D01*
X95250000Y-102897993D01*
X95346787Y-102977424D01*
X95474751Y-103045822D01*
X95613601Y-103087942D01*
X95721814Y-103098600D01*
X99023814Y-103098600D01*
X99060000Y-103102164D01*
X99096186Y-103098600D01*
X99204399Y-103087942D01*
X99316000Y-103054088D01*
X99316000Y-103161333D01*
X99316001Y-103161343D01*
X99316000Y-106700120D01*
X99277006Y-106720963D01*
X99180315Y-106800315D01*
X99100963Y-106897006D01*
X99041998Y-107007320D01*
X99005688Y-107127018D01*
X98993428Y-107251500D01*
X98993428Y-108140500D01*
X99005688Y-108264982D01*
X99041998Y-108384680D01*
X99100963Y-108494994D01*
X99180315Y-108591685D01*
X99277006Y-108671037D01*
X99387320Y-108730002D01*
X99507018Y-108766312D01*
X99631500Y-108778572D01*
X99847400Y-108778572D01*
X99847400Y-109183811D01*
X99843836Y-109220000D01*
X99847400Y-109256189D01*
X99847400Y-110707813D01*
X99843836Y-110744000D01*
X99847400Y-110780187D01*
X99847400Y-111469814D01*
X99843836Y-111506000D01*
X99858058Y-111650399D01*
X99900178Y-111789249D01*
X99968576Y-111917213D01*
X100060625Y-112029375D01*
X100172787Y-112121424D01*
X100300751Y-112189822D01*
X100439601Y-112231942D01*
X100584000Y-112246164D01*
X100620186Y-112242600D01*
X103922186Y-112242600D01*
X104030399Y-112231942D01*
X104169249Y-112189822D01*
X104297213Y-112121424D01*
X104394000Y-112041993D01*
X104490787Y-112121424D01*
X104618751Y-112189822D01*
X104757601Y-112231942D01*
X104865814Y-112242600D01*
X108167814Y-112242600D01*
X108204000Y-112246164D01*
X108240186Y-112242600D01*
X108348399Y-112231942D01*
X108487249Y-112189822D01*
X108615213Y-112121424D01*
X108727375Y-112029375D01*
X108819424Y-111917213D01*
X108887822Y-111789249D01*
X108929942Y-111650399D01*
X108944164Y-111506000D01*
X108940600Y-111469814D01*
X108940600Y-110818178D01*
X138103932Y-110818178D01*
X138103932Y-111181822D01*
X138174876Y-111538478D01*
X138314036Y-111874441D01*
X138516066Y-112176800D01*
X138773200Y-112433934D01*
X139075559Y-112635964D01*
X139411522Y-112775124D01*
X139768178Y-112846068D01*
X140131822Y-112846068D01*
X140488478Y-112775124D01*
X140824441Y-112635964D01*
X141126800Y-112433934D01*
X141383934Y-112176800D01*
X141585964Y-111874441D01*
X141725124Y-111538478D01*
X141796068Y-111181822D01*
X141796068Y-110818178D01*
X141795671Y-110816178D01*
X195123932Y-110816178D01*
X195123932Y-111179822D01*
X195194876Y-111536478D01*
X195334036Y-111872441D01*
X195536066Y-112174800D01*
X195793200Y-112431934D01*
X196095559Y-112633964D01*
X196431522Y-112773124D01*
X196788178Y-112844068D01*
X197151822Y-112844068D01*
X197508478Y-112773124D01*
X197844441Y-112633964D01*
X198146800Y-112431934D01*
X198403934Y-112174800D01*
X198605964Y-111872441D01*
X198745124Y-111536478D01*
X198816068Y-111179822D01*
X198816068Y-110816178D01*
X198745124Y-110459522D01*
X198605964Y-110123559D01*
X198403934Y-109821200D01*
X198146800Y-109564066D01*
X197844441Y-109362036D01*
X197508478Y-109222876D01*
X197151822Y-109151932D01*
X196788178Y-109151932D01*
X196431522Y-109222876D01*
X196095559Y-109362036D01*
X195793200Y-109564066D01*
X195536066Y-109821200D01*
X195334036Y-110123559D01*
X195194876Y-110459522D01*
X195123932Y-110816178D01*
X141795671Y-110816178D01*
X141725124Y-110461522D01*
X141585964Y-110125559D01*
X141383934Y-109823200D01*
X141126800Y-109566066D01*
X140824441Y-109364036D01*
X140488478Y-109224876D01*
X140131822Y-109153932D01*
X139768178Y-109153932D01*
X139411522Y-109224876D01*
X139075559Y-109364036D01*
X138773200Y-109566066D01*
X138516066Y-109823200D01*
X138314036Y-110125559D01*
X138174876Y-110461522D01*
X138103932Y-110818178D01*
X108940600Y-110818178D01*
X108940600Y-110018186D01*
X108944164Y-109982000D01*
X108940600Y-109945814D01*
X108940600Y-108494185D01*
X108944164Y-108458000D01*
X108940600Y-108421814D01*
X108940600Y-106970186D01*
X108944164Y-106934000D01*
X108940600Y-106897814D01*
X108940600Y-105446186D01*
X108944164Y-105410000D01*
X108940600Y-105373814D01*
X108940600Y-103922186D01*
X108944164Y-103886000D01*
X108929942Y-103741601D01*
X108887822Y-103602751D01*
X108819424Y-103474787D01*
X108727375Y-103362625D01*
X108615213Y-103270576D01*
X108487249Y-103202178D01*
X108348399Y-103160058D01*
X108240186Y-103149400D01*
X108204000Y-103145836D01*
X108167814Y-103149400D01*
X104865814Y-103149400D01*
X104757601Y-103160058D01*
X104618751Y-103202178D01*
X104490787Y-103270576D01*
X104394000Y-103350007D01*
X104297213Y-103270576D01*
X104169249Y-103202178D01*
X104030399Y-103160058D01*
X103922186Y-103149400D01*
X100901674Y-103149400D01*
X108206000Y-95845075D01*
X108206001Y-97556120D01*
X108167006Y-97576963D01*
X108070315Y-97656315D01*
X107990963Y-97753006D01*
X107931998Y-97863320D01*
X107895688Y-97983018D01*
X107883428Y-98107500D01*
X107883428Y-98996500D01*
X107895688Y-99120982D01*
X107931998Y-99240680D01*
X107990963Y-99350994D01*
X108070315Y-99447685D01*
X108167006Y-99527037D01*
X108277320Y-99586002D01*
X108397018Y-99622312D01*
X108521500Y-99634572D01*
X108737400Y-99634572D01*
X108737400Y-100039811D01*
X108733836Y-100076000D01*
X108737400Y-100112189D01*
X108737400Y-101563813D01*
X108733836Y-101600000D01*
X108737400Y-101636187D01*
X108737400Y-102325814D01*
X108733836Y-102362000D01*
X108748058Y-102506399D01*
X108790178Y-102645249D01*
X108858576Y-102773213D01*
X108950625Y-102885375D01*
X109059850Y-102975014D01*
X109062787Y-102977424D01*
X109190751Y-103045822D01*
X109329601Y-103087942D01*
X109474000Y-103102164D01*
X109510186Y-103098600D01*
X112812186Y-103098600D01*
X112920399Y-103087942D01*
X113059249Y-103045822D01*
X113187213Y-102977424D01*
X113284000Y-102897993D01*
X113380787Y-102977424D01*
X113508751Y-103045822D01*
X113647601Y-103087942D01*
X113755814Y-103098600D01*
X117057814Y-103098600D01*
X117094000Y-103102164D01*
X117130186Y-103098600D01*
X117238399Y-103087942D01*
X117377249Y-103045822D01*
X117505213Y-102977424D01*
X117617375Y-102885375D01*
X117709424Y-102773213D01*
X117777822Y-102645249D01*
X117819942Y-102506399D01*
X117834164Y-102362000D01*
X117830600Y-102325814D01*
X117830600Y-100874186D01*
X117834164Y-100838000D01*
X117830600Y-100801814D01*
X117830600Y-99350186D01*
X117834164Y-99314000D01*
X117830600Y-99277814D01*
X117830600Y-97826186D01*
X117834164Y-97790000D01*
X117830600Y-97753814D01*
X117830600Y-96302186D01*
X117834164Y-96266000D01*
X117830600Y-96229814D01*
X117830600Y-95075390D01*
X121547288Y-95075390D01*
X121584610Y-95079066D01*
X121621932Y-95075390D01*
X121621943Y-95075390D01*
X121733596Y-95064393D01*
X121876857Y-95020936D01*
X122008886Y-94950364D01*
X122124611Y-94855391D01*
X122148414Y-94826387D01*
X135526730Y-81448072D01*
X136440000Y-81448072D01*
X136613254Y-81431008D01*
X136779850Y-81380472D01*
X136933386Y-81298405D01*
X137067962Y-81187962D01*
X137178405Y-81053386D01*
X137260472Y-80899850D01*
X137287000Y-80812398D01*
X137313528Y-80899850D01*
X137395595Y-81053386D01*
X137506038Y-81187962D01*
X137640614Y-81298405D01*
X137794150Y-81380472D01*
X137960746Y-81431008D01*
X138134000Y-81448072D01*
X139234000Y-81448072D01*
X139407254Y-81431008D01*
X139573850Y-81380472D01*
X139727386Y-81298405D01*
X139861962Y-81187962D01*
X139972405Y-81053386D01*
X140054472Y-80899850D01*
X140081000Y-80812398D01*
X140107528Y-80899850D01*
X140189595Y-81053386D01*
X140300038Y-81187962D01*
X140434614Y-81298405D01*
X140588150Y-81380472D01*
X140754746Y-81431008D01*
X140928000Y-81448072D01*
X142028000Y-81448072D01*
X142201254Y-81431008D01*
X142367850Y-81380472D01*
X142521386Y-81298405D01*
X142655962Y-81187962D01*
X142766405Y-81053386D01*
X142848472Y-80899850D01*
X142887861Y-80770000D01*
X157538289Y-80770000D01*
X157582226Y-80813937D01*
X157751744Y-80927205D01*
X157940102Y-81005226D01*
X158140061Y-81045000D01*
X158343939Y-81045000D01*
X158543898Y-81005226D01*
X158732256Y-80927205D01*
X158901774Y-80813937D01*
X159045937Y-80669774D01*
X159159205Y-80500256D01*
X159237226Y-80311898D01*
X159277000Y-80111939D01*
X159277000Y-80049801D01*
X159347000Y-79979801D01*
X159347000Y-80151335D01*
X159402147Y-80428574D01*
X159510320Y-80689727D01*
X159667363Y-80924759D01*
X159867241Y-81124637D01*
X160099759Y-81280000D01*
X159867241Y-81435363D01*
X159667363Y-81635241D01*
X159510320Y-81870273D01*
X159402147Y-82131426D01*
X159347000Y-82408665D01*
X159347000Y-82691335D01*
X159402147Y-82968574D01*
X159510320Y-83229727D01*
X159667363Y-83464759D01*
X159867241Y-83664637D01*
X160099759Y-83820000D01*
X159867241Y-83975363D01*
X159667363Y-84175241D01*
X159510320Y-84410273D01*
X159402147Y-84671426D01*
X159347000Y-84948665D01*
X159347000Y-85231335D01*
X159391491Y-85455001D01*
X142073005Y-85455001D01*
X142035682Y-85451325D01*
X141998359Y-85455001D01*
X141998349Y-85455001D01*
X141886696Y-85465998D01*
X141746339Y-85508574D01*
X141743435Y-85509455D01*
X141611405Y-85580027D01*
X141527765Y-85648669D01*
X141495681Y-85675000D01*
X141471883Y-85703998D01*
X126996998Y-100178884D01*
X126968000Y-100202682D01*
X126944202Y-100231680D01*
X126944201Y-100231681D01*
X126873026Y-100318407D01*
X126802454Y-100450437D01*
X126758998Y-100593698D01*
X126744324Y-100742683D01*
X126748001Y-100780015D01*
X126748000Y-103652120D01*
X126709006Y-103672963D01*
X126612315Y-103752315D01*
X126532963Y-103849006D01*
X126473998Y-103959320D01*
X126437688Y-104079018D01*
X126425428Y-104203500D01*
X126425428Y-105092500D01*
X126437688Y-105216982D01*
X126473998Y-105336680D01*
X126532963Y-105446994D01*
X126612315Y-105543685D01*
X126709006Y-105623037D01*
X126819320Y-105682002D01*
X126939018Y-105718312D01*
X127063500Y-105730572D01*
X127279400Y-105730572D01*
X127279400Y-106135811D01*
X127275836Y-106172000D01*
X127279400Y-106208189D01*
X127279400Y-107659813D01*
X127275836Y-107696000D01*
X127279400Y-107732187D01*
X127279400Y-108421814D01*
X127275836Y-108458000D01*
X127290058Y-108602399D01*
X127332178Y-108741249D01*
X127400576Y-108869213D01*
X127492625Y-108981375D01*
X127604787Y-109073424D01*
X127732751Y-109141822D01*
X127871601Y-109183942D01*
X128016000Y-109198164D01*
X128052186Y-109194600D01*
X131354186Y-109194600D01*
X131462399Y-109183942D01*
X131601249Y-109141822D01*
X131729213Y-109073424D01*
X131826000Y-108993993D01*
X131922787Y-109073424D01*
X132050751Y-109141822D01*
X132189601Y-109183942D01*
X132297814Y-109194600D01*
X135599814Y-109194600D01*
X135636000Y-109198164D01*
X135672186Y-109194600D01*
X135780399Y-109183942D01*
X135919249Y-109141822D01*
X136047213Y-109073424D01*
X136159375Y-108981375D01*
X136251424Y-108869213D01*
X136319822Y-108741249D01*
X136361942Y-108602399D01*
X136376164Y-108458000D01*
X136372600Y-108421814D01*
X136372600Y-106970186D01*
X136376164Y-106934000D01*
X136372600Y-106897814D01*
X136372600Y-105446186D01*
X136376164Y-105410000D01*
X136372600Y-105373814D01*
X136372600Y-103922186D01*
X136376164Y-103886000D01*
X136372600Y-103849814D01*
X136372600Y-102398185D01*
X136376164Y-102362000D01*
X136372600Y-102325814D01*
X136372600Y-100874186D01*
X136376164Y-100838000D01*
X136361942Y-100693601D01*
X136319822Y-100554751D01*
X136251424Y-100426787D01*
X136159375Y-100314625D01*
X136047213Y-100222576D01*
X135919249Y-100154178D01*
X135780399Y-100112058D01*
X135672186Y-100101400D01*
X135636000Y-100097836D01*
X135599814Y-100101400D01*
X132297814Y-100101400D01*
X132189601Y-100112058D01*
X132050751Y-100154178D01*
X131922787Y-100222576D01*
X131826000Y-100302007D01*
X131729213Y-100222576D01*
X131601249Y-100154178D01*
X131462399Y-100112058D01*
X131354186Y-100101400D01*
X129224084Y-100101400D01*
X142350484Y-86975001D01*
X159500077Y-86975001D01*
X159402147Y-87211426D01*
X159347000Y-87488665D01*
X159347000Y-87771335D01*
X159402147Y-88048574D01*
X159510320Y-88309727D01*
X159667363Y-88544759D01*
X159867241Y-88744637D01*
X160099759Y-88900000D01*
X159867241Y-89055363D01*
X159667363Y-89255241D01*
X159510320Y-89490273D01*
X159402147Y-89751426D01*
X159347000Y-90028665D01*
X159347000Y-90311335D01*
X159402147Y-90588574D01*
X159510320Y-90849727D01*
X159667363Y-91084759D01*
X159867241Y-91284637D01*
X160099759Y-91440000D01*
X159867241Y-91595363D01*
X159667363Y-91795241D01*
X159510320Y-92030273D01*
X159402147Y-92291426D01*
X159347000Y-92568665D01*
X159347000Y-92851335D01*
X159402147Y-93128574D01*
X159494973Y-93352676D01*
X156789903Y-96057747D01*
X153856802Y-96057747D01*
X153888935Y-96009657D01*
X154049614Y-95621744D01*
X154131527Y-95209937D01*
X154131527Y-94790063D01*
X154049614Y-94378256D01*
X153888935Y-93990343D01*
X153655665Y-93641230D01*
X153358770Y-93344335D01*
X153009657Y-93111065D01*
X152621744Y-92950386D01*
X152209937Y-92868473D01*
X151790063Y-92868473D01*
X151378256Y-92950386D01*
X150990343Y-93111065D01*
X150641230Y-93344335D01*
X150344335Y-93641230D01*
X150111065Y-93990343D01*
X149950386Y-94378256D01*
X149868473Y-94790063D01*
X149868473Y-95209937D01*
X149950386Y-95621744D01*
X150111065Y-96009657D01*
X150143198Y-96057747D01*
X147726261Y-96057747D01*
X147688936Y-96054071D01*
X147651611Y-96057747D01*
X147651603Y-96057747D01*
X147539950Y-96068744D01*
X147396689Y-96112201D01*
X147264660Y-96182773D01*
X147148935Y-96277746D01*
X147125137Y-96306744D01*
X143252998Y-100178884D01*
X143224000Y-100202682D01*
X143200202Y-100231680D01*
X143200201Y-100231681D01*
X143129026Y-100318407D01*
X143058454Y-100450437D01*
X143014998Y-100593698D01*
X143000324Y-100742683D01*
X143004001Y-100780015D01*
X143004000Y-103652120D01*
X142965006Y-103672963D01*
X142868315Y-103752315D01*
X142788963Y-103849006D01*
X142729998Y-103959320D01*
X142693688Y-104079018D01*
X142681428Y-104203500D01*
X142681428Y-105092500D01*
X142693688Y-105216982D01*
X142729998Y-105336680D01*
X142788963Y-105446994D01*
X142868315Y-105543685D01*
X142965006Y-105623037D01*
X143075320Y-105682002D01*
X143195018Y-105718312D01*
X143319500Y-105730572D01*
X143535400Y-105730572D01*
X143535400Y-106135811D01*
X143531836Y-106172000D01*
X143535400Y-106208189D01*
X143535400Y-107659813D01*
X143531836Y-107696000D01*
X143535400Y-107732187D01*
X143535400Y-108421814D01*
X143531836Y-108458000D01*
X143546058Y-108602399D01*
X143588178Y-108741249D01*
X143656576Y-108869213D01*
X143748625Y-108981375D01*
X143860787Y-109073424D01*
X143988751Y-109141822D01*
X144127601Y-109183942D01*
X144272000Y-109198164D01*
X144308186Y-109194600D01*
X147610186Y-109194600D01*
X147718399Y-109183942D01*
X147857249Y-109141822D01*
X147985213Y-109073424D01*
X148082000Y-108993993D01*
X148178787Y-109073424D01*
X148306751Y-109141822D01*
X148445601Y-109183942D01*
X148553814Y-109194600D01*
X151855814Y-109194600D01*
X151892000Y-109198164D01*
X151928186Y-109194600D01*
X152036399Y-109183942D01*
X152175249Y-109141822D01*
X152303213Y-109073424D01*
X152415375Y-108981375D01*
X152507424Y-108869213D01*
X152575822Y-108741249D01*
X152617942Y-108602399D01*
X152632164Y-108458000D01*
X152628600Y-108421814D01*
X152628600Y-106970186D01*
X152632164Y-106934000D01*
X152628600Y-106897814D01*
X152628600Y-105446186D01*
X152632164Y-105410000D01*
X152628600Y-105373814D01*
X152628600Y-104203500D01*
X164271428Y-104203500D01*
X164271428Y-105092500D01*
X164283688Y-105216982D01*
X164319998Y-105336680D01*
X164378963Y-105446994D01*
X164458315Y-105543685D01*
X164555006Y-105623037D01*
X164665320Y-105682002D01*
X164785018Y-105718312D01*
X164909500Y-105730572D01*
X165125400Y-105730572D01*
X165125400Y-106135811D01*
X165121836Y-106172000D01*
X165125400Y-106208189D01*
X165125400Y-107659813D01*
X165121836Y-107696000D01*
X165125400Y-107732187D01*
X165125400Y-108421814D01*
X165121836Y-108458000D01*
X165136058Y-108602399D01*
X165178178Y-108741249D01*
X165246576Y-108869213D01*
X165338625Y-108981375D01*
X165450787Y-109073424D01*
X165578751Y-109141822D01*
X165717601Y-109183942D01*
X165862000Y-109198164D01*
X165898186Y-109194600D01*
X169200186Y-109194600D01*
X169308399Y-109183942D01*
X169447249Y-109141822D01*
X169575213Y-109073424D01*
X169672000Y-108993993D01*
X169768787Y-109073424D01*
X169896751Y-109141822D01*
X170035601Y-109183942D01*
X170143814Y-109194600D01*
X173445814Y-109194600D01*
X173482000Y-109198164D01*
X173518186Y-109194600D01*
X173626399Y-109183942D01*
X173765249Y-109141822D01*
X173893213Y-109073424D01*
X174005375Y-108981375D01*
X174097424Y-108869213D01*
X174165822Y-108741249D01*
X174207942Y-108602399D01*
X174222164Y-108458000D01*
X174218600Y-108421814D01*
X174218600Y-106970186D01*
X174222164Y-106934000D01*
X174218600Y-106897814D01*
X174218600Y-105446186D01*
X174222164Y-105410000D01*
X174218600Y-105373814D01*
X174218600Y-104203500D01*
X180019428Y-104203500D01*
X180019428Y-105092500D01*
X180031688Y-105216982D01*
X180067998Y-105336680D01*
X180126963Y-105446994D01*
X180206315Y-105543685D01*
X180303006Y-105623037D01*
X180413320Y-105682002D01*
X180533018Y-105718312D01*
X180657500Y-105730572D01*
X180873400Y-105730572D01*
X180873400Y-106135811D01*
X180869836Y-106172000D01*
X180873400Y-106208189D01*
X180873400Y-107659813D01*
X180869836Y-107696000D01*
X180873400Y-107732187D01*
X180873400Y-108421814D01*
X180869836Y-108458000D01*
X180884058Y-108602399D01*
X180926178Y-108741249D01*
X180994576Y-108869213D01*
X181086625Y-108981375D01*
X181198787Y-109073424D01*
X181326751Y-109141822D01*
X181465601Y-109183942D01*
X181610000Y-109198164D01*
X181646186Y-109194600D01*
X184948186Y-109194600D01*
X185056399Y-109183942D01*
X185195249Y-109141822D01*
X185323213Y-109073424D01*
X185420000Y-108993993D01*
X185516787Y-109073424D01*
X185644751Y-109141822D01*
X185783601Y-109183942D01*
X185891814Y-109194600D01*
X189193814Y-109194600D01*
X189230000Y-109198164D01*
X189266186Y-109194600D01*
X189374399Y-109183942D01*
X189513249Y-109141822D01*
X189641213Y-109073424D01*
X189753375Y-108981375D01*
X189845424Y-108869213D01*
X189913822Y-108741249D01*
X189955942Y-108602399D01*
X189970164Y-108458000D01*
X189966600Y-108421814D01*
X189966600Y-106970186D01*
X189970164Y-106934000D01*
X189966600Y-106897814D01*
X189966600Y-105446186D01*
X189970164Y-105410000D01*
X189966600Y-105373814D01*
X189966600Y-103922186D01*
X189970164Y-103886000D01*
X189966600Y-103849814D01*
X189966600Y-102398185D01*
X189970164Y-102362000D01*
X189966600Y-102325814D01*
X189966600Y-100874186D01*
X189970164Y-100838000D01*
X189955942Y-100693601D01*
X189913822Y-100554751D01*
X189845424Y-100426787D01*
X189753375Y-100314625D01*
X189641213Y-100222576D01*
X189513249Y-100154178D01*
X189374399Y-100112058D01*
X189266186Y-100101400D01*
X189230000Y-100097836D01*
X189193814Y-100101400D01*
X185891814Y-100101400D01*
X185783601Y-100112058D01*
X185644751Y-100154178D01*
X185516787Y-100222576D01*
X185420000Y-100302007D01*
X185323213Y-100222576D01*
X185195249Y-100154178D01*
X185056399Y-100112058D01*
X184948186Y-100101400D01*
X183929401Y-100101400D01*
X189741003Y-94289799D01*
X189770001Y-94266001D01*
X189805778Y-94222407D01*
X189864974Y-94150277D01*
X189935546Y-94018247D01*
X189946638Y-93981680D01*
X189979003Y-93874986D01*
X189990000Y-93763333D01*
X189990000Y-93763324D01*
X189993676Y-93726001D01*
X189990000Y-93688678D01*
X189990000Y-92182099D01*
X190012276Y-92170192D01*
X190150639Y-92056639D01*
X190264192Y-91918276D01*
X190348569Y-91760418D01*
X190400528Y-91589132D01*
X190418072Y-91411000D01*
X190418072Y-90161000D01*
X190400528Y-89982868D01*
X190348569Y-89811582D01*
X190264192Y-89653724D01*
X190150639Y-89515361D01*
X190012276Y-89401808D01*
X189990000Y-89389901D01*
X189990000Y-84054099D01*
X190012276Y-84042192D01*
X190150639Y-83928639D01*
X190264192Y-83790276D01*
X190348569Y-83632418D01*
X190400528Y-83461132D01*
X190418072Y-83283000D01*
X190418072Y-82033000D01*
X190400528Y-81854868D01*
X190348569Y-81683582D01*
X190264192Y-81525724D01*
X190150639Y-81387361D01*
X190012276Y-81273808D01*
X189854418Y-81189431D01*
X189683132Y-81137472D01*
X189505000Y-81119928D01*
X188955000Y-81119928D01*
X188776868Y-81137472D01*
X188605582Y-81189431D01*
X188447724Y-81273808D01*
X188309361Y-81387361D01*
X188195808Y-81525724D01*
X188111431Y-81683582D01*
X188059472Y-81854868D01*
X188041928Y-82033000D01*
X188041928Y-83189928D01*
X187878072Y-83189928D01*
X187878072Y-81758000D01*
X187865812Y-81633518D01*
X187829502Y-81513820D01*
X187770537Y-81403506D01*
X187691185Y-81306815D01*
X187594494Y-81227463D01*
X187484180Y-81168498D01*
X187364482Y-81132188D01*
X187240000Y-81119928D01*
X186140000Y-81119928D01*
X186015518Y-81132188D01*
X185895820Y-81168498D01*
X185785506Y-81227463D01*
X185688815Y-81306815D01*
X185609463Y-81403506D01*
X185550498Y-81513820D01*
X185514188Y-81633518D01*
X185501928Y-81758000D01*
X185501928Y-83558000D01*
X185514188Y-83682482D01*
X185550498Y-83802180D01*
X185609463Y-83912494D01*
X185688815Y-84009185D01*
X185785506Y-84088537D01*
X185895820Y-84147502D01*
X186015518Y-84183812D01*
X186140000Y-84196072D01*
X186771928Y-84196072D01*
X186771928Y-84441270D01*
X184427867Y-86785332D01*
X183590043Y-86785332D01*
X183486637Y-86630573D01*
X183286759Y-86430695D01*
X183051727Y-86273652D01*
X182790574Y-86165479D01*
X182513335Y-86110332D01*
X182230665Y-86110332D01*
X181953426Y-86165479D01*
X181692273Y-86273652D01*
X181457241Y-86430695D01*
X181257363Y-86630573D01*
X181100320Y-86865605D01*
X180992147Y-87126758D01*
X180937000Y-87403997D01*
X180937000Y-87686667D01*
X180992147Y-87963906D01*
X181100320Y-88225059D01*
X181257363Y-88460091D01*
X181457241Y-88659969D01*
X181692273Y-88817012D01*
X181953426Y-88925185D01*
X182230665Y-88980332D01*
X182513335Y-88980332D01*
X182790574Y-88925185D01*
X183051727Y-88817012D01*
X183286759Y-88659969D01*
X183486637Y-88460091D01*
X183590043Y-88305332D01*
X184705346Y-88305332D01*
X184742668Y-88309008D01*
X184779990Y-88305332D01*
X184780001Y-88305332D01*
X184891654Y-88294335D01*
X185034915Y-88250878D01*
X185166944Y-88180306D01*
X185282669Y-88085333D01*
X185306472Y-88056329D01*
X187225222Y-86137580D01*
X187335582Y-86196569D01*
X187506868Y-86248528D01*
X187685000Y-86266072D01*
X188235000Y-86266072D01*
X188413132Y-86248528D01*
X188470000Y-86231277D01*
X188470001Y-89389901D01*
X188447724Y-89401808D01*
X188309361Y-89515361D01*
X188195808Y-89653724D01*
X188111431Y-89811582D01*
X188059472Y-89982868D01*
X188041928Y-90161000D01*
X188041928Y-91317928D01*
X187878072Y-91317928D01*
X187878072Y-89886000D01*
X187865812Y-89761518D01*
X187829502Y-89641820D01*
X187770537Y-89531506D01*
X187691185Y-89434815D01*
X187594494Y-89355463D01*
X187484180Y-89296498D01*
X187364482Y-89260188D01*
X187240000Y-89247928D01*
X186140000Y-89247928D01*
X186015518Y-89260188D01*
X185895820Y-89296498D01*
X185785506Y-89355463D01*
X185688815Y-89434815D01*
X185609463Y-89531506D01*
X185550498Y-89641820D01*
X185514188Y-89761518D01*
X185501928Y-89886000D01*
X185501928Y-91686000D01*
X185514188Y-91810482D01*
X185550498Y-91930180D01*
X185561092Y-91950000D01*
X183590043Y-91950000D01*
X183486637Y-91795241D01*
X183286759Y-91595363D01*
X183051727Y-91438320D01*
X182790574Y-91330147D01*
X182513335Y-91275000D01*
X182230665Y-91275000D01*
X181953426Y-91330147D01*
X181692273Y-91438320D01*
X181457241Y-91595363D01*
X181257363Y-91795241D01*
X181100320Y-92030273D01*
X180992147Y-92291426D01*
X180937000Y-92568665D01*
X180937000Y-92851335D01*
X180992147Y-93128574D01*
X181100320Y-93389727D01*
X181257363Y-93624759D01*
X181457241Y-93824637D01*
X181692273Y-93981680D01*
X181953426Y-94089853D01*
X182230665Y-94145000D01*
X182513335Y-94145000D01*
X182790574Y-94089853D01*
X183051727Y-93981680D01*
X183286759Y-93824637D01*
X183486637Y-93624759D01*
X183590043Y-93470000D01*
X186771928Y-93470000D01*
X186771928Y-93481000D01*
X186789472Y-93659132D01*
X186841431Y-93830418D01*
X186925808Y-93988276D01*
X187039361Y-94126639D01*
X187177724Y-94240192D01*
X187335582Y-94324569D01*
X187505182Y-94376016D01*
X182565199Y-99316000D01*
X181806005Y-99316000D01*
X181768682Y-99312324D01*
X181731359Y-99316000D01*
X181731350Y-99316000D01*
X181619697Y-99326997D01*
X181476436Y-99370454D01*
X181344406Y-99441026D01*
X181320585Y-99460576D01*
X181228682Y-99535999D01*
X181204883Y-99564998D01*
X180591002Y-100178880D01*
X180561999Y-100202682D01*
X180506871Y-100269857D01*
X180467026Y-100318407D01*
X180440386Y-100368247D01*
X180396454Y-100450437D01*
X180352997Y-100593698D01*
X180342000Y-100705351D01*
X180342000Y-100705361D01*
X180338324Y-100742683D01*
X180342000Y-100780006D01*
X180342001Y-103652120D01*
X180303006Y-103672963D01*
X180206315Y-103752315D01*
X180126963Y-103849006D01*
X180067998Y-103959320D01*
X180031688Y-104079018D01*
X180019428Y-104203500D01*
X174218600Y-104203500D01*
X174218600Y-103922186D01*
X174222164Y-103886000D01*
X174218600Y-103849814D01*
X174218600Y-102398185D01*
X174222164Y-102362000D01*
X174218600Y-102325814D01*
X174218600Y-100874186D01*
X174222164Y-100838000D01*
X174207942Y-100693601D01*
X174165822Y-100554751D01*
X174097424Y-100426787D01*
X174005375Y-100314625D01*
X173893213Y-100222576D01*
X173765249Y-100154178D01*
X173626399Y-100112058D01*
X173518186Y-100101400D01*
X173482000Y-100097836D01*
X173445814Y-100101400D01*
X170143814Y-100101400D01*
X170035601Y-100112058D01*
X169896751Y-100154178D01*
X169768787Y-100222576D01*
X169672000Y-100302007D01*
X169575213Y-100222576D01*
X169447249Y-100154178D01*
X169308399Y-100112058D01*
X169200186Y-100101400D01*
X166353701Y-100101400D01*
X166389000Y-99923939D01*
X166389000Y-99720061D01*
X166349226Y-99520102D01*
X166271205Y-99331744D01*
X166157937Y-99162226D01*
X166013774Y-99018063D01*
X165844256Y-98904795D01*
X165655898Y-98826774D01*
X165455939Y-98787000D01*
X165252061Y-98787000D01*
X165052102Y-98826774D01*
X164863744Y-98904795D01*
X164694226Y-99018063D01*
X164550063Y-99162226D01*
X164436795Y-99331744D01*
X164358774Y-99520102D01*
X164319000Y-99720061D01*
X164319000Y-99923939D01*
X164358774Y-100123898D01*
X164436795Y-100312256D01*
X164550063Y-100481774D01*
X164594001Y-100525712D01*
X164594000Y-103652120D01*
X164555006Y-103672963D01*
X164458315Y-103752315D01*
X164378963Y-103849006D01*
X164319998Y-103959320D01*
X164283688Y-104079018D01*
X164271428Y-104203500D01*
X152628600Y-104203500D01*
X152628600Y-103922186D01*
X152632164Y-103886000D01*
X152628600Y-103849814D01*
X152628600Y-102398185D01*
X152632164Y-102362000D01*
X152628600Y-102325814D01*
X152628600Y-100874186D01*
X152632164Y-100838000D01*
X152617942Y-100693601D01*
X152575822Y-100554751D01*
X152507424Y-100426787D01*
X152415375Y-100314625D01*
X152303213Y-100222576D01*
X152175249Y-100154178D01*
X152036399Y-100112058D01*
X151928186Y-100101400D01*
X151892000Y-100097836D01*
X151855814Y-100101400D01*
X148553814Y-100101400D01*
X148445601Y-100112058D01*
X148306751Y-100154178D01*
X148178787Y-100222576D01*
X148082000Y-100302007D01*
X147985213Y-100222576D01*
X147857249Y-100154178D01*
X147718399Y-100112058D01*
X147610186Y-100101400D01*
X145480084Y-100101400D01*
X148003738Y-97577747D01*
X156252491Y-97577747D01*
X156203692Y-97823079D01*
X156203692Y-98176921D01*
X156272723Y-98523964D01*
X156408132Y-98850871D01*
X156604716Y-99145080D01*
X156854920Y-99395284D01*
X157149129Y-99591868D01*
X157476036Y-99727277D01*
X157823079Y-99796308D01*
X158176921Y-99796308D01*
X158523964Y-99727277D01*
X158850871Y-99591868D01*
X159145080Y-99395284D01*
X159395284Y-99145080D01*
X159591868Y-98850871D01*
X159727277Y-98523964D01*
X159796308Y-98176921D01*
X159796308Y-97823079D01*
X159727277Y-97476036D01*
X159591868Y-97149129D01*
X159395284Y-96854920D01*
X159145080Y-96604716D01*
X158850871Y-96408132D01*
X158665785Y-96331467D01*
X160402252Y-94595001D01*
X164699677Y-94595001D01*
X164736999Y-94598677D01*
X164774321Y-94595001D01*
X164774332Y-94595001D01*
X164885985Y-94584004D01*
X165029246Y-94540547D01*
X165161275Y-94469975D01*
X165277000Y-94375002D01*
X165300803Y-94345998D01*
X166587762Y-93059039D01*
X167010096Y-93059039D01*
X167050754Y-93193087D01*
X167170963Y-93447420D01*
X167338481Y-93673414D01*
X167546869Y-93862385D01*
X167788119Y-94007070D01*
X168052960Y-94101909D01*
X168275000Y-93980624D01*
X168275000Y-92837000D01*
X168529000Y-92837000D01*
X168529000Y-93980624D01*
X168751040Y-94101909D01*
X169015881Y-94007070D01*
X169257131Y-93862385D01*
X169465519Y-93673414D01*
X169633037Y-93447420D01*
X169753246Y-93193087D01*
X169793904Y-93059039D01*
X169671915Y-92837000D01*
X168529000Y-92837000D01*
X168275000Y-92837000D01*
X167132085Y-92837000D01*
X167010096Y-93059039D01*
X166587762Y-93059039D01*
X167107872Y-92538929D01*
X167132085Y-92583000D01*
X168275000Y-92583000D01*
X168275000Y-92563000D01*
X168529000Y-92563000D01*
X168529000Y-92583000D01*
X169671915Y-92583000D01*
X169793904Y-92360961D01*
X169753246Y-92226913D01*
X169633037Y-91972580D01*
X169465519Y-91746586D01*
X169257131Y-91557615D01*
X169071135Y-91446067D01*
X169081727Y-91441680D01*
X169316759Y-91284637D01*
X169516637Y-91084759D01*
X169673680Y-90849727D01*
X169781853Y-90588574D01*
X169837000Y-90311335D01*
X169837000Y-90139802D01*
X171294901Y-91597703D01*
X171097363Y-91795241D01*
X170940320Y-92030273D01*
X170832147Y-92291426D01*
X170777000Y-92568665D01*
X170777000Y-92851335D01*
X170832147Y-93128574D01*
X170940320Y-93389727D01*
X171097363Y-93624759D01*
X171297241Y-93824637D01*
X171532273Y-93981680D01*
X171793426Y-94089853D01*
X172070665Y-94145000D01*
X172353335Y-94145000D01*
X172630574Y-94089853D01*
X172891727Y-93981680D01*
X173126759Y-93824637D01*
X173326637Y-93624759D01*
X173483680Y-93389727D01*
X173591853Y-93128574D01*
X173647000Y-92851335D01*
X173647000Y-92568665D01*
X173591853Y-92291426D01*
X173483680Y-92030273D01*
X173326637Y-91795241D01*
X173126759Y-91595363D01*
X172972000Y-91491957D01*
X172972000Y-91477325D01*
X172975676Y-91440000D01*
X172972000Y-91402675D01*
X172972000Y-91402667D01*
X172961003Y-91291014D01*
X172917546Y-91147753D01*
X172846974Y-91015724D01*
X172752001Y-90899999D01*
X172723004Y-90876202D01*
X169800688Y-87953887D01*
X169837000Y-87771335D01*
X169837000Y-87488665D01*
X169792509Y-87264999D01*
X170804649Y-87264999D01*
X170777000Y-87403997D01*
X170777000Y-87686667D01*
X170832147Y-87963906D01*
X170940320Y-88225059D01*
X171097363Y-88460091D01*
X171297241Y-88659969D01*
X171532273Y-88817012D01*
X171793426Y-88925185D01*
X172070665Y-88980332D01*
X172353335Y-88980332D01*
X172630574Y-88925185D01*
X172891727Y-88817012D01*
X173126759Y-88659969D01*
X173326637Y-88460091D01*
X173483680Y-88225059D01*
X173591853Y-87963906D01*
X173647000Y-87686667D01*
X173647000Y-87403997D01*
X173591853Y-87126758D01*
X173483680Y-86865605D01*
X173326637Y-86630573D01*
X173126759Y-86430695D01*
X172891727Y-86273652D01*
X172630574Y-86165479D01*
X172353335Y-86110332D01*
X172070665Y-86110332D01*
X171888113Y-86146644D01*
X171735471Y-85994001D01*
X171711668Y-85964998D01*
X171595943Y-85870025D01*
X171463914Y-85799453D01*
X171320653Y-85755996D01*
X171209000Y-85744999D01*
X171208989Y-85744999D01*
X171171667Y-85741323D01*
X171134345Y-85744999D01*
X169683923Y-85744999D01*
X169781853Y-85508574D01*
X169837000Y-85231335D01*
X169837000Y-84948665D01*
X169781853Y-84671426D01*
X169673680Y-84410273D01*
X169516637Y-84175241D01*
X169316759Y-83975363D01*
X169081727Y-83818320D01*
X169071135Y-83813933D01*
X169257131Y-83702385D01*
X169465519Y-83513414D01*
X169633037Y-83287420D01*
X169753246Y-83033087D01*
X169793904Y-82899039D01*
X169671915Y-82677000D01*
X168529000Y-82677000D01*
X168529000Y-82697000D01*
X168275000Y-82697000D01*
X168275000Y-82677000D01*
X167132085Y-82677000D01*
X167010096Y-82899039D01*
X167050754Y-83033087D01*
X167170963Y-83287420D01*
X167338481Y-83513414D01*
X167546869Y-83702385D01*
X167732865Y-83813933D01*
X167722273Y-83818320D01*
X167487241Y-83975363D01*
X167287363Y-84175241D01*
X167130320Y-84410273D01*
X167022147Y-84671426D01*
X166967000Y-84948665D01*
X166967000Y-85231335D01*
X167003312Y-85413887D01*
X166962198Y-85455001D01*
X162172509Y-85455001D01*
X162217000Y-85231335D01*
X162217000Y-84948665D01*
X162161853Y-84671426D01*
X162053680Y-84410273D01*
X161896637Y-84175241D01*
X161696759Y-83975363D01*
X161464241Y-83820000D01*
X161696759Y-83664637D01*
X161896637Y-83464759D01*
X162053680Y-83229727D01*
X162161853Y-82968574D01*
X162217000Y-82691335D01*
X162217000Y-82408665D01*
X162161853Y-82131426D01*
X162053680Y-81870273D01*
X161896637Y-81635241D01*
X161696759Y-81435363D01*
X161464241Y-81280000D01*
X161696759Y-81124637D01*
X161896637Y-80924759D01*
X162053680Y-80689727D01*
X162161853Y-80428574D01*
X162217000Y-80151335D01*
X162217000Y-79868665D01*
X162161853Y-79591426D01*
X162053680Y-79330273D01*
X161896637Y-79095241D01*
X161696759Y-78895363D01*
X161464241Y-78740000D01*
X161696759Y-78584637D01*
X161896637Y-78384759D01*
X162053680Y-78149727D01*
X162161853Y-77888574D01*
X162217000Y-77611335D01*
X162217000Y-77328665D01*
X162180688Y-77146114D01*
X162656802Y-76670000D01*
X166963928Y-76670000D01*
X166963928Y-78270000D01*
X166976188Y-78394482D01*
X167012498Y-78514180D01*
X167071463Y-78624494D01*
X167150815Y-78721185D01*
X167247506Y-78800537D01*
X167357820Y-78859502D01*
X167477518Y-78895812D01*
X167485961Y-78896643D01*
X167287363Y-79095241D01*
X167130320Y-79330273D01*
X167022147Y-79591426D01*
X166967000Y-79868665D01*
X166967000Y-80151335D01*
X167022147Y-80428574D01*
X167130320Y-80689727D01*
X167287363Y-80924759D01*
X167487241Y-81124637D01*
X167722273Y-81281680D01*
X167732865Y-81286067D01*
X167546869Y-81397615D01*
X167338481Y-81586586D01*
X167170963Y-81812580D01*
X167050754Y-82066913D01*
X167010096Y-82200961D01*
X167132085Y-82423000D01*
X168275000Y-82423000D01*
X168275000Y-82403000D01*
X168529000Y-82403000D01*
X168529000Y-82423000D01*
X169671915Y-82423000D01*
X169772823Y-82239331D01*
X170777000Y-82239331D01*
X170777000Y-82522001D01*
X170832147Y-82799240D01*
X170940320Y-83060393D01*
X171097363Y-83295425D01*
X171297241Y-83495303D01*
X171532273Y-83652346D01*
X171793426Y-83760519D01*
X172070665Y-83815666D01*
X172353335Y-83815666D01*
X172630574Y-83760519D01*
X172891727Y-83652346D01*
X173126759Y-83495303D01*
X173326637Y-83295425D01*
X173483680Y-83060393D01*
X173591853Y-82799240D01*
X173647000Y-82522001D01*
X173647000Y-82239331D01*
X173591853Y-81962092D01*
X173483680Y-81700939D01*
X173326637Y-81465907D01*
X173126759Y-81266029D01*
X172891727Y-81108986D01*
X172630574Y-81000813D01*
X172353335Y-80945666D01*
X172070665Y-80945666D01*
X171793426Y-81000813D01*
X171532273Y-81108986D01*
X171297241Y-81266029D01*
X171097363Y-81465907D01*
X170940320Y-81700939D01*
X170832147Y-81962092D01*
X170777000Y-82239331D01*
X169772823Y-82239331D01*
X169793904Y-82200961D01*
X169753246Y-82066913D01*
X169633037Y-81812580D01*
X169465519Y-81586586D01*
X169257131Y-81397615D01*
X169071135Y-81286067D01*
X169081727Y-81281680D01*
X169316759Y-81124637D01*
X169516637Y-80924759D01*
X169673680Y-80689727D01*
X169781853Y-80428574D01*
X169837000Y-80151335D01*
X169837000Y-79868665D01*
X169781853Y-79591426D01*
X169673680Y-79330273D01*
X169516637Y-79095241D01*
X169318039Y-78896643D01*
X169326482Y-78895812D01*
X169446180Y-78859502D01*
X169556494Y-78800537D01*
X169653185Y-78721185D01*
X169732537Y-78624494D01*
X169791502Y-78514180D01*
X169827812Y-78394482D01*
X169840072Y-78270000D01*
X169840072Y-76670000D01*
X169827812Y-76545518D01*
X169791502Y-76425820D01*
X169732537Y-76315506D01*
X169653185Y-76218815D01*
X169556494Y-76139463D01*
X169446180Y-76080498D01*
X169326482Y-76044188D01*
X169202000Y-76031928D01*
X167602000Y-76031928D01*
X167477518Y-76044188D01*
X167357820Y-76080498D01*
X167247506Y-76139463D01*
X167150815Y-76218815D01*
X167071463Y-76315506D01*
X167012498Y-76425820D01*
X166976188Y-76545518D01*
X166963928Y-76670000D01*
X162656802Y-76670000D01*
X163382802Y-75944000D01*
X171533046Y-75944000D01*
X171532273Y-75944320D01*
X171297241Y-76101363D01*
X171097363Y-76301241D01*
X170940320Y-76536273D01*
X170832147Y-76797426D01*
X170777000Y-77074665D01*
X170777000Y-77357335D01*
X170832147Y-77634574D01*
X170940320Y-77895727D01*
X171097363Y-78130759D01*
X171297241Y-78330637D01*
X171532273Y-78487680D01*
X171793426Y-78595853D01*
X172070665Y-78651000D01*
X172353335Y-78651000D01*
X172630574Y-78595853D01*
X172891727Y-78487680D01*
X173126759Y-78330637D01*
X173326637Y-78130759D01*
X173483680Y-77895727D01*
X173591853Y-77634574D01*
X173647000Y-77357335D01*
X173647000Y-77074665D01*
X173591853Y-76797426D01*
X173483680Y-76536273D01*
X173326637Y-76301241D01*
X173126759Y-76101363D01*
X172891727Y-75944320D01*
X172890954Y-75944000D01*
X180025199Y-75944000D01*
X180973312Y-76892114D01*
X180937000Y-77074665D01*
X180937000Y-77357335D01*
X180992147Y-77634574D01*
X181100320Y-77895727D01*
X181257363Y-78130759D01*
X181457241Y-78330637D01*
X181612000Y-78434044D01*
X181612001Y-81162622D01*
X181457241Y-81266029D01*
X181257363Y-81465907D01*
X181100320Y-81700939D01*
X180992147Y-81962092D01*
X180937000Y-82239331D01*
X180937000Y-82522001D01*
X180992147Y-82799240D01*
X181100320Y-83060393D01*
X181257363Y-83295425D01*
X181457241Y-83495303D01*
X181692273Y-83652346D01*
X181953426Y-83760519D01*
X182230665Y-83815666D01*
X182513335Y-83815666D01*
X182790574Y-83760519D01*
X183051727Y-83652346D01*
X183286759Y-83495303D01*
X183486637Y-83295425D01*
X183643680Y-83060393D01*
X183751853Y-82799240D01*
X183807000Y-82522001D01*
X183807000Y-82239331D01*
X183751853Y-81962092D01*
X183643680Y-81700939D01*
X183486637Y-81465907D01*
X183286759Y-81266029D01*
X183132000Y-81162623D01*
X183132000Y-78434043D01*
X183286759Y-78330637D01*
X183486637Y-78130759D01*
X183643680Y-77895727D01*
X183751853Y-77634574D01*
X183807000Y-77357335D01*
X183807000Y-77074665D01*
X183751853Y-76797426D01*
X183643680Y-76536273D01*
X183486637Y-76301241D01*
X183286759Y-76101363D01*
X183051727Y-75944320D01*
X182790574Y-75836147D01*
X182700239Y-75818178D01*
X195153932Y-75818178D01*
X195153932Y-76181822D01*
X195224876Y-76538478D01*
X195364036Y-76874441D01*
X195566066Y-77176800D01*
X195823200Y-77433934D01*
X196125559Y-77635964D01*
X196461522Y-77775124D01*
X196818178Y-77846068D01*
X197181822Y-77846068D01*
X197538478Y-77775124D01*
X197874441Y-77635964D01*
X198176800Y-77433934D01*
X198433934Y-77176800D01*
X198635964Y-76874441D01*
X198775124Y-76538478D01*
X198846068Y-76181822D01*
X198846068Y-75818178D01*
X198775124Y-75461522D01*
X198635964Y-75125559D01*
X198433934Y-74823200D01*
X198176800Y-74566066D01*
X197874441Y-74364036D01*
X197538478Y-74224876D01*
X197181822Y-74153932D01*
X196818178Y-74153932D01*
X196461522Y-74224876D01*
X196125559Y-74364036D01*
X195823200Y-74566066D01*
X195566066Y-74823200D01*
X195364036Y-75125559D01*
X195224876Y-75461522D01*
X195153932Y-75818178D01*
X182700239Y-75818178D01*
X182513335Y-75781000D01*
X182230665Y-75781000D01*
X182048114Y-75817312D01*
X180903804Y-74673003D01*
X180880001Y-74643999D01*
X180764276Y-74549026D01*
X180632247Y-74478454D01*
X180488986Y-74434997D01*
X180377333Y-74424000D01*
X180377322Y-74424000D01*
X180340000Y-74420324D01*
X180302678Y-74424000D01*
X166754166Y-74424000D01*
X166791088Y-74302283D01*
X166804314Y-74168000D01*
X166801000Y-74134353D01*
X166801000Y-72821000D01*
X199228294Y-72821000D01*
X199492233Y-72952969D01*
%TA.AperFunction,Conductor*%
D19*
G36*
X199492233Y-72952969D02*
G01*
X200097030Y-73557766D01*
X200229000Y-73821705D01*
X200229001Y-112945673D01*
X200041470Y-113695794D01*
X199568855Y-114168409D01*
X198317310Y-114377000D01*
X166801000Y-114377000D01*
X166801000Y-113063646D01*
X166804314Y-113030000D01*
X166791088Y-112895717D01*
X166751919Y-112766594D01*
X166688312Y-112647593D01*
X166602711Y-112543289D01*
X166498407Y-112457688D01*
X166379406Y-112394081D01*
X166250283Y-112354912D01*
X166149647Y-112345000D01*
X166116000Y-112341686D01*
X166082353Y-112345000D01*
X162847647Y-112345000D01*
X162814000Y-112341686D01*
X162780353Y-112345000D01*
X162679717Y-112354912D01*
X162550594Y-112394081D01*
X162431593Y-112457688D01*
X162327289Y-112543289D01*
X162241688Y-112647593D01*
X162178081Y-112766594D01*
X162138912Y-112895717D01*
X162125686Y-113030000D01*
X162129001Y-113063657D01*
X162129000Y-114377000D01*
X126669000Y-114377000D01*
X126669000Y-113063646D01*
X126672314Y-113030000D01*
X126659088Y-112895717D01*
X126619919Y-112766594D01*
X126556312Y-112647593D01*
X126470711Y-112543289D01*
X126366407Y-112457688D01*
X126247406Y-112394081D01*
X126118283Y-112354912D01*
X126017647Y-112345000D01*
X125984000Y-112341686D01*
X125950353Y-112345000D01*
X122715647Y-112345000D01*
X122682000Y-112341686D01*
X122648353Y-112345000D01*
X122547717Y-112354912D01*
X122418594Y-112394081D01*
X122299593Y-112457688D01*
X122195289Y-112543289D01*
X122109688Y-112647593D01*
X122046081Y-112766594D01*
X122006912Y-112895717D01*
X121993686Y-113030000D01*
X121997001Y-113063657D01*
X121997000Y-114377000D01*
X89823706Y-114377000D01*
X89115048Y-114022671D01*
X88758840Y-113488359D01*
X88569000Y-112918843D01*
X88569000Y-110768178D01*
X90053932Y-110768178D01*
X90053932Y-111131822D01*
X90124876Y-111488478D01*
X90264036Y-111824441D01*
X90466066Y-112126800D01*
X90723200Y-112383934D01*
X91025559Y-112585964D01*
X91361522Y-112725124D01*
X91718178Y-112796068D01*
X92081822Y-112796068D01*
X92438478Y-112725124D01*
X92774441Y-112585964D01*
X93076800Y-112383934D01*
X93333934Y-112126800D01*
X93535964Y-111824441D01*
X93675124Y-111488478D01*
X93746068Y-111131822D01*
X93746068Y-110768178D01*
X93675124Y-110411522D01*
X93535964Y-110075559D01*
X93333934Y-109773200D01*
X93076800Y-109516066D01*
X92774441Y-109314036D01*
X92438478Y-109174876D01*
X92081822Y-109103932D01*
X91718178Y-109103932D01*
X91361522Y-109174876D01*
X91025559Y-109314036D01*
X90723200Y-109516066D01*
X90466066Y-109773200D01*
X90264036Y-110075559D01*
X90124876Y-110411522D01*
X90053932Y-110768178D01*
X88569000Y-110768178D01*
X88569000Y-98092674D01*
X88813424Y-96381705D01*
X89060499Y-95146331D01*
X89304170Y-94171647D01*
X89788454Y-92718799D01*
X90289732Y-91716243D01*
X90760117Y-90775474D01*
X92474781Y-88325955D01*
X93929542Y-86871194D01*
X95146710Y-85897460D01*
X96610488Y-84921609D01*
X99059465Y-83697121D01*
X100240339Y-83342859D01*
X90420998Y-93162201D01*
X90392000Y-93185999D01*
X90368202Y-93214997D01*
X90368201Y-93214998D01*
X90297026Y-93301724D01*
X90226454Y-93433754D01*
X90214344Y-93473677D01*
X90182998Y-93577014D01*
X90176673Y-93641230D01*
X90168324Y-93726000D01*
X90172001Y-93763332D01*
X90172000Y-97556120D01*
X90133006Y-97576963D01*
X90036315Y-97656315D01*
X89956963Y-97753006D01*
X89897998Y-97863320D01*
X89861688Y-97983018D01*
X89849428Y-98107500D01*
X89849428Y-98996500D01*
X89861688Y-99120982D01*
X89897998Y-99240680D01*
X89956963Y-99350994D01*
X90036315Y-99447685D01*
X90133006Y-99527037D01*
X90243320Y-99586002D01*
X90363018Y-99622312D01*
X90487500Y-99634572D01*
X90703400Y-99634572D01*
X90703400Y-100039811D01*
X90699836Y-100076000D01*
X90703400Y-100112189D01*
X90703400Y-101563813D01*
X90699836Y-101600000D01*
X90703400Y-101636187D01*
X90703400Y-102325814D01*
X90699836Y-102362000D01*
X90714058Y-102506399D01*
X90756178Y-102645249D01*
X90824576Y-102773213D01*
X90916625Y-102885375D01*
X91025850Y-102975014D01*
X91028787Y-102977424D01*
X91156751Y-103045822D01*
X91295601Y-103087942D01*
X91440000Y-103102164D01*
X91476186Y-103098600D01*
X94778186Y-103098600D01*
X94886399Y-103087942D01*
X95025249Y-103045822D01*
X95153213Y-102977424D01*
X95250000Y-102897993D01*
X95346787Y-102977424D01*
X95474751Y-103045822D01*
X95613601Y-103087942D01*
X95721814Y-103098600D01*
X99023814Y-103098600D01*
X99060000Y-103102164D01*
X99096186Y-103098600D01*
X99204399Y-103087942D01*
X99316000Y-103054088D01*
X99316000Y-103161333D01*
X99316001Y-103161343D01*
X99316000Y-106700120D01*
X99277006Y-106720963D01*
X99180315Y-106800315D01*
X99100963Y-106897006D01*
X99041998Y-107007320D01*
X99005688Y-107127018D01*
X98993428Y-107251500D01*
X98993428Y-108140500D01*
X99005688Y-108264982D01*
X99041998Y-108384680D01*
X99100963Y-108494994D01*
X99180315Y-108591685D01*
X99277006Y-108671037D01*
X99387320Y-108730002D01*
X99507018Y-108766312D01*
X99631500Y-108778572D01*
X99847400Y-108778572D01*
X99847400Y-109183811D01*
X99843836Y-109220000D01*
X99847400Y-109256189D01*
X99847400Y-110707813D01*
X99843836Y-110744000D01*
X99847400Y-110780187D01*
X99847400Y-111469814D01*
X99843836Y-111506000D01*
X99858058Y-111650399D01*
X99900178Y-111789249D01*
X99968576Y-111917213D01*
X100060625Y-112029375D01*
X100172787Y-112121424D01*
X100300751Y-112189822D01*
X100439601Y-112231942D01*
X100584000Y-112246164D01*
X100620186Y-112242600D01*
X103922186Y-112242600D01*
X104030399Y-112231942D01*
X104169249Y-112189822D01*
X104297213Y-112121424D01*
X104394000Y-112041993D01*
X104490787Y-112121424D01*
X104618751Y-112189822D01*
X104757601Y-112231942D01*
X104865814Y-112242600D01*
X108167814Y-112242600D01*
X108204000Y-112246164D01*
X108240186Y-112242600D01*
X108348399Y-112231942D01*
X108487249Y-112189822D01*
X108615213Y-112121424D01*
X108727375Y-112029375D01*
X108819424Y-111917213D01*
X108887822Y-111789249D01*
X108929942Y-111650399D01*
X108944164Y-111506000D01*
X108940600Y-111469814D01*
X108940600Y-110818178D01*
X138103932Y-110818178D01*
X138103932Y-111181822D01*
X138174876Y-111538478D01*
X138314036Y-111874441D01*
X138516066Y-112176800D01*
X138773200Y-112433934D01*
X139075559Y-112635964D01*
X139411522Y-112775124D01*
X139768178Y-112846068D01*
X140131822Y-112846068D01*
X140488478Y-112775124D01*
X140824441Y-112635964D01*
X141126800Y-112433934D01*
X141383934Y-112176800D01*
X141585964Y-111874441D01*
X141725124Y-111538478D01*
X141796068Y-111181822D01*
X141796068Y-110818178D01*
X141795671Y-110816178D01*
X195123932Y-110816178D01*
X195123932Y-111179822D01*
X195194876Y-111536478D01*
X195334036Y-111872441D01*
X195536066Y-112174800D01*
X195793200Y-112431934D01*
X196095559Y-112633964D01*
X196431522Y-112773124D01*
X196788178Y-112844068D01*
X197151822Y-112844068D01*
X197508478Y-112773124D01*
X197844441Y-112633964D01*
X198146800Y-112431934D01*
X198403934Y-112174800D01*
X198605964Y-111872441D01*
X198745124Y-111536478D01*
X198816068Y-111179822D01*
X198816068Y-110816178D01*
X198745124Y-110459522D01*
X198605964Y-110123559D01*
X198403934Y-109821200D01*
X198146800Y-109564066D01*
X197844441Y-109362036D01*
X197508478Y-109222876D01*
X197151822Y-109151932D01*
X196788178Y-109151932D01*
X196431522Y-109222876D01*
X196095559Y-109362036D01*
X195793200Y-109564066D01*
X195536066Y-109821200D01*
X195334036Y-110123559D01*
X195194876Y-110459522D01*
X195123932Y-110816178D01*
X141795671Y-110816178D01*
X141725124Y-110461522D01*
X141585964Y-110125559D01*
X141383934Y-109823200D01*
X141126800Y-109566066D01*
X140824441Y-109364036D01*
X140488478Y-109224876D01*
X140131822Y-109153932D01*
X139768178Y-109153932D01*
X139411522Y-109224876D01*
X139075559Y-109364036D01*
X138773200Y-109566066D01*
X138516066Y-109823200D01*
X138314036Y-110125559D01*
X138174876Y-110461522D01*
X138103932Y-110818178D01*
X108940600Y-110818178D01*
X108940600Y-110018186D01*
X108944164Y-109982000D01*
X108940600Y-109945814D01*
X108940600Y-108494185D01*
X108944164Y-108458000D01*
X108940600Y-108421814D01*
X108940600Y-106970186D01*
X108944164Y-106934000D01*
X108940600Y-106897814D01*
X108940600Y-105446186D01*
X108944164Y-105410000D01*
X108940600Y-105373814D01*
X108940600Y-103922186D01*
X108944164Y-103886000D01*
X108929942Y-103741601D01*
X108887822Y-103602751D01*
X108819424Y-103474787D01*
X108727375Y-103362625D01*
X108615213Y-103270576D01*
X108487249Y-103202178D01*
X108348399Y-103160058D01*
X108240186Y-103149400D01*
X108204000Y-103145836D01*
X108167814Y-103149400D01*
X104865814Y-103149400D01*
X104757601Y-103160058D01*
X104618751Y-103202178D01*
X104490787Y-103270576D01*
X104394000Y-103350007D01*
X104297213Y-103270576D01*
X104169249Y-103202178D01*
X104030399Y-103160058D01*
X103922186Y-103149400D01*
X100901674Y-103149400D01*
X108206000Y-95845075D01*
X108206001Y-97556120D01*
X108167006Y-97576963D01*
X108070315Y-97656315D01*
X107990963Y-97753006D01*
X107931998Y-97863320D01*
X107895688Y-97983018D01*
X107883428Y-98107500D01*
X107883428Y-98996500D01*
X107895688Y-99120982D01*
X107931998Y-99240680D01*
X107990963Y-99350994D01*
X108070315Y-99447685D01*
X108167006Y-99527037D01*
X108277320Y-99586002D01*
X108397018Y-99622312D01*
X108521500Y-99634572D01*
X108737400Y-99634572D01*
X108737400Y-100039811D01*
X108733836Y-100076000D01*
X108737400Y-100112189D01*
X108737400Y-101563813D01*
X108733836Y-101600000D01*
X108737400Y-101636187D01*
X108737400Y-102325814D01*
X108733836Y-102362000D01*
X108748058Y-102506399D01*
X108790178Y-102645249D01*
X108858576Y-102773213D01*
X108950625Y-102885375D01*
X109059850Y-102975014D01*
X109062787Y-102977424D01*
X109190751Y-103045822D01*
X109329601Y-103087942D01*
X109474000Y-103102164D01*
X109510186Y-103098600D01*
X112812186Y-103098600D01*
X112920399Y-103087942D01*
X113059249Y-103045822D01*
X113187213Y-102977424D01*
X113284000Y-102897993D01*
X113380787Y-102977424D01*
X113508751Y-103045822D01*
X113647601Y-103087942D01*
X113755814Y-103098600D01*
X117057814Y-103098600D01*
X117094000Y-103102164D01*
X117130186Y-103098600D01*
X117238399Y-103087942D01*
X117377249Y-103045822D01*
X117505213Y-102977424D01*
X117617375Y-102885375D01*
X117709424Y-102773213D01*
X117777822Y-102645249D01*
X117819942Y-102506399D01*
X117834164Y-102362000D01*
X117830600Y-102325814D01*
X117830600Y-100874186D01*
X117834164Y-100838000D01*
X117830600Y-100801814D01*
X117830600Y-99350186D01*
X117834164Y-99314000D01*
X117830600Y-99277814D01*
X117830600Y-97826186D01*
X117834164Y-97790000D01*
X117830600Y-97753814D01*
X117830600Y-96302186D01*
X117834164Y-96266000D01*
X117830600Y-96229814D01*
X117830600Y-95075390D01*
X121547288Y-95075390D01*
X121584610Y-95079066D01*
X121621932Y-95075390D01*
X121621943Y-95075390D01*
X121733596Y-95064393D01*
X121876857Y-95020936D01*
X122008886Y-94950364D01*
X122124611Y-94855391D01*
X122148414Y-94826387D01*
X135526730Y-81448072D01*
X136440000Y-81448072D01*
X136613254Y-81431008D01*
X136779850Y-81380472D01*
X136933386Y-81298405D01*
X137067962Y-81187962D01*
X137178405Y-81053386D01*
X137260472Y-80899850D01*
X137287000Y-80812398D01*
X137313528Y-80899850D01*
X137395595Y-81053386D01*
X137506038Y-81187962D01*
X137640614Y-81298405D01*
X137794150Y-81380472D01*
X137960746Y-81431008D01*
X138134000Y-81448072D01*
X139234000Y-81448072D01*
X139407254Y-81431008D01*
X139573850Y-81380472D01*
X139727386Y-81298405D01*
X139861962Y-81187962D01*
X139972405Y-81053386D01*
X140054472Y-80899850D01*
X140081000Y-80812398D01*
X140107528Y-80899850D01*
X140189595Y-81053386D01*
X140300038Y-81187962D01*
X140434614Y-81298405D01*
X140588150Y-81380472D01*
X140754746Y-81431008D01*
X140928000Y-81448072D01*
X142028000Y-81448072D01*
X142201254Y-81431008D01*
X142367850Y-81380472D01*
X142521386Y-81298405D01*
X142655962Y-81187962D01*
X142766405Y-81053386D01*
X142848472Y-80899850D01*
X142887861Y-80770000D01*
X157538289Y-80770000D01*
X157582226Y-80813937D01*
X157751744Y-80927205D01*
X157940102Y-81005226D01*
X158140061Y-81045000D01*
X158343939Y-81045000D01*
X158543898Y-81005226D01*
X158732256Y-80927205D01*
X158901774Y-80813937D01*
X159045937Y-80669774D01*
X159159205Y-80500256D01*
X159237226Y-80311898D01*
X159277000Y-80111939D01*
X159277000Y-80049801D01*
X159347000Y-79979801D01*
X159347000Y-80151335D01*
X159402147Y-80428574D01*
X159510320Y-80689727D01*
X159667363Y-80924759D01*
X159867241Y-81124637D01*
X160099759Y-81280000D01*
X159867241Y-81435363D01*
X159667363Y-81635241D01*
X159510320Y-81870273D01*
X159402147Y-82131426D01*
X159347000Y-82408665D01*
X159347000Y-82691335D01*
X159402147Y-82968574D01*
X159510320Y-83229727D01*
X159667363Y-83464759D01*
X159867241Y-83664637D01*
X160099759Y-83820000D01*
X159867241Y-83975363D01*
X159667363Y-84175241D01*
X159510320Y-84410273D01*
X159402147Y-84671426D01*
X159347000Y-84948665D01*
X159347000Y-85231335D01*
X159391491Y-85455001D01*
X142073005Y-85455001D01*
X142035682Y-85451325D01*
X141998359Y-85455001D01*
X141998349Y-85455001D01*
X141886696Y-85465998D01*
X141746339Y-85508574D01*
X141743435Y-85509455D01*
X141611405Y-85580027D01*
X141527765Y-85648669D01*
X141495681Y-85675000D01*
X141471883Y-85703998D01*
X126996998Y-100178884D01*
X126968000Y-100202682D01*
X126944202Y-100231680D01*
X126944201Y-100231681D01*
X126873026Y-100318407D01*
X126802454Y-100450437D01*
X126758998Y-100593698D01*
X126744324Y-100742683D01*
X126748001Y-100780015D01*
X126748000Y-103652120D01*
X126709006Y-103672963D01*
X126612315Y-103752315D01*
X126532963Y-103849006D01*
X126473998Y-103959320D01*
X126437688Y-104079018D01*
X126425428Y-104203500D01*
X126425428Y-105092500D01*
X126437688Y-105216982D01*
X126473998Y-105336680D01*
X126532963Y-105446994D01*
X126612315Y-105543685D01*
X126709006Y-105623037D01*
X126819320Y-105682002D01*
X126939018Y-105718312D01*
X127063500Y-105730572D01*
X127279400Y-105730572D01*
X127279400Y-106135811D01*
X127275836Y-106172000D01*
X127279400Y-106208189D01*
X127279400Y-107659813D01*
X127275836Y-107696000D01*
X127279400Y-107732187D01*
X127279400Y-108421814D01*
X127275836Y-108458000D01*
X127290058Y-108602399D01*
X127332178Y-108741249D01*
X127400576Y-108869213D01*
X127492625Y-108981375D01*
X127604787Y-109073424D01*
X127732751Y-109141822D01*
X127871601Y-109183942D01*
X128016000Y-109198164D01*
X128052186Y-109194600D01*
X131354186Y-109194600D01*
X131462399Y-109183942D01*
X131601249Y-109141822D01*
X131729213Y-109073424D01*
X131826000Y-108993993D01*
X131922787Y-109073424D01*
X132050751Y-109141822D01*
X132189601Y-109183942D01*
X132297814Y-109194600D01*
X135599814Y-109194600D01*
X135636000Y-109198164D01*
X135672186Y-109194600D01*
X135780399Y-109183942D01*
X135919249Y-109141822D01*
X136047213Y-109073424D01*
X136159375Y-108981375D01*
X136251424Y-108869213D01*
X136319822Y-108741249D01*
X136361942Y-108602399D01*
X136376164Y-108458000D01*
X136372600Y-108421814D01*
X136372600Y-106970186D01*
X136376164Y-106934000D01*
X136372600Y-106897814D01*
X136372600Y-105446186D01*
X136376164Y-105410000D01*
X136372600Y-105373814D01*
X136372600Y-103922186D01*
X136376164Y-103886000D01*
X136372600Y-103849814D01*
X136372600Y-102398185D01*
X136376164Y-102362000D01*
X136372600Y-102325814D01*
X136372600Y-100874186D01*
X136376164Y-100838000D01*
X136361942Y-100693601D01*
X136319822Y-100554751D01*
X136251424Y-100426787D01*
X136159375Y-100314625D01*
X136047213Y-100222576D01*
X135919249Y-100154178D01*
X135780399Y-100112058D01*
X135672186Y-100101400D01*
X135636000Y-100097836D01*
X135599814Y-100101400D01*
X132297814Y-100101400D01*
X132189601Y-100112058D01*
X132050751Y-100154178D01*
X131922787Y-100222576D01*
X131826000Y-100302007D01*
X131729213Y-100222576D01*
X131601249Y-100154178D01*
X131462399Y-100112058D01*
X131354186Y-100101400D01*
X129224084Y-100101400D01*
X142350484Y-86975001D01*
X159500077Y-86975001D01*
X159402147Y-87211426D01*
X159347000Y-87488665D01*
X159347000Y-87771335D01*
X159402147Y-88048574D01*
X159510320Y-88309727D01*
X159667363Y-88544759D01*
X159867241Y-88744637D01*
X160099759Y-88900000D01*
X159867241Y-89055363D01*
X159667363Y-89255241D01*
X159510320Y-89490273D01*
X159402147Y-89751426D01*
X159347000Y-90028665D01*
X159347000Y-90311335D01*
X159402147Y-90588574D01*
X159510320Y-90849727D01*
X159667363Y-91084759D01*
X159867241Y-91284637D01*
X160099759Y-91440000D01*
X159867241Y-91595363D01*
X159667363Y-91795241D01*
X159510320Y-92030273D01*
X159402147Y-92291426D01*
X159347000Y-92568665D01*
X159347000Y-92851335D01*
X159402147Y-93128574D01*
X159494973Y-93352676D01*
X156789903Y-96057747D01*
X153856802Y-96057747D01*
X153888935Y-96009657D01*
X154049614Y-95621744D01*
X154131527Y-95209937D01*
X154131527Y-94790063D01*
X154049614Y-94378256D01*
X153888935Y-93990343D01*
X153655665Y-93641230D01*
X153358770Y-93344335D01*
X153009657Y-93111065D01*
X152621744Y-92950386D01*
X152209937Y-92868473D01*
X151790063Y-92868473D01*
X151378256Y-92950386D01*
X150990343Y-93111065D01*
X150641230Y-93344335D01*
X150344335Y-93641230D01*
X150111065Y-93990343D01*
X149950386Y-94378256D01*
X149868473Y-94790063D01*
X149868473Y-95209937D01*
X149950386Y-95621744D01*
X150111065Y-96009657D01*
X150143198Y-96057747D01*
X147726261Y-96057747D01*
X147688936Y-96054071D01*
X147651611Y-96057747D01*
X147651603Y-96057747D01*
X147539950Y-96068744D01*
X147396689Y-96112201D01*
X147264660Y-96182773D01*
X147148935Y-96277746D01*
X147125137Y-96306744D01*
X143252998Y-100178884D01*
X143224000Y-100202682D01*
X143200202Y-100231680D01*
X143200201Y-100231681D01*
X143129026Y-100318407D01*
X143058454Y-100450437D01*
X143014998Y-100593698D01*
X143000324Y-100742683D01*
X143004001Y-100780015D01*
X143004000Y-103652120D01*
X142965006Y-103672963D01*
X142868315Y-103752315D01*
X142788963Y-103849006D01*
X142729998Y-103959320D01*
X142693688Y-104079018D01*
X142681428Y-104203500D01*
X142681428Y-105092500D01*
X142693688Y-105216982D01*
X142729998Y-105336680D01*
X142788963Y-105446994D01*
X142868315Y-105543685D01*
X142965006Y-105623037D01*
X143075320Y-105682002D01*
X143195018Y-105718312D01*
X143319500Y-105730572D01*
X143535400Y-105730572D01*
X143535400Y-106135811D01*
X143531836Y-106172000D01*
X143535400Y-106208189D01*
X143535400Y-107659813D01*
X143531836Y-107696000D01*
X143535400Y-107732187D01*
X143535400Y-108421814D01*
X143531836Y-108458000D01*
X143546058Y-108602399D01*
X143588178Y-108741249D01*
X143656576Y-108869213D01*
X143748625Y-108981375D01*
X143860787Y-109073424D01*
X143988751Y-109141822D01*
X144127601Y-109183942D01*
X144272000Y-109198164D01*
X144308186Y-109194600D01*
X147610186Y-109194600D01*
X147718399Y-109183942D01*
X147857249Y-109141822D01*
X147985213Y-109073424D01*
X148082000Y-108993993D01*
X148178787Y-109073424D01*
X148306751Y-109141822D01*
X148445601Y-109183942D01*
X148553814Y-109194600D01*
X151855814Y-109194600D01*
X151892000Y-109198164D01*
X151928186Y-109194600D01*
X152036399Y-109183942D01*
X152175249Y-109141822D01*
X152303213Y-109073424D01*
X152415375Y-108981375D01*
X152507424Y-108869213D01*
X152575822Y-108741249D01*
X152617942Y-108602399D01*
X152632164Y-108458000D01*
X152628600Y-108421814D01*
X152628600Y-106970186D01*
X152632164Y-106934000D01*
X152628600Y-106897814D01*
X152628600Y-105446186D01*
X152632164Y-105410000D01*
X152628600Y-105373814D01*
X152628600Y-104203500D01*
X164271428Y-104203500D01*
X164271428Y-105092500D01*
X164283688Y-105216982D01*
X164319998Y-105336680D01*
X164378963Y-105446994D01*
X164458315Y-105543685D01*
X164555006Y-105623037D01*
X164665320Y-105682002D01*
X164785018Y-105718312D01*
X164909500Y-105730572D01*
X165125400Y-105730572D01*
X165125400Y-106135811D01*
X165121836Y-106172000D01*
X165125400Y-106208189D01*
X165125400Y-107659813D01*
X165121836Y-107696000D01*
X165125400Y-107732187D01*
X165125400Y-108421814D01*
X165121836Y-108458000D01*
X165136058Y-108602399D01*
X165178178Y-108741249D01*
X165246576Y-108869213D01*
X165338625Y-108981375D01*
X165450787Y-109073424D01*
X165578751Y-109141822D01*
X165717601Y-109183942D01*
X165862000Y-109198164D01*
X165898186Y-109194600D01*
X169200186Y-109194600D01*
X169308399Y-109183942D01*
X169447249Y-109141822D01*
X169575213Y-109073424D01*
X169672000Y-108993993D01*
X169768787Y-109073424D01*
X169896751Y-109141822D01*
X170035601Y-109183942D01*
X170143814Y-109194600D01*
X173445814Y-109194600D01*
X173482000Y-109198164D01*
X173518186Y-109194600D01*
X173626399Y-109183942D01*
X173765249Y-109141822D01*
X173893213Y-109073424D01*
X174005375Y-108981375D01*
X174097424Y-108869213D01*
X174165822Y-108741249D01*
X174207942Y-108602399D01*
X174222164Y-108458000D01*
X174218600Y-108421814D01*
X174218600Y-106970186D01*
X174222164Y-106934000D01*
X174218600Y-106897814D01*
X174218600Y-105446186D01*
X174222164Y-105410000D01*
X174218600Y-105373814D01*
X174218600Y-104203500D01*
X180019428Y-104203500D01*
X180019428Y-105092500D01*
X180031688Y-105216982D01*
X180067998Y-105336680D01*
X180126963Y-105446994D01*
X180206315Y-105543685D01*
X180303006Y-105623037D01*
X180413320Y-105682002D01*
X180533018Y-105718312D01*
X180657500Y-105730572D01*
X180873400Y-105730572D01*
X180873400Y-106135811D01*
X180869836Y-106172000D01*
X180873400Y-106208189D01*
X180873400Y-107659813D01*
X180869836Y-107696000D01*
X180873400Y-107732187D01*
X180873400Y-108421814D01*
X180869836Y-108458000D01*
X180884058Y-108602399D01*
X180926178Y-108741249D01*
X180994576Y-108869213D01*
X181086625Y-108981375D01*
X181198787Y-109073424D01*
X181326751Y-109141822D01*
X181465601Y-109183942D01*
X181610000Y-109198164D01*
X181646186Y-109194600D01*
X184948186Y-109194600D01*
X185056399Y-109183942D01*
X185195249Y-109141822D01*
X185323213Y-109073424D01*
X185420000Y-108993993D01*
X185516787Y-109073424D01*
X185644751Y-109141822D01*
X185783601Y-109183942D01*
X185891814Y-109194600D01*
X189193814Y-109194600D01*
X189230000Y-109198164D01*
X189266186Y-109194600D01*
X189374399Y-109183942D01*
X189513249Y-109141822D01*
X189641213Y-109073424D01*
X189753375Y-108981375D01*
X189845424Y-108869213D01*
X189913822Y-108741249D01*
X189955942Y-108602399D01*
X189970164Y-108458000D01*
X189966600Y-108421814D01*
X189966600Y-106970186D01*
X189970164Y-106934000D01*
X189966600Y-106897814D01*
X189966600Y-105446186D01*
X189970164Y-105410000D01*
X189966600Y-105373814D01*
X189966600Y-103922186D01*
X189970164Y-103886000D01*
X189966600Y-103849814D01*
X189966600Y-102398185D01*
X189970164Y-102362000D01*
X189966600Y-102325814D01*
X189966600Y-100874186D01*
X189970164Y-100838000D01*
X189955942Y-100693601D01*
X189913822Y-100554751D01*
X189845424Y-100426787D01*
X189753375Y-100314625D01*
X189641213Y-100222576D01*
X189513249Y-100154178D01*
X189374399Y-100112058D01*
X189266186Y-100101400D01*
X189230000Y-100097836D01*
X189193814Y-100101400D01*
X185891814Y-100101400D01*
X185783601Y-100112058D01*
X185644751Y-100154178D01*
X185516787Y-100222576D01*
X185420000Y-100302007D01*
X185323213Y-100222576D01*
X185195249Y-100154178D01*
X185056399Y-100112058D01*
X184948186Y-100101400D01*
X183929401Y-100101400D01*
X189741003Y-94289799D01*
X189770001Y-94266001D01*
X189805778Y-94222407D01*
X189864974Y-94150277D01*
X189935546Y-94018247D01*
X189946638Y-93981680D01*
X189979003Y-93874986D01*
X189990000Y-93763333D01*
X189990000Y-93763324D01*
X189993676Y-93726001D01*
X189990000Y-93688678D01*
X189990000Y-92182099D01*
X190012276Y-92170192D01*
X190150639Y-92056639D01*
X190264192Y-91918276D01*
X190348569Y-91760418D01*
X190400528Y-91589132D01*
X190418072Y-91411000D01*
X190418072Y-90161000D01*
X190400528Y-89982868D01*
X190348569Y-89811582D01*
X190264192Y-89653724D01*
X190150639Y-89515361D01*
X190012276Y-89401808D01*
X189990000Y-89389901D01*
X189990000Y-84054099D01*
X190012276Y-84042192D01*
X190150639Y-83928639D01*
X190264192Y-83790276D01*
X190348569Y-83632418D01*
X190400528Y-83461132D01*
X190418072Y-83283000D01*
X190418072Y-82033000D01*
X190400528Y-81854868D01*
X190348569Y-81683582D01*
X190264192Y-81525724D01*
X190150639Y-81387361D01*
X190012276Y-81273808D01*
X189854418Y-81189431D01*
X189683132Y-81137472D01*
X189505000Y-81119928D01*
X188955000Y-81119928D01*
X188776868Y-81137472D01*
X188605582Y-81189431D01*
X188447724Y-81273808D01*
X188309361Y-81387361D01*
X188195808Y-81525724D01*
X188111431Y-81683582D01*
X188059472Y-81854868D01*
X188041928Y-82033000D01*
X188041928Y-83189928D01*
X187878072Y-83189928D01*
X187878072Y-81758000D01*
X187865812Y-81633518D01*
X187829502Y-81513820D01*
X187770537Y-81403506D01*
X187691185Y-81306815D01*
X187594494Y-81227463D01*
X187484180Y-81168498D01*
X187364482Y-81132188D01*
X187240000Y-81119928D01*
X186140000Y-81119928D01*
X186015518Y-81132188D01*
X185895820Y-81168498D01*
X185785506Y-81227463D01*
X185688815Y-81306815D01*
X185609463Y-81403506D01*
X185550498Y-81513820D01*
X185514188Y-81633518D01*
X185501928Y-81758000D01*
X185501928Y-83558000D01*
X185514188Y-83682482D01*
X185550498Y-83802180D01*
X185609463Y-83912494D01*
X185688815Y-84009185D01*
X185785506Y-84088537D01*
X185895820Y-84147502D01*
X186015518Y-84183812D01*
X186140000Y-84196072D01*
X186771928Y-84196072D01*
X186771928Y-84441270D01*
X184427867Y-86785332D01*
X183590043Y-86785332D01*
X183486637Y-86630573D01*
X183286759Y-86430695D01*
X183051727Y-86273652D01*
X182790574Y-86165479D01*
X182513335Y-86110332D01*
X182230665Y-86110332D01*
X181953426Y-86165479D01*
X181692273Y-86273652D01*
X181457241Y-86430695D01*
X181257363Y-86630573D01*
X181100320Y-86865605D01*
X180992147Y-87126758D01*
X180937000Y-87403997D01*
X180937000Y-87686667D01*
X180992147Y-87963906D01*
X181100320Y-88225059D01*
X181257363Y-88460091D01*
X181457241Y-88659969D01*
X181692273Y-88817012D01*
X181953426Y-88925185D01*
X182230665Y-88980332D01*
X182513335Y-88980332D01*
X182790574Y-88925185D01*
X183051727Y-88817012D01*
X183286759Y-88659969D01*
X183486637Y-88460091D01*
X183590043Y-88305332D01*
X184705346Y-88305332D01*
X184742668Y-88309008D01*
X184779990Y-88305332D01*
X184780001Y-88305332D01*
X184891654Y-88294335D01*
X185034915Y-88250878D01*
X185166944Y-88180306D01*
X185282669Y-88085333D01*
X185306472Y-88056329D01*
X187225222Y-86137580D01*
X187335582Y-86196569D01*
X187506868Y-86248528D01*
X187685000Y-86266072D01*
X188235000Y-86266072D01*
X188413132Y-86248528D01*
X188470000Y-86231277D01*
X188470001Y-89389901D01*
X188447724Y-89401808D01*
X188309361Y-89515361D01*
X188195808Y-89653724D01*
X188111431Y-89811582D01*
X188059472Y-89982868D01*
X188041928Y-90161000D01*
X188041928Y-91317928D01*
X187878072Y-91317928D01*
X187878072Y-89886000D01*
X187865812Y-89761518D01*
X187829502Y-89641820D01*
X187770537Y-89531506D01*
X187691185Y-89434815D01*
X187594494Y-89355463D01*
X187484180Y-89296498D01*
X187364482Y-89260188D01*
X187240000Y-89247928D01*
X186140000Y-89247928D01*
X186015518Y-89260188D01*
X185895820Y-89296498D01*
X185785506Y-89355463D01*
X185688815Y-89434815D01*
X185609463Y-89531506D01*
X185550498Y-89641820D01*
X185514188Y-89761518D01*
X185501928Y-89886000D01*
X185501928Y-91686000D01*
X185514188Y-91810482D01*
X185550498Y-91930180D01*
X185561092Y-91950000D01*
X183590043Y-91950000D01*
X183486637Y-91795241D01*
X183286759Y-91595363D01*
X183051727Y-91438320D01*
X182790574Y-91330147D01*
X182513335Y-91275000D01*
X182230665Y-91275000D01*
X181953426Y-91330147D01*
X181692273Y-91438320D01*
X181457241Y-91595363D01*
X181257363Y-91795241D01*
X181100320Y-92030273D01*
X180992147Y-92291426D01*
X180937000Y-92568665D01*
X180937000Y-92851335D01*
X180992147Y-93128574D01*
X181100320Y-93389727D01*
X181257363Y-93624759D01*
X181457241Y-93824637D01*
X181692273Y-93981680D01*
X181953426Y-94089853D01*
X182230665Y-94145000D01*
X182513335Y-94145000D01*
X182790574Y-94089853D01*
X183051727Y-93981680D01*
X183286759Y-93824637D01*
X183486637Y-93624759D01*
X183590043Y-93470000D01*
X186771928Y-93470000D01*
X186771928Y-93481000D01*
X186789472Y-93659132D01*
X186841431Y-93830418D01*
X186925808Y-93988276D01*
X187039361Y-94126639D01*
X187177724Y-94240192D01*
X187335582Y-94324569D01*
X187505182Y-94376016D01*
X182565199Y-99316000D01*
X181806005Y-99316000D01*
X181768682Y-99312324D01*
X181731359Y-99316000D01*
X181731350Y-99316000D01*
X181619697Y-99326997D01*
X181476436Y-99370454D01*
X181344406Y-99441026D01*
X181320585Y-99460576D01*
X181228682Y-99535999D01*
X181204883Y-99564998D01*
X180591002Y-100178880D01*
X180561999Y-100202682D01*
X180506871Y-100269857D01*
X180467026Y-100318407D01*
X180440386Y-100368247D01*
X180396454Y-100450437D01*
X180352997Y-100593698D01*
X180342000Y-100705351D01*
X180342000Y-100705361D01*
X180338324Y-100742683D01*
X180342000Y-100780006D01*
X180342001Y-103652120D01*
X180303006Y-103672963D01*
X180206315Y-103752315D01*
X180126963Y-103849006D01*
X180067998Y-103959320D01*
X180031688Y-104079018D01*
X180019428Y-104203500D01*
X174218600Y-104203500D01*
X174218600Y-103922186D01*
X174222164Y-103886000D01*
X174218600Y-103849814D01*
X174218600Y-102398185D01*
X174222164Y-102362000D01*
X174218600Y-102325814D01*
X174218600Y-100874186D01*
X174222164Y-100838000D01*
X174207942Y-100693601D01*
X174165822Y-100554751D01*
X174097424Y-100426787D01*
X174005375Y-100314625D01*
X173893213Y-100222576D01*
X173765249Y-100154178D01*
X173626399Y-100112058D01*
X173518186Y-100101400D01*
X173482000Y-100097836D01*
X173445814Y-100101400D01*
X170143814Y-100101400D01*
X170035601Y-100112058D01*
X169896751Y-100154178D01*
X169768787Y-100222576D01*
X169672000Y-100302007D01*
X169575213Y-100222576D01*
X169447249Y-100154178D01*
X169308399Y-100112058D01*
X169200186Y-100101400D01*
X166353701Y-100101400D01*
X166389000Y-99923939D01*
X166389000Y-99720061D01*
X166349226Y-99520102D01*
X166271205Y-99331744D01*
X166157937Y-99162226D01*
X166013774Y-99018063D01*
X165844256Y-98904795D01*
X165655898Y-98826774D01*
X165455939Y-98787000D01*
X165252061Y-98787000D01*
X165052102Y-98826774D01*
X164863744Y-98904795D01*
X164694226Y-99018063D01*
X164550063Y-99162226D01*
X164436795Y-99331744D01*
X164358774Y-99520102D01*
X164319000Y-99720061D01*
X164319000Y-99923939D01*
X164358774Y-100123898D01*
X164436795Y-100312256D01*
X164550063Y-100481774D01*
X164594001Y-100525712D01*
X164594000Y-103652120D01*
X164555006Y-103672963D01*
X164458315Y-103752315D01*
X164378963Y-103849006D01*
X164319998Y-103959320D01*
X164283688Y-104079018D01*
X164271428Y-104203500D01*
X152628600Y-104203500D01*
X152628600Y-103922186D01*
X152632164Y-103886000D01*
X152628600Y-103849814D01*
X152628600Y-102398185D01*
X152632164Y-102362000D01*
X152628600Y-102325814D01*
X152628600Y-100874186D01*
X152632164Y-100838000D01*
X152617942Y-100693601D01*
X152575822Y-100554751D01*
X152507424Y-100426787D01*
X152415375Y-100314625D01*
X152303213Y-100222576D01*
X152175249Y-100154178D01*
X152036399Y-100112058D01*
X151928186Y-100101400D01*
X151892000Y-100097836D01*
X151855814Y-100101400D01*
X148553814Y-100101400D01*
X148445601Y-100112058D01*
X148306751Y-100154178D01*
X148178787Y-100222576D01*
X148082000Y-100302007D01*
X147985213Y-100222576D01*
X147857249Y-100154178D01*
X147718399Y-100112058D01*
X147610186Y-100101400D01*
X145480084Y-100101400D01*
X148003738Y-97577747D01*
X156252491Y-97577747D01*
X156203692Y-97823079D01*
X156203692Y-98176921D01*
X156272723Y-98523964D01*
X156408132Y-98850871D01*
X156604716Y-99145080D01*
X156854920Y-99395284D01*
X157149129Y-99591868D01*
X157476036Y-99727277D01*
X157823079Y-99796308D01*
X158176921Y-99796308D01*
X158523964Y-99727277D01*
X158850871Y-99591868D01*
X159145080Y-99395284D01*
X159395284Y-99145080D01*
X159591868Y-98850871D01*
X159727277Y-98523964D01*
X159796308Y-98176921D01*
X159796308Y-97823079D01*
X159727277Y-97476036D01*
X159591868Y-97149129D01*
X159395284Y-96854920D01*
X159145080Y-96604716D01*
X158850871Y-96408132D01*
X158665785Y-96331467D01*
X160402252Y-94595001D01*
X164699677Y-94595001D01*
X164736999Y-94598677D01*
X164774321Y-94595001D01*
X164774332Y-94595001D01*
X164885985Y-94584004D01*
X165029246Y-94540547D01*
X165161275Y-94469975D01*
X165277000Y-94375002D01*
X165300803Y-94345998D01*
X166587762Y-93059039D01*
X167010096Y-93059039D01*
X167050754Y-93193087D01*
X167170963Y-93447420D01*
X167338481Y-93673414D01*
X167546869Y-93862385D01*
X167788119Y-94007070D01*
X168052960Y-94101909D01*
X168275000Y-93980624D01*
X168275000Y-92837000D01*
X168529000Y-92837000D01*
X168529000Y-93980624D01*
X168751040Y-94101909D01*
X169015881Y-94007070D01*
X169257131Y-93862385D01*
X169465519Y-93673414D01*
X169633037Y-93447420D01*
X169753246Y-93193087D01*
X169793904Y-93059039D01*
X169671915Y-92837000D01*
X168529000Y-92837000D01*
X168275000Y-92837000D01*
X167132085Y-92837000D01*
X167010096Y-93059039D01*
X166587762Y-93059039D01*
X167107872Y-92538929D01*
X167132085Y-92583000D01*
X168275000Y-92583000D01*
X168275000Y-92563000D01*
X168529000Y-92563000D01*
X168529000Y-92583000D01*
X169671915Y-92583000D01*
X169793904Y-92360961D01*
X169753246Y-92226913D01*
X169633037Y-91972580D01*
X169465519Y-91746586D01*
X169257131Y-91557615D01*
X169071135Y-91446067D01*
X169081727Y-91441680D01*
X169316759Y-91284637D01*
X169516637Y-91084759D01*
X169673680Y-90849727D01*
X169781853Y-90588574D01*
X169837000Y-90311335D01*
X169837000Y-90139802D01*
X171294901Y-91597703D01*
X171097363Y-91795241D01*
X170940320Y-92030273D01*
X170832147Y-92291426D01*
X170777000Y-92568665D01*
X170777000Y-92851335D01*
X170832147Y-93128574D01*
X170940320Y-93389727D01*
X171097363Y-93624759D01*
X171297241Y-93824637D01*
X171532273Y-93981680D01*
X171793426Y-94089853D01*
X172070665Y-94145000D01*
X172353335Y-94145000D01*
X172630574Y-94089853D01*
X172891727Y-93981680D01*
X173126759Y-93824637D01*
X173326637Y-93624759D01*
X173483680Y-93389727D01*
X173591853Y-93128574D01*
X173647000Y-92851335D01*
X173647000Y-92568665D01*
X173591853Y-92291426D01*
X173483680Y-92030273D01*
X173326637Y-91795241D01*
X173126759Y-91595363D01*
X172972000Y-91491957D01*
X172972000Y-91477325D01*
X172975676Y-91440000D01*
X172972000Y-91402675D01*
X172972000Y-91402667D01*
X172961003Y-91291014D01*
X172917546Y-91147753D01*
X172846974Y-91015724D01*
X172752001Y-90899999D01*
X172723004Y-90876202D01*
X169800688Y-87953887D01*
X169837000Y-87771335D01*
X169837000Y-87488665D01*
X169792509Y-87264999D01*
X170804649Y-87264999D01*
X170777000Y-87403997D01*
X170777000Y-87686667D01*
X170832147Y-87963906D01*
X170940320Y-88225059D01*
X171097363Y-88460091D01*
X171297241Y-88659969D01*
X171532273Y-88817012D01*
X171793426Y-88925185D01*
X172070665Y-88980332D01*
X172353335Y-88980332D01*
X172630574Y-88925185D01*
X172891727Y-88817012D01*
X173126759Y-88659969D01*
X173326637Y-88460091D01*
X173483680Y-88225059D01*
X173591853Y-87963906D01*
X173647000Y-87686667D01*
X173647000Y-87403997D01*
X173591853Y-87126758D01*
X173483680Y-86865605D01*
X173326637Y-86630573D01*
X173126759Y-86430695D01*
X172891727Y-86273652D01*
X172630574Y-86165479D01*
X172353335Y-86110332D01*
X172070665Y-86110332D01*
X171888113Y-86146644D01*
X171735471Y-85994001D01*
X171711668Y-85964998D01*
X171595943Y-85870025D01*
X171463914Y-85799453D01*
X171320653Y-85755996D01*
X171209000Y-85744999D01*
X171208989Y-85744999D01*
X171171667Y-85741323D01*
X171134345Y-85744999D01*
X169683923Y-85744999D01*
X169781853Y-85508574D01*
X169837000Y-85231335D01*
X169837000Y-84948665D01*
X169781853Y-84671426D01*
X169673680Y-84410273D01*
X169516637Y-84175241D01*
X169316759Y-83975363D01*
X169081727Y-83818320D01*
X169071135Y-83813933D01*
X169257131Y-83702385D01*
X169465519Y-83513414D01*
X169633037Y-83287420D01*
X169753246Y-83033087D01*
X169793904Y-82899039D01*
X169671915Y-82677000D01*
X168529000Y-82677000D01*
X168529000Y-82697000D01*
X168275000Y-82697000D01*
X168275000Y-82677000D01*
X167132085Y-82677000D01*
X167010096Y-82899039D01*
X167050754Y-83033087D01*
X167170963Y-83287420D01*
X167338481Y-83513414D01*
X167546869Y-83702385D01*
X167732865Y-83813933D01*
X167722273Y-83818320D01*
X167487241Y-83975363D01*
X167287363Y-84175241D01*
X167130320Y-84410273D01*
X167022147Y-84671426D01*
X166967000Y-84948665D01*
X166967000Y-85231335D01*
X167003312Y-85413887D01*
X166962198Y-85455001D01*
X162172509Y-85455001D01*
X162217000Y-85231335D01*
X162217000Y-84948665D01*
X162161853Y-84671426D01*
X162053680Y-84410273D01*
X161896637Y-84175241D01*
X161696759Y-83975363D01*
X161464241Y-83820000D01*
X161696759Y-83664637D01*
X161896637Y-83464759D01*
X162053680Y-83229727D01*
X162161853Y-82968574D01*
X162217000Y-82691335D01*
X162217000Y-82408665D01*
X162161853Y-82131426D01*
X162053680Y-81870273D01*
X161896637Y-81635241D01*
X161696759Y-81435363D01*
X161464241Y-81280000D01*
X161696759Y-81124637D01*
X161896637Y-80924759D01*
X162053680Y-80689727D01*
X162161853Y-80428574D01*
X162217000Y-80151335D01*
X162217000Y-79868665D01*
X162161853Y-79591426D01*
X162053680Y-79330273D01*
X161896637Y-79095241D01*
X161696759Y-78895363D01*
X161464241Y-78740000D01*
X161696759Y-78584637D01*
X161896637Y-78384759D01*
X162053680Y-78149727D01*
X162161853Y-77888574D01*
X162217000Y-77611335D01*
X162217000Y-77328665D01*
X162180688Y-77146114D01*
X162656802Y-76670000D01*
X166963928Y-76670000D01*
X166963928Y-78270000D01*
X166976188Y-78394482D01*
X167012498Y-78514180D01*
X167071463Y-78624494D01*
X167150815Y-78721185D01*
X167247506Y-78800537D01*
X167357820Y-78859502D01*
X167477518Y-78895812D01*
X167485961Y-78896643D01*
X167287363Y-79095241D01*
X167130320Y-79330273D01*
X167022147Y-79591426D01*
X166967000Y-79868665D01*
X166967000Y-80151335D01*
X167022147Y-80428574D01*
X167130320Y-80689727D01*
X167287363Y-80924759D01*
X167487241Y-81124637D01*
X167722273Y-81281680D01*
X167732865Y-81286067D01*
X167546869Y-81397615D01*
X167338481Y-81586586D01*
X167170963Y-81812580D01*
X167050754Y-82066913D01*
X167010096Y-82200961D01*
X167132085Y-82423000D01*
X168275000Y-82423000D01*
X168275000Y-82403000D01*
X168529000Y-82403000D01*
X168529000Y-82423000D01*
X169671915Y-82423000D01*
X169772823Y-82239331D01*
X170777000Y-82239331D01*
X170777000Y-82522001D01*
X170832147Y-82799240D01*
X170940320Y-83060393D01*
X171097363Y-83295425D01*
X171297241Y-83495303D01*
X171532273Y-83652346D01*
X171793426Y-83760519D01*
X172070665Y-83815666D01*
X172353335Y-83815666D01*
X172630574Y-83760519D01*
X172891727Y-83652346D01*
X173126759Y-83495303D01*
X173326637Y-83295425D01*
X173483680Y-83060393D01*
X173591853Y-82799240D01*
X173647000Y-82522001D01*
X173647000Y-82239331D01*
X173591853Y-81962092D01*
X173483680Y-81700939D01*
X173326637Y-81465907D01*
X173126759Y-81266029D01*
X172891727Y-81108986D01*
X172630574Y-81000813D01*
X172353335Y-80945666D01*
X172070665Y-80945666D01*
X171793426Y-81000813D01*
X171532273Y-81108986D01*
X171297241Y-81266029D01*
X171097363Y-81465907D01*
X170940320Y-81700939D01*
X170832147Y-81962092D01*
X170777000Y-82239331D01*
X169772823Y-82239331D01*
X169793904Y-82200961D01*
X169753246Y-82066913D01*
X169633037Y-81812580D01*
X169465519Y-81586586D01*
X169257131Y-81397615D01*
X169071135Y-81286067D01*
X169081727Y-81281680D01*
X169316759Y-81124637D01*
X169516637Y-80924759D01*
X169673680Y-80689727D01*
X169781853Y-80428574D01*
X169837000Y-80151335D01*
X169837000Y-79868665D01*
X169781853Y-79591426D01*
X169673680Y-79330273D01*
X169516637Y-79095241D01*
X169318039Y-78896643D01*
X169326482Y-78895812D01*
X169446180Y-78859502D01*
X169556494Y-78800537D01*
X169653185Y-78721185D01*
X169732537Y-78624494D01*
X169791502Y-78514180D01*
X169827812Y-78394482D01*
X169840072Y-78270000D01*
X169840072Y-76670000D01*
X169827812Y-76545518D01*
X169791502Y-76425820D01*
X169732537Y-76315506D01*
X169653185Y-76218815D01*
X169556494Y-76139463D01*
X169446180Y-76080498D01*
X169326482Y-76044188D01*
X169202000Y-76031928D01*
X167602000Y-76031928D01*
X167477518Y-76044188D01*
X167357820Y-76080498D01*
X167247506Y-76139463D01*
X167150815Y-76218815D01*
X167071463Y-76315506D01*
X167012498Y-76425820D01*
X166976188Y-76545518D01*
X166963928Y-76670000D01*
X162656802Y-76670000D01*
X163382802Y-75944000D01*
X171533046Y-75944000D01*
X171532273Y-75944320D01*
X171297241Y-76101363D01*
X171097363Y-76301241D01*
X170940320Y-76536273D01*
X170832147Y-76797426D01*
X170777000Y-77074665D01*
X170777000Y-77357335D01*
X170832147Y-77634574D01*
X170940320Y-77895727D01*
X171097363Y-78130759D01*
X171297241Y-78330637D01*
X171532273Y-78487680D01*
X171793426Y-78595853D01*
X172070665Y-78651000D01*
X172353335Y-78651000D01*
X172630574Y-78595853D01*
X172891727Y-78487680D01*
X173126759Y-78330637D01*
X173326637Y-78130759D01*
X173483680Y-77895727D01*
X173591853Y-77634574D01*
X173647000Y-77357335D01*
X173647000Y-77074665D01*
X173591853Y-76797426D01*
X173483680Y-76536273D01*
X173326637Y-76301241D01*
X173126759Y-76101363D01*
X172891727Y-75944320D01*
X172890954Y-75944000D01*
X180025199Y-75944000D01*
X180973312Y-76892114D01*
X180937000Y-77074665D01*
X180937000Y-77357335D01*
X180992147Y-77634574D01*
X181100320Y-77895727D01*
X181257363Y-78130759D01*
X181457241Y-78330637D01*
X181612000Y-78434044D01*
X181612001Y-81162622D01*
X181457241Y-81266029D01*
X181257363Y-81465907D01*
X181100320Y-81700939D01*
X180992147Y-81962092D01*
X180937000Y-82239331D01*
X180937000Y-82522001D01*
X180992147Y-82799240D01*
X181100320Y-83060393D01*
X181257363Y-83295425D01*
X181457241Y-83495303D01*
X181692273Y-83652346D01*
X181953426Y-83760519D01*
X182230665Y-83815666D01*
X182513335Y-83815666D01*
X182790574Y-83760519D01*
X183051727Y-83652346D01*
X183286759Y-83495303D01*
X183486637Y-83295425D01*
X183643680Y-83060393D01*
X183751853Y-82799240D01*
X183807000Y-82522001D01*
X183807000Y-82239331D01*
X183751853Y-81962092D01*
X183643680Y-81700939D01*
X183486637Y-81465907D01*
X183286759Y-81266029D01*
X183132000Y-81162623D01*
X183132000Y-78434043D01*
X183286759Y-78330637D01*
X183486637Y-78130759D01*
X183643680Y-77895727D01*
X183751853Y-77634574D01*
X183807000Y-77357335D01*
X183807000Y-77074665D01*
X183751853Y-76797426D01*
X183643680Y-76536273D01*
X183486637Y-76301241D01*
X183286759Y-76101363D01*
X183051727Y-75944320D01*
X182790574Y-75836147D01*
X182700239Y-75818178D01*
X195153932Y-75818178D01*
X195153932Y-76181822D01*
X195224876Y-76538478D01*
X195364036Y-76874441D01*
X195566066Y-77176800D01*
X195823200Y-77433934D01*
X196125559Y-77635964D01*
X196461522Y-77775124D01*
X196818178Y-77846068D01*
X197181822Y-77846068D01*
X197538478Y-77775124D01*
X197874441Y-77635964D01*
X198176800Y-77433934D01*
X198433934Y-77176800D01*
X198635964Y-76874441D01*
X198775124Y-76538478D01*
X198846068Y-76181822D01*
X198846068Y-75818178D01*
X198775124Y-75461522D01*
X198635964Y-75125559D01*
X198433934Y-74823200D01*
X198176800Y-74566066D01*
X197874441Y-74364036D01*
X197538478Y-74224876D01*
X197181822Y-74153932D01*
X196818178Y-74153932D01*
X196461522Y-74224876D01*
X196125559Y-74364036D01*
X195823200Y-74566066D01*
X195566066Y-74823200D01*
X195364036Y-75125559D01*
X195224876Y-75461522D01*
X195153932Y-75818178D01*
X182700239Y-75818178D01*
X182513335Y-75781000D01*
X182230665Y-75781000D01*
X182048114Y-75817312D01*
X180903804Y-74673003D01*
X180880001Y-74643999D01*
X180764276Y-74549026D01*
X180632247Y-74478454D01*
X180488986Y-74434997D01*
X180377333Y-74424000D01*
X180377322Y-74424000D01*
X180340000Y-74420324D01*
X180302678Y-74424000D01*
X166754166Y-74424000D01*
X166791088Y-74302283D01*
X166804314Y-74168000D01*
X166801000Y-74134353D01*
X166801000Y-72821000D01*
X199228294Y-72821000D01*
X199492233Y-72952969D01*
G37*
%TD.AperFunction*%
D18*
X99316001Y-88666120D02*
X99277006Y-88686963D01*
X99180315Y-88766315D01*
X99100963Y-88863006D01*
X99041998Y-88973320D01*
X99005688Y-89093018D01*
X98993428Y-89217500D01*
X98993428Y-90106500D01*
X99005688Y-90230982D01*
X99041998Y-90350680D01*
X99100963Y-90460994D01*
X99180315Y-90557685D01*
X99277006Y-90637037D01*
X99387320Y-90696002D01*
X99507018Y-90732312D01*
X99631500Y-90744572D01*
X99847400Y-90744572D01*
X99847400Y-91149811D01*
X99843836Y-91186000D01*
X99847400Y-91222189D01*
X99847400Y-92673813D01*
X99843836Y-92710000D01*
X99847400Y-92746187D01*
X99847400Y-93435814D01*
X99843836Y-93472000D01*
X99858058Y-93616399D01*
X99900178Y-93755249D01*
X99968576Y-93883213D01*
X100060625Y-93995375D01*
X100137151Y-94058178D01*
X100172787Y-94087424D01*
X100300751Y-94155822D01*
X100439601Y-94197942D01*
X100584000Y-94212164D01*
X100620186Y-94208600D01*
X103922186Y-94208600D01*
X104030399Y-94197942D01*
X104169249Y-94155822D01*
X104297213Y-94087424D01*
X104394000Y-94007993D01*
X104490787Y-94087424D01*
X104618751Y-94155822D01*
X104757601Y-94197942D01*
X104865814Y-94208600D01*
X107692871Y-94208600D01*
X99796600Y-102104872D01*
X99796600Y-100874186D01*
X99800164Y-100838000D01*
X99796600Y-100801814D01*
X99796600Y-99350186D01*
X99800164Y-99314000D01*
X99796600Y-99277814D01*
X99796600Y-97826186D01*
X99800164Y-97790000D01*
X99796600Y-97753814D01*
X99796600Y-96302186D01*
X99800164Y-96266000D01*
X99796600Y-96229814D01*
X99796600Y-94778186D01*
X99800164Y-94742000D01*
X99785942Y-94597601D01*
X99743822Y-94458751D01*
X99675424Y-94330787D01*
X99583375Y-94218625D01*
X99471213Y-94126576D01*
X99343249Y-94058178D01*
X99204399Y-94016058D01*
X99096186Y-94005400D01*
X99060000Y-94001836D01*
X99023814Y-94005400D01*
X95721814Y-94005400D01*
X95613601Y-94016058D01*
X95474751Y-94058178D01*
X95346787Y-94126576D01*
X95250000Y-94206007D01*
X95153213Y-94126576D01*
X95025249Y-94058178D01*
X94886399Y-94016058D01*
X94778186Y-94005400D01*
X91727401Y-94005400D01*
X99316000Y-86416802D01*
X99316001Y-88666120D01*
%TA.AperFunction,Conductor*%
D19*
G36*
X99316001Y-88666120D02*
G01*
X99277006Y-88686963D01*
X99180315Y-88766315D01*
X99100963Y-88863006D01*
X99041998Y-88973320D01*
X99005688Y-89093018D01*
X98993428Y-89217500D01*
X98993428Y-90106500D01*
X99005688Y-90230982D01*
X99041998Y-90350680D01*
X99100963Y-90460994D01*
X99180315Y-90557685D01*
X99277006Y-90637037D01*
X99387320Y-90696002D01*
X99507018Y-90732312D01*
X99631500Y-90744572D01*
X99847400Y-90744572D01*
X99847400Y-91149811D01*
X99843836Y-91186000D01*
X99847400Y-91222189D01*
X99847400Y-92673813D01*
X99843836Y-92710000D01*
X99847400Y-92746187D01*
X99847400Y-93435814D01*
X99843836Y-93472000D01*
X99858058Y-93616399D01*
X99900178Y-93755249D01*
X99968576Y-93883213D01*
X100060625Y-93995375D01*
X100137151Y-94058178D01*
X100172787Y-94087424D01*
X100300751Y-94155822D01*
X100439601Y-94197942D01*
X100584000Y-94212164D01*
X100620186Y-94208600D01*
X103922186Y-94208600D01*
X104030399Y-94197942D01*
X104169249Y-94155822D01*
X104297213Y-94087424D01*
X104394000Y-94007993D01*
X104490787Y-94087424D01*
X104618751Y-94155822D01*
X104757601Y-94197942D01*
X104865814Y-94208600D01*
X107692871Y-94208600D01*
X99796600Y-102104872D01*
X99796600Y-100874186D01*
X99800164Y-100838000D01*
X99796600Y-100801814D01*
X99796600Y-99350186D01*
X99800164Y-99314000D01*
X99796600Y-99277814D01*
X99796600Y-97826186D01*
X99800164Y-97790000D01*
X99796600Y-97753814D01*
X99796600Y-96302186D01*
X99800164Y-96266000D01*
X99796600Y-96229814D01*
X99796600Y-94778186D01*
X99800164Y-94742000D01*
X99785942Y-94597601D01*
X99743822Y-94458751D01*
X99675424Y-94330787D01*
X99583375Y-94218625D01*
X99471213Y-94126576D01*
X99343249Y-94058178D01*
X99204399Y-94016058D01*
X99096186Y-94005400D01*
X99060000Y-94001836D01*
X99023814Y-94005400D01*
X95721814Y-94005400D01*
X95613601Y-94016058D01*
X95474751Y-94058178D01*
X95346787Y-94126576D01*
X95250000Y-94206007D01*
X95153213Y-94126576D01*
X95025249Y-94058178D01*
X94886399Y-94016058D01*
X94778186Y-94005400D01*
X91727401Y-94005400D01*
X99316000Y-86416802D01*
X99316001Y-88666120D01*
G37*
%TD.AperFunction*%
D18*
X131725528Y-80899850D02*
X131807595Y-81053386D01*
X131918038Y-81187962D01*
X132052614Y-81298405D01*
X132206150Y-81380472D01*
X132336000Y-81419861D01*
X132336000Y-81727198D01*
X121097199Y-92966000D01*
X109287595Y-92966000D01*
X109250272Y-92962324D01*
X109212949Y-92966000D01*
X109212940Y-92966000D01*
X109101287Y-92976997D01*
X108958026Y-93020454D01*
X108940600Y-93029769D01*
X108940600Y-91984186D01*
X108944164Y-91948000D01*
X108940600Y-91911814D01*
X108940600Y-90460186D01*
X108944164Y-90424000D01*
X108940600Y-90387814D01*
X108940600Y-88936186D01*
X108944164Y-88900000D01*
X108940600Y-88863814D01*
X108940600Y-87412186D01*
X108944164Y-87376000D01*
X108940600Y-87339814D01*
X108940600Y-85888186D01*
X108944164Y-85852000D01*
X108929942Y-85707601D01*
X108887822Y-85568751D01*
X108819424Y-85440787D01*
X108727375Y-85328625D01*
X108615213Y-85236576D01*
X108487249Y-85168178D01*
X108348399Y-85126058D01*
X108240186Y-85115400D01*
X108204000Y-85111836D01*
X108167814Y-85115400D01*
X104865814Y-85115400D01*
X104757601Y-85126058D01*
X104618751Y-85168178D01*
X104490787Y-85236576D01*
X104394000Y-85316007D01*
X104297213Y-85236576D01*
X104169249Y-85168178D01*
X104030399Y-85126058D01*
X103922186Y-85115400D01*
X101792085Y-85115400D01*
X101819485Y-85088000D01*
X110046789Y-85088000D01*
X113432371Y-88473583D01*
X113456165Y-88502576D01*
X113485158Y-88526370D01*
X113485163Y-88526375D01*
X113571890Y-88597550D01*
X113703919Y-88668122D01*
X113847180Y-88711579D01*
X113996166Y-88726252D01*
X114033501Y-88722575D01*
X122312100Y-88722577D01*
X122349423Y-88726253D01*
X122386745Y-88722577D01*
X122386755Y-88722577D01*
X122498408Y-88711580D01*
X122641669Y-88668123D01*
X122641673Y-88668121D01*
X122773699Y-88597551D01*
X122860425Y-88526376D01*
X122860426Y-88526375D01*
X122889423Y-88502578D01*
X122913221Y-88473580D01*
X129938730Y-81448072D01*
X130852000Y-81448072D01*
X131025254Y-81431008D01*
X131191850Y-81380472D01*
X131345386Y-81298405D01*
X131479962Y-81187962D01*
X131590405Y-81053386D01*
X131672472Y-80899850D01*
X131699000Y-80812398D01*
X131725528Y-80899850D01*
%TA.AperFunction,Conductor*%
D19*
G36*
X131725528Y-80899850D02*
G01*
X131807595Y-81053386D01*
X131918038Y-81187962D01*
X132052614Y-81298405D01*
X132206150Y-81380472D01*
X132336000Y-81419861D01*
X132336000Y-81727198D01*
X121097199Y-92966000D01*
X109287595Y-92966000D01*
X109250272Y-92962324D01*
X109212949Y-92966000D01*
X109212940Y-92966000D01*
X109101287Y-92976997D01*
X108958026Y-93020454D01*
X108940600Y-93029769D01*
X108940600Y-91984186D01*
X108944164Y-91948000D01*
X108940600Y-91911814D01*
X108940600Y-90460186D01*
X108944164Y-90424000D01*
X108940600Y-90387814D01*
X108940600Y-88936186D01*
X108944164Y-88900000D01*
X108940600Y-88863814D01*
X108940600Y-87412186D01*
X108944164Y-87376000D01*
X108940600Y-87339814D01*
X108940600Y-85888186D01*
X108944164Y-85852000D01*
X108929942Y-85707601D01*
X108887822Y-85568751D01*
X108819424Y-85440787D01*
X108727375Y-85328625D01*
X108615213Y-85236576D01*
X108487249Y-85168178D01*
X108348399Y-85126058D01*
X108240186Y-85115400D01*
X108204000Y-85111836D01*
X108167814Y-85115400D01*
X104865814Y-85115400D01*
X104757601Y-85126058D01*
X104618751Y-85168178D01*
X104490787Y-85236576D01*
X104394000Y-85316007D01*
X104297213Y-85236576D01*
X104169249Y-85168178D01*
X104030399Y-85126058D01*
X103922186Y-85115400D01*
X101792085Y-85115400D01*
X101819485Y-85088000D01*
X110046789Y-85088000D01*
X113432371Y-88473583D01*
X113456165Y-88502576D01*
X113485158Y-88526370D01*
X113485163Y-88526375D01*
X113571890Y-88597550D01*
X113703919Y-88668122D01*
X113847180Y-88711579D01*
X113996166Y-88726252D01*
X114033501Y-88722575D01*
X122312100Y-88722577D01*
X122349423Y-88726253D01*
X122386745Y-88722577D01*
X122386755Y-88722577D01*
X122498408Y-88711580D01*
X122641669Y-88668123D01*
X122641673Y-88668121D01*
X122773699Y-88597551D01*
X122860425Y-88526376D01*
X122860426Y-88526375D01*
X122889423Y-88502578D01*
X122913221Y-88473580D01*
X129938730Y-81448072D01*
X130852000Y-81448072D01*
X131025254Y-81431008D01*
X131191850Y-81380472D01*
X131345386Y-81298405D01*
X131479962Y-81187962D01*
X131590405Y-81053386D01*
X131672472Y-80899850D01*
X131699000Y-80812398D01*
X131725528Y-80899850D01*
G37*
%TD.AperFunction*%
D18*
X122251001Y-74134343D02*
X122247686Y-74168000D01*
X122260912Y-74302283D01*
X122300081Y-74431406D01*
X122363688Y-74550407D01*
X122449289Y-74654711D01*
X122553593Y-74740312D01*
X122672594Y-74803919D01*
X122801717Y-74843088D01*
X122902353Y-74853000D01*
X122936000Y-74856314D01*
X122969647Y-74853000D01*
X126204353Y-74853000D01*
X126238000Y-74856314D01*
X126271647Y-74853000D01*
X126372283Y-74843088D01*
X126501406Y-74803919D01*
X126620407Y-74740312D01*
X126724711Y-74654711D01*
X126810312Y-74550407D01*
X126873919Y-74431406D01*
X126913088Y-74302283D01*
X126926314Y-74168000D01*
X126923000Y-74134353D01*
X126923000Y-72821000D01*
X162129000Y-72821000D01*
X162129001Y-73880344D01*
X162129000Y-73880354D01*
X162129000Y-74134353D01*
X162125686Y-74168000D01*
X162138912Y-74302283D01*
X162178081Y-74431406D01*
X162241688Y-74550407D01*
X162327289Y-74654711D01*
X162431593Y-74740312D01*
X162435042Y-74742156D01*
X161105886Y-76071312D01*
X160923335Y-76035000D01*
X160640665Y-76035000D01*
X160363426Y-76090147D01*
X160102273Y-76198320D01*
X159867241Y-76355363D01*
X159667363Y-76555241D01*
X159510320Y-76790273D01*
X159402147Y-77051426D01*
X159347000Y-77328665D01*
X159347000Y-77611335D01*
X159383312Y-77793886D01*
X158202199Y-78975000D01*
X158140061Y-78975000D01*
X157940102Y-79014774D01*
X157751744Y-79092795D01*
X157582226Y-79206063D01*
X157538289Y-79250000D01*
X142887861Y-79250000D01*
X142848472Y-79120150D01*
X142766405Y-78966614D01*
X142655962Y-78832038D01*
X142521386Y-78721595D01*
X142367850Y-78639528D01*
X142201254Y-78588992D01*
X142028000Y-78571928D01*
X140928000Y-78571928D01*
X140754746Y-78588992D01*
X140588150Y-78639528D01*
X140434614Y-78721595D01*
X140300038Y-78832038D01*
X140189595Y-78966614D01*
X140107528Y-79120150D01*
X140081000Y-79207602D01*
X140054472Y-79120150D01*
X139972405Y-78966614D01*
X139861962Y-78832038D01*
X139727386Y-78721595D01*
X139573850Y-78639528D01*
X139407254Y-78588992D01*
X139234000Y-78571928D01*
X138134000Y-78571928D01*
X137960746Y-78588992D01*
X137794150Y-78639528D01*
X137640614Y-78721595D01*
X137506038Y-78832038D01*
X137395595Y-78966614D01*
X137313528Y-79120150D01*
X137287000Y-79207602D01*
X137260472Y-79120150D01*
X137178405Y-78966614D01*
X137067962Y-78832038D01*
X136933386Y-78721595D01*
X136779850Y-78639528D01*
X136613254Y-78588992D01*
X136440000Y-78571928D01*
X135340000Y-78571928D01*
X135166746Y-78588992D01*
X135000150Y-78639528D01*
X134846614Y-78721595D01*
X134712038Y-78832038D01*
X134601595Y-78966614D01*
X134519528Y-79120150D01*
X134493000Y-79207602D01*
X134466472Y-79120150D01*
X134384405Y-78966614D01*
X134273962Y-78832038D01*
X134139386Y-78721595D01*
X133985850Y-78639528D01*
X133819254Y-78588992D01*
X133646000Y-78571928D01*
X132546000Y-78571928D01*
X132372746Y-78588992D01*
X132206150Y-78639528D01*
X132052614Y-78721595D01*
X131918038Y-78832038D01*
X131807595Y-78966614D01*
X131725528Y-79120150D01*
X131699000Y-79207602D01*
X131672472Y-79120150D01*
X131590405Y-78966614D01*
X131479962Y-78832038D01*
X131345386Y-78721595D01*
X131191850Y-78639528D01*
X131025254Y-78588992D01*
X130852000Y-78571928D01*
X129752000Y-78571928D01*
X129578746Y-78588992D01*
X129412150Y-78639528D01*
X129258614Y-78721595D01*
X129124038Y-78832038D01*
X129013595Y-78966614D01*
X128931528Y-79120150D01*
X128905000Y-79207602D01*
X128878472Y-79120150D01*
X128796405Y-78966614D01*
X128685962Y-78832038D01*
X128551386Y-78721595D01*
X128397850Y-78639528D01*
X128231254Y-78588992D01*
X128058000Y-78571928D01*
X126958000Y-78571928D01*
X126784746Y-78588992D01*
X126618150Y-78639528D01*
X126464614Y-78721595D01*
X126330038Y-78832038D01*
X126219595Y-78966614D01*
X126142337Y-79111153D01*
X126139812Y-79085518D01*
X126103502Y-78965820D01*
X126044537Y-78855506D01*
X125965185Y-78758815D01*
X125868494Y-78679463D01*
X125758180Y-78620498D01*
X125638482Y-78584188D01*
X125514000Y-78571928D01*
X124999750Y-78575000D01*
X124841000Y-78733750D01*
X124841000Y-79883000D01*
X124861000Y-79883000D01*
X124861000Y-80137000D01*
X124841000Y-80137000D01*
X124841000Y-81286250D01*
X124999750Y-81445000D01*
X125514000Y-81448072D01*
X125638482Y-81435812D01*
X125758180Y-81399502D01*
X125868494Y-81340537D01*
X125965185Y-81261185D01*
X126044537Y-81164494D01*
X126103502Y-81054180D01*
X126139812Y-80934482D01*
X126142337Y-80908847D01*
X126219595Y-81053386D01*
X126330038Y-81187962D01*
X126464614Y-81298405D01*
X126618150Y-81380472D01*
X126748000Y-81419861D01*
X126748000Y-81852788D01*
X121848222Y-86752567D01*
X118671282Y-86752567D01*
X118761653Y-86534392D01*
X118832058Y-86180442D01*
X118832058Y-85819558D01*
X118761653Y-85465608D01*
X118623549Y-85132195D01*
X118423053Y-84832131D01*
X118167869Y-84576947D01*
X117867805Y-84376451D01*
X117534392Y-84238347D01*
X117180442Y-84167942D01*
X116819558Y-84167942D01*
X116465608Y-84238347D01*
X116132195Y-84376451D01*
X115832131Y-84576947D01*
X115576947Y-84832131D01*
X115376451Y-85132195D01*
X115238347Y-85465608D01*
X115167942Y-85819558D01*
X115167942Y-86180442D01*
X115238347Y-86534392D01*
X115328718Y-86752567D01*
X114497369Y-86752567D01*
X111053804Y-83309003D01*
X111030001Y-83279999D01*
X110914276Y-83185026D01*
X110782247Y-83114454D01*
X110638986Y-83070997D01*
X110527333Y-83060000D01*
X110527322Y-83060000D01*
X110490000Y-83056324D01*
X110452678Y-83060000D01*
X101183204Y-83060000D01*
X101501347Y-82964557D01*
X102926690Y-82727000D01*
X121124353Y-82727000D01*
X121158000Y-82730314D01*
X121191647Y-82727000D01*
X121292283Y-82717088D01*
X121421406Y-82677919D01*
X121540407Y-82614312D01*
X121644711Y-82528711D01*
X121730312Y-82424407D01*
X121793919Y-82305406D01*
X121833088Y-82176283D01*
X121846314Y-82042000D01*
X121843000Y-82008353D01*
X121843000Y-80810000D01*
X123275928Y-80810000D01*
X123288188Y-80934482D01*
X123324498Y-81054180D01*
X123383463Y-81164494D01*
X123462815Y-81261185D01*
X123559506Y-81340537D01*
X123669820Y-81399502D01*
X123789518Y-81435812D01*
X123914000Y-81448072D01*
X124428250Y-81445000D01*
X124587000Y-81286250D01*
X124587000Y-80137000D01*
X123437750Y-80137000D01*
X123279000Y-80295750D01*
X123275928Y-80810000D01*
X121843000Y-80810000D01*
X121843000Y-79210000D01*
X123275928Y-79210000D01*
X123279000Y-79724250D01*
X123437750Y-79883000D01*
X124587000Y-79883000D01*
X124587000Y-78733750D01*
X124428250Y-78575000D01*
X123914000Y-78571928D01*
X123789518Y-78584188D01*
X123669820Y-78620498D01*
X123559506Y-78679463D01*
X123462815Y-78758815D01*
X123383463Y-78855506D01*
X123324498Y-78965820D01*
X123288188Y-79085518D01*
X123275928Y-79210000D01*
X121843000Y-79210000D01*
X121843000Y-75868178D01*
X142679932Y-75868178D01*
X142679932Y-76231822D01*
X142750876Y-76588478D01*
X142890036Y-76924441D01*
X143092066Y-77226800D01*
X143349200Y-77483934D01*
X143651559Y-77685964D01*
X143987522Y-77825124D01*
X144344178Y-77896068D01*
X144707822Y-77896068D01*
X145064478Y-77825124D01*
X145400441Y-77685964D01*
X145702800Y-77483934D01*
X145959934Y-77226800D01*
X146161964Y-76924441D01*
X146301124Y-76588478D01*
X146372068Y-76231822D01*
X146372068Y-75868178D01*
X146301124Y-75511522D01*
X146161964Y-75175559D01*
X145959934Y-74873200D01*
X145702800Y-74616066D01*
X145400441Y-74414036D01*
X145064478Y-74274876D01*
X144707822Y-74203932D01*
X144344178Y-74203932D01*
X143987522Y-74274876D01*
X143651559Y-74414036D01*
X143349200Y-74616066D01*
X143092066Y-74873200D01*
X142890036Y-75175559D01*
X142750876Y-75511522D01*
X142679932Y-75868178D01*
X121843000Y-75868178D01*
X121843000Y-72821000D01*
X122251000Y-72821000D01*
X122251001Y-74134343D01*
%TA.AperFunction,Conductor*%
D19*
G36*
X122251001Y-74134343D02*
G01*
X122247686Y-74168000D01*
X122260912Y-74302283D01*
X122300081Y-74431406D01*
X122363688Y-74550407D01*
X122449289Y-74654711D01*
X122553593Y-74740312D01*
X122672594Y-74803919D01*
X122801717Y-74843088D01*
X122902353Y-74853000D01*
X122936000Y-74856314D01*
X122969647Y-74853000D01*
X126204353Y-74853000D01*
X126238000Y-74856314D01*
X126271647Y-74853000D01*
X126372283Y-74843088D01*
X126501406Y-74803919D01*
X126620407Y-74740312D01*
X126724711Y-74654711D01*
X126810312Y-74550407D01*
X126873919Y-74431406D01*
X126913088Y-74302283D01*
X126926314Y-74168000D01*
X126923000Y-74134353D01*
X126923000Y-72821000D01*
X162129000Y-72821000D01*
X162129001Y-73880344D01*
X162129000Y-73880354D01*
X162129000Y-74134353D01*
X162125686Y-74168000D01*
X162138912Y-74302283D01*
X162178081Y-74431406D01*
X162241688Y-74550407D01*
X162327289Y-74654711D01*
X162431593Y-74740312D01*
X162435042Y-74742156D01*
X161105886Y-76071312D01*
X160923335Y-76035000D01*
X160640665Y-76035000D01*
X160363426Y-76090147D01*
X160102273Y-76198320D01*
X159867241Y-76355363D01*
X159667363Y-76555241D01*
X159510320Y-76790273D01*
X159402147Y-77051426D01*
X159347000Y-77328665D01*
X159347000Y-77611335D01*
X159383312Y-77793886D01*
X158202199Y-78975000D01*
X158140061Y-78975000D01*
X157940102Y-79014774D01*
X157751744Y-79092795D01*
X157582226Y-79206063D01*
X157538289Y-79250000D01*
X142887861Y-79250000D01*
X142848472Y-79120150D01*
X142766405Y-78966614D01*
X142655962Y-78832038D01*
X142521386Y-78721595D01*
X142367850Y-78639528D01*
X142201254Y-78588992D01*
X142028000Y-78571928D01*
X140928000Y-78571928D01*
X140754746Y-78588992D01*
X140588150Y-78639528D01*
X140434614Y-78721595D01*
X140300038Y-78832038D01*
X140189595Y-78966614D01*
X140107528Y-79120150D01*
X140081000Y-79207602D01*
X140054472Y-79120150D01*
X139972405Y-78966614D01*
X139861962Y-78832038D01*
X139727386Y-78721595D01*
X139573850Y-78639528D01*
X139407254Y-78588992D01*
X139234000Y-78571928D01*
X138134000Y-78571928D01*
X137960746Y-78588992D01*
X137794150Y-78639528D01*
X137640614Y-78721595D01*
X137506038Y-78832038D01*
X137395595Y-78966614D01*
X137313528Y-79120150D01*
X137287000Y-79207602D01*
X137260472Y-79120150D01*
X137178405Y-78966614D01*
X137067962Y-78832038D01*
X136933386Y-78721595D01*
X136779850Y-78639528D01*
X136613254Y-78588992D01*
X136440000Y-78571928D01*
X135340000Y-78571928D01*
X135166746Y-78588992D01*
X135000150Y-78639528D01*
X134846614Y-78721595D01*
X134712038Y-78832038D01*
X134601595Y-78966614D01*
X134519528Y-79120150D01*
X134493000Y-79207602D01*
X134466472Y-79120150D01*
X134384405Y-78966614D01*
X134273962Y-78832038D01*
X134139386Y-78721595D01*
X133985850Y-78639528D01*
X133819254Y-78588992D01*
X133646000Y-78571928D01*
X132546000Y-78571928D01*
X132372746Y-78588992D01*
X132206150Y-78639528D01*
X132052614Y-78721595D01*
X131918038Y-78832038D01*
X131807595Y-78966614D01*
X131725528Y-79120150D01*
X131699000Y-79207602D01*
X131672472Y-79120150D01*
X131590405Y-78966614D01*
X131479962Y-78832038D01*
X131345386Y-78721595D01*
X131191850Y-78639528D01*
X131025254Y-78588992D01*
X130852000Y-78571928D01*
X129752000Y-78571928D01*
X129578746Y-78588992D01*
X129412150Y-78639528D01*
X129258614Y-78721595D01*
X129124038Y-78832038D01*
X129013595Y-78966614D01*
X128931528Y-79120150D01*
X128905000Y-79207602D01*
X128878472Y-79120150D01*
X128796405Y-78966614D01*
X128685962Y-78832038D01*
X128551386Y-78721595D01*
X128397850Y-78639528D01*
X128231254Y-78588992D01*
X128058000Y-78571928D01*
X126958000Y-78571928D01*
X126784746Y-78588992D01*
X126618150Y-78639528D01*
X126464614Y-78721595D01*
X126330038Y-78832038D01*
X126219595Y-78966614D01*
X126142337Y-79111153D01*
X126139812Y-79085518D01*
X126103502Y-78965820D01*
X126044537Y-78855506D01*
X125965185Y-78758815D01*
X125868494Y-78679463D01*
X125758180Y-78620498D01*
X125638482Y-78584188D01*
X125514000Y-78571928D01*
X124999750Y-78575000D01*
X124841000Y-78733750D01*
X124841000Y-79883000D01*
X124861000Y-79883000D01*
X124861000Y-80137000D01*
X124841000Y-80137000D01*
X124841000Y-81286250D01*
X124999750Y-81445000D01*
X125514000Y-81448072D01*
X125638482Y-81435812D01*
X125758180Y-81399502D01*
X125868494Y-81340537D01*
X125965185Y-81261185D01*
X126044537Y-81164494D01*
X126103502Y-81054180D01*
X126139812Y-80934482D01*
X126142337Y-80908847D01*
X126219595Y-81053386D01*
X126330038Y-81187962D01*
X126464614Y-81298405D01*
X126618150Y-81380472D01*
X126748000Y-81419861D01*
X126748000Y-81852788D01*
X121848222Y-86752567D01*
X118671282Y-86752567D01*
X118761653Y-86534392D01*
X118832058Y-86180442D01*
X118832058Y-85819558D01*
X118761653Y-85465608D01*
X118623549Y-85132195D01*
X118423053Y-84832131D01*
X118167869Y-84576947D01*
X117867805Y-84376451D01*
X117534392Y-84238347D01*
X117180442Y-84167942D01*
X116819558Y-84167942D01*
X116465608Y-84238347D01*
X116132195Y-84376451D01*
X115832131Y-84576947D01*
X115576947Y-84832131D01*
X115376451Y-85132195D01*
X115238347Y-85465608D01*
X115167942Y-85819558D01*
X115167942Y-86180442D01*
X115238347Y-86534392D01*
X115328718Y-86752567D01*
X114497369Y-86752567D01*
X111053804Y-83309003D01*
X111030001Y-83279999D01*
X110914276Y-83185026D01*
X110782247Y-83114454D01*
X110638986Y-83070997D01*
X110527333Y-83060000D01*
X110527322Y-83060000D01*
X110490000Y-83056324D01*
X110452678Y-83060000D01*
X101183204Y-83060000D01*
X101501347Y-82964557D01*
X102926690Y-82727000D01*
X121124353Y-82727000D01*
X121158000Y-82730314D01*
X121191647Y-82727000D01*
X121292283Y-82717088D01*
X121421406Y-82677919D01*
X121540407Y-82614312D01*
X121644711Y-82528711D01*
X121730312Y-82424407D01*
X121793919Y-82305406D01*
X121833088Y-82176283D01*
X121846314Y-82042000D01*
X121843000Y-82008353D01*
X121843000Y-80810000D01*
X123275928Y-80810000D01*
X123288188Y-80934482D01*
X123324498Y-81054180D01*
X123383463Y-81164494D01*
X123462815Y-81261185D01*
X123559506Y-81340537D01*
X123669820Y-81399502D01*
X123789518Y-81435812D01*
X123914000Y-81448072D01*
X124428250Y-81445000D01*
X124587000Y-81286250D01*
X124587000Y-80137000D01*
X123437750Y-80137000D01*
X123279000Y-80295750D01*
X123275928Y-80810000D01*
X121843000Y-80810000D01*
X121843000Y-79210000D01*
X123275928Y-79210000D01*
X123279000Y-79724250D01*
X123437750Y-79883000D01*
X124587000Y-79883000D01*
X124587000Y-78733750D01*
X124428250Y-78575000D01*
X123914000Y-78571928D01*
X123789518Y-78584188D01*
X123669820Y-78620498D01*
X123559506Y-78679463D01*
X123462815Y-78758815D01*
X123383463Y-78855506D01*
X123324498Y-78965820D01*
X123288188Y-79085518D01*
X123275928Y-79210000D01*
X121843000Y-79210000D01*
X121843000Y-75868178D01*
X142679932Y-75868178D01*
X142679932Y-76231822D01*
X142750876Y-76588478D01*
X142890036Y-76924441D01*
X143092066Y-77226800D01*
X143349200Y-77483934D01*
X143651559Y-77685964D01*
X143987522Y-77825124D01*
X144344178Y-77896068D01*
X144707822Y-77896068D01*
X145064478Y-77825124D01*
X145400441Y-77685964D01*
X145702800Y-77483934D01*
X145959934Y-77226800D01*
X146161964Y-76924441D01*
X146301124Y-76588478D01*
X146372068Y-76231822D01*
X146372068Y-75868178D01*
X146301124Y-75511522D01*
X146161964Y-75175559D01*
X145959934Y-74873200D01*
X145702800Y-74616066D01*
X145400441Y-74414036D01*
X145064478Y-74274876D01*
X144707822Y-74203932D01*
X144344178Y-74203932D01*
X143987522Y-74274876D01*
X143651559Y-74414036D01*
X143349200Y-74616066D01*
X143092066Y-74873200D01*
X142890036Y-75175559D01*
X142750876Y-75511522D01*
X142679932Y-75868178D01*
X121843000Y-75868178D01*
X121843000Y-72821000D01*
X122251000Y-72821000D01*
X122251001Y-74134343D01*
G37*
%TD.AperFunction*%
%TD*%
M02*
