%TF.GenerationSoftware,KiCad,Pcbnew,(5.1.10)-1*%
%TF.CreationDate,2021-06-16T14:50:00-05:00*%
%TF.ProjectId,nes-c64,6e65732d-6336-4342-9e6b-696361645f70,rev?*%
%TF.SameCoordinates,Original*%
%TF.FileFunction,Soldermask,Bot*%
%TF.FilePolarity,Negative*%
%FSLAX46Y46*%
G04 Gerber Fmt 4.6, Leading zero omitted, Abs format (unit mm)*
G04 Created by KiCad (PCBNEW (5.1.10)-1) date 2021-06-16 14:50:00*
%MOMM*%
%LPD*%
G01*
G04 APERTURE LIST*
%ADD10O,1.600000X1.600000*%
%ADD11R,1.600000X1.600000*%
%ADD12R,1.100000X1.800000*%
%ADD13C,1.600000*%
%ADD14R,0.889000X0.889000*%
G04 APERTURE END LIST*
D10*
%TO.C,U1*%
X160782000Y-77470000D03*
X168402000Y-92710000D03*
X160782000Y-80010000D03*
X168402000Y-90170000D03*
X160782000Y-82550000D03*
X168402000Y-87630000D03*
X160782000Y-85090000D03*
X168402000Y-85090000D03*
X160782000Y-87630000D03*
X168402000Y-82550000D03*
X160782000Y-90170000D03*
X168402000Y-80010000D03*
X160782000Y-92710000D03*
D11*
X168402000Y-77470000D03*
%TD*%
D12*
%TO.C,Q2*%
X186690000Y-90786000D03*
G36*
G01*
X188680000Y-91411000D02*
X188680000Y-90161000D01*
G75*
G02*
X188955000Y-89886000I275000J0D01*
G01*
X189505000Y-89886000D01*
G75*
G02*
X189780000Y-90161000I0J-275000D01*
G01*
X189780000Y-91411000D01*
G75*
G02*
X189505000Y-91686000I-275000J0D01*
G01*
X188955000Y-91686000D01*
G75*
G02*
X188680000Y-91411000I0J275000D01*
G01*
G37*
G36*
G01*
X187410000Y-93481000D02*
X187410000Y-92231000D01*
G75*
G02*
X187685000Y-91956000I275000J0D01*
G01*
X188235000Y-91956000D01*
G75*
G02*
X188510000Y-92231000I0J-275000D01*
G01*
X188510000Y-93481000D01*
G75*
G02*
X188235000Y-93756000I-275000J0D01*
G01*
X187685000Y-93756000D01*
G75*
G02*
X187410000Y-93481000I0J275000D01*
G01*
G37*
%TD*%
%TO.C,Q1*%
X186690000Y-82658000D03*
G36*
G01*
X188680000Y-83283000D02*
X188680000Y-82033000D01*
G75*
G02*
X188955000Y-81758000I275000J0D01*
G01*
X189505000Y-81758000D01*
G75*
G02*
X189780000Y-82033000I0J-275000D01*
G01*
X189780000Y-83283000D01*
G75*
G02*
X189505000Y-83558000I-275000J0D01*
G01*
X188955000Y-83558000D01*
G75*
G02*
X188680000Y-83283000I0J275000D01*
G01*
G37*
G36*
G01*
X187410000Y-85353000D02*
X187410000Y-84103000D01*
G75*
G02*
X187685000Y-83828000I275000J0D01*
G01*
X188235000Y-83828000D01*
G75*
G02*
X188510000Y-84103000I0J-275000D01*
G01*
X188510000Y-85353000D01*
G75*
G02*
X188235000Y-85628000I-275000J0D01*
G01*
X187685000Y-85628000D01*
G75*
G02*
X187410000Y-85353000I0J275000D01*
G01*
G37*
%TD*%
D13*
%TO.C,R1*%
X182372000Y-77216000D03*
D10*
X172212000Y-77216000D03*
%TD*%
D14*
%TO.C,SW1*%
X99568000Y-98552000D03*
X90932000Y-98552000D03*
%TD*%
%TO.C,SW2*%
X108712000Y-89662000D03*
X100076000Y-89662000D03*
%TD*%
%TO.C,SW3*%
X108712000Y-107696000D03*
X100076000Y-107696000D03*
%TD*%
%TO.C,SW4*%
X117602000Y-98552000D03*
X108966000Y-98552000D03*
%TD*%
%TO.C,SW5*%
X136144000Y-104648000D03*
X127508000Y-104648000D03*
%TD*%
%TO.C,SW6*%
X152400000Y-104648000D03*
X143764000Y-104648000D03*
%TD*%
%TO.C,SW7*%
X173990000Y-104648000D03*
X165354000Y-104648000D03*
%TD*%
%TO.C,SW8*%
X189738000Y-104648000D03*
X181102000Y-104648000D03*
%TD*%
%TO.C,J1*%
G36*
G01*
X123914000Y-80560000D02*
X123914000Y-79460000D01*
G75*
G02*
X124164000Y-79210000I250000J0D01*
G01*
X125264000Y-79210000D01*
G75*
G02*
X125514000Y-79460000I0J-250000D01*
G01*
X125514000Y-80560000D01*
G75*
G02*
X125264000Y-80810000I-250000J0D01*
G01*
X124164000Y-80810000D01*
G75*
G02*
X123914000Y-80560000I0J250000D01*
G01*
G37*
%TD*%
%TO.C,J2*%
G36*
G01*
X126708000Y-80560000D02*
X126708000Y-79460000D01*
G75*
G02*
X126958000Y-79210000I250000J0D01*
G01*
X128058000Y-79210000D01*
G75*
G02*
X128308000Y-79460000I0J-250000D01*
G01*
X128308000Y-80560000D01*
G75*
G02*
X128058000Y-80810000I-250000J0D01*
G01*
X126958000Y-80810000D01*
G75*
G02*
X126708000Y-80560000I0J250000D01*
G01*
G37*
%TD*%
%TO.C,J3*%
G36*
G01*
X129502000Y-80560000D02*
X129502000Y-79460000D01*
G75*
G02*
X129752000Y-79210000I250000J0D01*
G01*
X130852000Y-79210000D01*
G75*
G02*
X131102000Y-79460000I0J-250000D01*
G01*
X131102000Y-80560000D01*
G75*
G02*
X130852000Y-80810000I-250000J0D01*
G01*
X129752000Y-80810000D01*
G75*
G02*
X129502000Y-80560000I0J250000D01*
G01*
G37*
%TD*%
%TO.C,J4*%
G36*
G01*
X132296000Y-80560000D02*
X132296000Y-79460000D01*
G75*
G02*
X132546000Y-79210000I250000J0D01*
G01*
X133646000Y-79210000D01*
G75*
G02*
X133896000Y-79460000I0J-250000D01*
G01*
X133896000Y-80560000D01*
G75*
G02*
X133646000Y-80810000I-250000J0D01*
G01*
X132546000Y-80810000D01*
G75*
G02*
X132296000Y-80560000I0J250000D01*
G01*
G37*
%TD*%
%TO.C,J5*%
G36*
G01*
X135090000Y-80560000D02*
X135090000Y-79460000D01*
G75*
G02*
X135340000Y-79210000I250000J0D01*
G01*
X136440000Y-79210000D01*
G75*
G02*
X136690000Y-79460000I0J-250000D01*
G01*
X136690000Y-80560000D01*
G75*
G02*
X136440000Y-80810000I-250000J0D01*
G01*
X135340000Y-80810000D01*
G75*
G02*
X135090000Y-80560000I0J250000D01*
G01*
G37*
%TD*%
%TO.C,J6*%
G36*
G01*
X137884000Y-80560000D02*
X137884000Y-79460000D01*
G75*
G02*
X138134000Y-79210000I250000J0D01*
G01*
X139234000Y-79210000D01*
G75*
G02*
X139484000Y-79460000I0J-250000D01*
G01*
X139484000Y-80560000D01*
G75*
G02*
X139234000Y-80810000I-250000J0D01*
G01*
X138134000Y-80810000D01*
G75*
G02*
X137884000Y-80560000I0J250000D01*
G01*
G37*
%TD*%
%TO.C,J7*%
G36*
G01*
X140678000Y-80560000D02*
X140678000Y-79460000D01*
G75*
G02*
X140928000Y-79210000I250000J0D01*
G01*
X142028000Y-79210000D01*
G75*
G02*
X142278000Y-79460000I0J-250000D01*
G01*
X142278000Y-80560000D01*
G75*
G02*
X142028000Y-80810000I-250000J0D01*
G01*
X140928000Y-80810000D01*
G75*
G02*
X140678000Y-80560000I0J250000D01*
G01*
G37*
%TD*%
D10*
%TO.C,R2*%
X172212000Y-82380666D03*
D13*
X182372000Y-82380666D03*
%TD*%
D10*
%TO.C,R3*%
X182372000Y-87545332D03*
D13*
X172212000Y-87545332D03*
%TD*%
%TO.C,R4*%
X172212000Y-92710000D03*
D10*
X182372000Y-92710000D03*
%TD*%
M02*
