%TF.GenerationSoftware,KiCad,Pcbnew,(5.1.10)-1*%
%TF.CreationDate,2021-06-16T14:50:00-05:00*%
%TF.ProjectId,nes-c64,6e65732d-6336-4342-9e6b-696361645f70,rev?*%
%TF.SameCoordinates,Original*%
%TF.FileFunction,Legend,Top*%
%TF.FilePolarity,Positive*%
%FSLAX46Y46*%
G04 Gerber Fmt 4.6, Leading zero omitted, Abs format (unit mm)*
G04 Created by KiCad (PCBNEW (5.1.10)-1) date 2021-06-16 14:50:00*
%MOMM*%
%LPD*%
G01*
G04 APERTURE LIST*
%ADD10C,0.200000*%
%ADD11C,0.150000*%
%ADD12C,3.810000*%
%ADD13O,1.600000X1.600000*%
%ADD14R,1.600000X1.600000*%
%ADD15R,1.100000X1.800000*%
%ADD16C,1.600000*%
G04 APERTURE END LIST*
D10*
X128757142Y-90385571D02*
X128757142Y-88885571D01*
X129614285Y-90385571D01*
X129614285Y-88885571D01*
X130328571Y-89599857D02*
X130828571Y-89599857D01*
X131042857Y-90385571D02*
X130328571Y-90385571D01*
X130328571Y-88885571D01*
X131042857Y-88885571D01*
X131614285Y-90314142D02*
X131828571Y-90385571D01*
X132185714Y-90385571D01*
X132328571Y-90314142D01*
X132400000Y-90242714D01*
X132471428Y-90099857D01*
X132471428Y-89957000D01*
X132400000Y-89814142D01*
X132328571Y-89742714D01*
X132185714Y-89671285D01*
X131900000Y-89599857D01*
X131757142Y-89528428D01*
X131685714Y-89457000D01*
X131614285Y-89314142D01*
X131614285Y-89171285D01*
X131685714Y-89028428D01*
X131757142Y-88957000D01*
X131900000Y-88885571D01*
X132257142Y-88885571D01*
X132471428Y-88957000D01*
X133114285Y-89814142D02*
X134257142Y-89814142D01*
X135828571Y-90242714D02*
X135757142Y-90314142D01*
X135542857Y-90385571D01*
X135400000Y-90385571D01*
X135185714Y-90314142D01*
X135042857Y-90171285D01*
X134971428Y-90028428D01*
X134900000Y-89742714D01*
X134900000Y-89528428D01*
X134971428Y-89242714D01*
X135042857Y-89099857D01*
X135185714Y-88957000D01*
X135400000Y-88885571D01*
X135542857Y-88885571D01*
X135757142Y-88957000D01*
X135828571Y-89028428D01*
X137114285Y-88885571D02*
X136828571Y-88885571D01*
X136685714Y-88957000D01*
X136614285Y-89028428D01*
X136471428Y-89242714D01*
X136400000Y-89528428D01*
X136400000Y-90099857D01*
X136471428Y-90242714D01*
X136542857Y-90314142D01*
X136685714Y-90385571D01*
X136971428Y-90385571D01*
X137114285Y-90314142D01*
X137185714Y-90242714D01*
X137257142Y-90099857D01*
X137257142Y-89742714D01*
X137185714Y-89599857D01*
X137114285Y-89528428D01*
X136971428Y-89457000D01*
X136685714Y-89457000D01*
X136542857Y-89528428D01*
X136471428Y-89599857D01*
X136400000Y-89742714D01*
X138542857Y-89385571D02*
X138542857Y-90385571D01*
X138185714Y-88814142D02*
X137828571Y-89885571D01*
X138757142Y-89885571D01*
X141328571Y-90385571D02*
X140828571Y-89671285D01*
X140471428Y-90385571D02*
X140471428Y-88885571D01*
X141042857Y-88885571D01*
X141185714Y-88957000D01*
X141257142Y-89028428D01*
X141328571Y-89171285D01*
X141328571Y-89385571D01*
X141257142Y-89528428D01*
X141185714Y-89599857D01*
X141042857Y-89671285D01*
X140471428Y-89671285D01*
X141971428Y-89599857D02*
X142471428Y-89599857D01*
X142685714Y-90385571D02*
X141971428Y-90385571D01*
X141971428Y-88885571D01*
X142685714Y-88885571D01*
X143114285Y-88885571D02*
X143614285Y-90385571D01*
X144114285Y-88885571D01*
X146257142Y-89599857D02*
X146471428Y-89671285D01*
X146542857Y-89742714D01*
X146614285Y-89885571D01*
X146614285Y-90099857D01*
X146542857Y-90242714D01*
X146471428Y-90314142D01*
X146328571Y-90385571D01*
X145757142Y-90385571D01*
X145757142Y-88885571D01*
X146257142Y-88885571D01*
X146400000Y-88957000D01*
X146471428Y-89028428D01*
X146542857Y-89171285D01*
X146542857Y-89314142D01*
X146471428Y-89457000D01*
X146400000Y-89528428D01*
X146257142Y-89599857D01*
X145757142Y-89599857D01*
X129257142Y-92049857D02*
X129471428Y-92121285D01*
X129542857Y-92192714D01*
X129614285Y-92335571D01*
X129614285Y-92549857D01*
X129542857Y-92692714D01*
X129471428Y-92764142D01*
X129328571Y-92835571D01*
X128757142Y-92835571D01*
X128757142Y-91335571D01*
X129257142Y-91335571D01*
X129400000Y-91407000D01*
X129471428Y-91478428D01*
X129542857Y-91621285D01*
X129542857Y-91764142D01*
X129471428Y-91907000D01*
X129400000Y-91978428D01*
X129257142Y-92049857D01*
X128757142Y-92049857D01*
X130114285Y-91835571D02*
X130471428Y-92835571D01*
X130828571Y-91835571D02*
X130471428Y-92835571D01*
X130328571Y-93192714D01*
X130257142Y-93264142D01*
X130114285Y-93335571D01*
X133400000Y-92835571D02*
X132900000Y-92121285D01*
X132542857Y-92835571D02*
X132542857Y-91335571D01*
X133114285Y-91335571D01*
X133257142Y-91407000D01*
X133328571Y-91478428D01*
X133400000Y-91621285D01*
X133400000Y-91835571D01*
X133328571Y-91978428D01*
X133257142Y-92049857D01*
X133114285Y-92121285D01*
X132542857Y-92121285D01*
X134257142Y-92835571D02*
X134114285Y-92764142D01*
X134042857Y-92692714D01*
X133971428Y-92549857D01*
X133971428Y-92121285D01*
X134042857Y-91978428D01*
X134114285Y-91907000D01*
X134257142Y-91835571D01*
X134471428Y-91835571D01*
X134614285Y-91907000D01*
X134685714Y-91978428D01*
X134757142Y-92121285D01*
X134757142Y-92549857D01*
X134685714Y-92692714D01*
X134614285Y-92764142D01*
X134471428Y-92835571D01*
X134257142Y-92835571D01*
X135400000Y-92835571D02*
X135400000Y-91335571D01*
X135400000Y-91907000D02*
X135542857Y-91835571D01*
X135828571Y-91835571D01*
X135971428Y-91907000D01*
X136042857Y-91978428D01*
X136114285Y-92121285D01*
X136114285Y-92549857D01*
X136042857Y-92692714D01*
X135971428Y-92764142D01*
X135828571Y-92835571D01*
X135542857Y-92835571D01*
X135400000Y-92764142D01*
X138685714Y-91407000D02*
X138542857Y-91335571D01*
X138328571Y-91335571D01*
X138114285Y-91407000D01*
X137971428Y-91549857D01*
X137900000Y-91692714D01*
X137828571Y-91978428D01*
X137828571Y-92192714D01*
X137900000Y-92478428D01*
X137971428Y-92621285D01*
X138114285Y-92764142D01*
X138328571Y-92835571D01*
X138471428Y-92835571D01*
X138685714Y-92764142D01*
X138757142Y-92692714D01*
X138757142Y-92192714D01*
X138471428Y-92192714D01*
X139614285Y-92835571D02*
X139471428Y-92764142D01*
X139400000Y-92621285D01*
X139400000Y-91335571D01*
X140828571Y-92835571D02*
X140828571Y-92049857D01*
X140757142Y-91907000D01*
X140614285Y-91835571D01*
X140328571Y-91835571D01*
X140185714Y-91907000D01*
X140828571Y-92764142D02*
X140685714Y-92835571D01*
X140328571Y-92835571D01*
X140185714Y-92764142D01*
X140114285Y-92621285D01*
X140114285Y-92478428D01*
X140185714Y-92335571D01*
X140328571Y-92264142D01*
X140685714Y-92264142D01*
X140828571Y-92192714D01*
X141400000Y-91835571D02*
X142185714Y-91835571D01*
X141400000Y-92835571D01*
X142185714Y-92835571D01*
X143328571Y-92764142D02*
X143185714Y-92835571D01*
X142900000Y-92835571D01*
X142757142Y-92764142D01*
X142685714Y-92621285D01*
X142685714Y-92049857D01*
X142757142Y-91907000D01*
X142900000Y-91835571D01*
X143185714Y-91835571D01*
X143328571Y-91907000D01*
X143400000Y-92049857D01*
X143400000Y-92192714D01*
X142685714Y-92335571D01*
X144042857Y-92835571D02*
X144042857Y-91335571D01*
X144042857Y-91907000D02*
X144185714Y-91835571D01*
X144471428Y-91835571D01*
X144614285Y-91907000D01*
X144685714Y-91978428D01*
X144757142Y-92121285D01*
X144757142Y-92549857D01*
X144685714Y-92692714D01*
X144614285Y-92764142D01*
X144471428Y-92835571D01*
X144185714Y-92835571D01*
X144042857Y-92764142D01*
X145400000Y-92835571D02*
X145400000Y-91835571D01*
X145400000Y-92121285D02*
X145471428Y-91978428D01*
X145542857Y-91907000D01*
X145685714Y-91835571D01*
X145828571Y-91835571D01*
X146542857Y-92835571D02*
X146400000Y-92764142D01*
X146328571Y-92692714D01*
X146257142Y-92549857D01*
X146257142Y-92121285D01*
X146328571Y-91978428D01*
X146400000Y-91907000D01*
X146542857Y-91835571D01*
X146757142Y-91835571D01*
X146900000Y-91907000D01*
X146971428Y-91978428D01*
X147042857Y-92121285D01*
X147042857Y-92549857D01*
X146971428Y-92692714D01*
X146900000Y-92764142D01*
X146757142Y-92835571D01*
X146542857Y-92835571D01*
X147900000Y-92835571D02*
X147757142Y-92764142D01*
X147685714Y-92692714D01*
X147614285Y-92549857D01*
X147614285Y-92121285D01*
X147685714Y-91978428D01*
X147757142Y-91907000D01*
X147900000Y-91835571D01*
X148114285Y-91835571D01*
X148257142Y-91907000D01*
X148328571Y-91978428D01*
X148400000Y-92121285D01*
X148400000Y-92549857D01*
X148328571Y-92692714D01*
X148257142Y-92764142D01*
X148114285Y-92835571D01*
X147900000Y-92835571D01*
X149042857Y-92835571D02*
X149042857Y-91335571D01*
X149185714Y-92264142D02*
X149614285Y-92835571D01*
X149614285Y-91835571D02*
X149042857Y-92407000D01*
%TO.C,SW1*%
D11*
X94297619Y-104084380D02*
X93821428Y-104084380D01*
X93821428Y-103084380D01*
X94630952Y-103560571D02*
X94964285Y-103560571D01*
X95107142Y-104084380D02*
X94630952Y-104084380D01*
X94630952Y-103084380D01*
X95107142Y-103084380D01*
X95869047Y-103560571D02*
X95535714Y-103560571D01*
X95535714Y-104084380D02*
X95535714Y-103084380D01*
X96011904Y-103084380D01*
X96250000Y-103084380D02*
X96821428Y-103084380D01*
X96535714Y-104084380D02*
X96535714Y-103084380D01*
%TO.C,SW2*%
X103608285Y-94194380D02*
X103608285Y-95003904D01*
X103655904Y-95099142D01*
X103703523Y-95146761D01*
X103798761Y-95194380D01*
X103989238Y-95194380D01*
X104084476Y-95146761D01*
X104132095Y-95099142D01*
X104179714Y-95003904D01*
X104179714Y-94194380D01*
X104655904Y-95194380D02*
X104655904Y-94194380D01*
X105036857Y-94194380D01*
X105132095Y-94242000D01*
X105179714Y-94289619D01*
X105227333Y-94384857D01*
X105227333Y-94527714D01*
X105179714Y-94622952D01*
X105132095Y-94670571D01*
X105036857Y-94718190D01*
X104655904Y-94718190D01*
%TO.C,SW3*%
X102513047Y-113228380D02*
X102513047Y-112228380D01*
X102751142Y-112228380D01*
X102894000Y-112276000D01*
X102989238Y-112371238D01*
X103036857Y-112466476D01*
X103084476Y-112656952D01*
X103084476Y-112799809D01*
X103036857Y-112990285D01*
X102989238Y-113085523D01*
X102894000Y-113180761D01*
X102751142Y-113228380D01*
X102513047Y-113228380D01*
X103703523Y-112228380D02*
X103894000Y-112228380D01*
X103989238Y-112276000D01*
X104084476Y-112371238D01*
X104132095Y-112561714D01*
X104132095Y-112895047D01*
X104084476Y-113085523D01*
X103989238Y-113180761D01*
X103894000Y-113228380D01*
X103703523Y-113228380D01*
X103608285Y-113180761D01*
X103513047Y-113085523D01*
X103465428Y-112895047D01*
X103465428Y-112561714D01*
X103513047Y-112371238D01*
X103608285Y-112276000D01*
X103703523Y-112228380D01*
X104465428Y-112228380D02*
X104703523Y-113228380D01*
X104894000Y-112514095D01*
X105084476Y-113228380D01*
X105322571Y-112228380D01*
X105703523Y-113228380D02*
X105703523Y-112228380D01*
X106274952Y-113228380D01*
X106274952Y-112228380D01*
%TO.C,SW4*%
X111950666Y-104084380D02*
X111617333Y-103608190D01*
X111379238Y-104084380D02*
X111379238Y-103084380D01*
X111760190Y-103084380D01*
X111855428Y-103132000D01*
X111903047Y-103179619D01*
X111950666Y-103274857D01*
X111950666Y-103417714D01*
X111903047Y-103512952D01*
X111855428Y-103560571D01*
X111760190Y-103608190D01*
X111379238Y-103608190D01*
X112379238Y-104084380D02*
X112379238Y-103084380D01*
X113379238Y-103132000D02*
X113284000Y-103084380D01*
X113141142Y-103084380D01*
X112998285Y-103132000D01*
X112903047Y-103227238D01*
X112855428Y-103322476D01*
X112807809Y-103512952D01*
X112807809Y-103655809D01*
X112855428Y-103846285D01*
X112903047Y-103941523D01*
X112998285Y-104036761D01*
X113141142Y-104084380D01*
X113236380Y-104084380D01*
X113379238Y-104036761D01*
X113426857Y-103989142D01*
X113426857Y-103655809D01*
X113236380Y-103655809D01*
X113855428Y-104084380D02*
X113855428Y-103084380D01*
X113855428Y-103560571D02*
X114426857Y-103560571D01*
X114426857Y-104084380D02*
X114426857Y-103084380D01*
X114760190Y-103084380D02*
X115331619Y-103084380D01*
X115045904Y-104084380D02*
X115045904Y-103084380D01*
%TO.C,SW5*%
X129397428Y-109894666D02*
X129873619Y-109894666D01*
X129302190Y-110180380D02*
X129635523Y-109180380D01*
X129968857Y-110180380D01*
X130778380Y-110180380D02*
X130302190Y-110180380D01*
X130302190Y-109180380D01*
X130968857Y-109180380D02*
X131540285Y-109180380D01*
X131254571Y-110180380D02*
X131254571Y-109180380D01*
X131635523Y-110275619D02*
X132397428Y-110275619D01*
X132635523Y-109180380D02*
X132635523Y-109989904D01*
X132683142Y-110085142D01*
X132730761Y-110132761D01*
X132826000Y-110180380D01*
X133016476Y-110180380D01*
X133111714Y-110132761D01*
X133159333Y-110085142D01*
X133206952Y-109989904D01*
X133206952Y-109180380D01*
X133683142Y-110180380D02*
X133683142Y-109180380D01*
X134064095Y-109180380D01*
X134159333Y-109228000D01*
X134206952Y-109275619D01*
X134254571Y-109370857D01*
X134254571Y-109513714D01*
X134206952Y-109608952D01*
X134159333Y-109656571D01*
X134064095Y-109704190D01*
X133683142Y-109704190D01*
%TO.C,SW6*%
X145058190Y-109894666D02*
X145534380Y-109894666D01*
X144962952Y-110180380D02*
X145296285Y-109180380D01*
X145629619Y-110180380D01*
X146439142Y-110180380D02*
X145962952Y-110180380D01*
X145962952Y-109180380D01*
X146629619Y-109180380D02*
X147201047Y-109180380D01*
X146915333Y-110180380D02*
X146915333Y-109180380D01*
X147296285Y-110275619D02*
X148058190Y-110275619D01*
X148629619Y-109656571D02*
X148296285Y-109656571D01*
X148296285Y-110180380D02*
X148296285Y-109180380D01*
X148772476Y-109180380D01*
X149153428Y-110180380D02*
X149153428Y-109180380D01*
X150201047Y-110180380D02*
X149867714Y-109704190D01*
X149629619Y-110180380D02*
X149629619Y-109180380D01*
X150010571Y-109180380D01*
X150105809Y-109228000D01*
X150153428Y-109275619D01*
X150201047Y-109370857D01*
X150201047Y-109513714D01*
X150153428Y-109608952D01*
X150105809Y-109656571D01*
X150010571Y-109704190D01*
X149629619Y-109704190D01*
X150629619Y-109656571D02*
X150962952Y-109656571D01*
X151105809Y-110180380D02*
X150629619Y-110180380D01*
X150629619Y-109180380D01*
X151105809Y-109180380D01*
%TO.C,SW7*%
X168624380Y-109656571D02*
X168291047Y-109656571D01*
X168291047Y-110180380D02*
X168291047Y-109180380D01*
X168767238Y-109180380D01*
X169148190Y-110180380D02*
X169148190Y-109180380D01*
X170195809Y-110180380D02*
X169862476Y-109704190D01*
X169624380Y-110180380D02*
X169624380Y-109180380D01*
X170005333Y-109180380D01*
X170100571Y-109228000D01*
X170148190Y-109275619D01*
X170195809Y-109370857D01*
X170195809Y-109513714D01*
X170148190Y-109608952D01*
X170100571Y-109656571D01*
X170005333Y-109704190D01*
X169624380Y-109704190D01*
X170624380Y-109656571D02*
X170957714Y-109656571D01*
X171100571Y-110180380D02*
X170624380Y-110180380D01*
X170624380Y-109180380D01*
X171100571Y-109180380D01*
%TO.C,SW8*%
X184396190Y-109894666D02*
X184872380Y-109894666D01*
X184300952Y-110180380D02*
X184634285Y-109180380D01*
X184967619Y-110180380D01*
X185777142Y-110180380D02*
X185300952Y-110180380D01*
X185300952Y-109180380D01*
X185967619Y-109180380D02*
X186539047Y-109180380D01*
X186253333Y-110180380D02*
X186253333Y-109180380D01*
%TO.C,J1*%
X124380666Y-77462380D02*
X124380666Y-78176666D01*
X124333047Y-78319523D01*
X124237809Y-78414761D01*
X124094952Y-78462380D01*
X123999714Y-78462380D01*
X125380666Y-78462380D02*
X124809238Y-78462380D01*
X125094952Y-78462380D02*
X125094952Y-77462380D01*
X124999714Y-77605238D01*
X124904476Y-77700476D01*
X124809238Y-77748095D01*
%TO.C,J2*%
X127174666Y-77462380D02*
X127174666Y-78176666D01*
X127127047Y-78319523D01*
X127031809Y-78414761D01*
X126888952Y-78462380D01*
X126793714Y-78462380D01*
X127603238Y-77557619D02*
X127650857Y-77510000D01*
X127746095Y-77462380D01*
X127984190Y-77462380D01*
X128079428Y-77510000D01*
X128127047Y-77557619D01*
X128174666Y-77652857D01*
X128174666Y-77748095D01*
X128127047Y-77890952D01*
X127555619Y-78462380D01*
X128174666Y-78462380D01*
%TO.C,J3*%
X129968666Y-77462380D02*
X129968666Y-78176666D01*
X129921047Y-78319523D01*
X129825809Y-78414761D01*
X129682952Y-78462380D01*
X129587714Y-78462380D01*
X130349619Y-77462380D02*
X130968666Y-77462380D01*
X130635333Y-77843333D01*
X130778190Y-77843333D01*
X130873428Y-77890952D01*
X130921047Y-77938571D01*
X130968666Y-78033809D01*
X130968666Y-78271904D01*
X130921047Y-78367142D01*
X130873428Y-78414761D01*
X130778190Y-78462380D01*
X130492476Y-78462380D01*
X130397238Y-78414761D01*
X130349619Y-78367142D01*
%TO.C,J4*%
X132762666Y-77462380D02*
X132762666Y-78176666D01*
X132715047Y-78319523D01*
X132619809Y-78414761D01*
X132476952Y-78462380D01*
X132381714Y-78462380D01*
X133667428Y-77795714D02*
X133667428Y-78462380D01*
X133429333Y-77414761D02*
X133191238Y-78129047D01*
X133810285Y-78129047D01*
%TO.C,J5*%
X135556666Y-77462380D02*
X135556666Y-78176666D01*
X135509047Y-78319523D01*
X135413809Y-78414761D01*
X135270952Y-78462380D01*
X135175714Y-78462380D01*
X136509047Y-77462380D02*
X136032857Y-77462380D01*
X135985238Y-77938571D01*
X136032857Y-77890952D01*
X136128095Y-77843333D01*
X136366190Y-77843333D01*
X136461428Y-77890952D01*
X136509047Y-77938571D01*
X136556666Y-78033809D01*
X136556666Y-78271904D01*
X136509047Y-78367142D01*
X136461428Y-78414761D01*
X136366190Y-78462380D01*
X136128095Y-78462380D01*
X136032857Y-78414761D01*
X135985238Y-78367142D01*
%TO.C,J6*%
X138350666Y-77462380D02*
X138350666Y-78176666D01*
X138303047Y-78319523D01*
X138207809Y-78414761D01*
X138064952Y-78462380D01*
X137969714Y-78462380D01*
X139255428Y-77462380D02*
X139064952Y-77462380D01*
X138969714Y-77510000D01*
X138922095Y-77557619D01*
X138826857Y-77700476D01*
X138779238Y-77890952D01*
X138779238Y-78271904D01*
X138826857Y-78367142D01*
X138874476Y-78414761D01*
X138969714Y-78462380D01*
X139160190Y-78462380D01*
X139255428Y-78414761D01*
X139303047Y-78367142D01*
X139350666Y-78271904D01*
X139350666Y-78033809D01*
X139303047Y-77938571D01*
X139255428Y-77890952D01*
X139160190Y-77843333D01*
X138969714Y-77843333D01*
X138874476Y-77890952D01*
X138826857Y-77938571D01*
X138779238Y-78033809D01*
%TO.C,J7*%
X141144666Y-77462380D02*
X141144666Y-78176666D01*
X141097047Y-78319523D01*
X141001809Y-78414761D01*
X140858952Y-78462380D01*
X140763714Y-78462380D01*
X141525619Y-77462380D02*
X142192285Y-77462380D01*
X141763714Y-78462380D01*
%TD*%
%LPC*%
D12*
%TO.C,SW1*%
X97155000Y-98552000D02*
G75*
G03*
X97155000Y-98552000I-1905000J0D01*
G01*
%TO.C,SW2*%
X106299000Y-89662000D02*
G75*
G03*
X106299000Y-89662000I-1905000J0D01*
G01*
%TO.C,SW3*%
X106299000Y-107696000D02*
G75*
G03*
X106299000Y-107696000I-1905000J0D01*
G01*
%TO.C,SW4*%
X115189000Y-98552000D02*
G75*
G03*
X115189000Y-98552000I-1905000J0D01*
G01*
%TO.C,SW5*%
X133731000Y-104648000D02*
G75*
G03*
X133731000Y-104648000I-1905000J0D01*
G01*
%TO.C,SW6*%
X149987000Y-104648000D02*
G75*
G03*
X149987000Y-104648000I-1905000J0D01*
G01*
%TO.C,SW7*%
X171577000Y-104648000D02*
G75*
G03*
X171577000Y-104648000I-1905000J0D01*
G01*
%TO.C,SW8*%
X187325000Y-104648000D02*
G75*
G03*
X187325000Y-104648000I-1905000J0D01*
G01*
%TD*%
D13*
%TO.C,U1*%
X160782000Y-77470000D03*
X168402000Y-92710000D03*
X160782000Y-80010000D03*
X168402000Y-90170000D03*
X160782000Y-82550000D03*
X168402000Y-87630000D03*
X160782000Y-85090000D03*
X168402000Y-85090000D03*
X160782000Y-87630000D03*
X168402000Y-82550000D03*
X160782000Y-90170000D03*
X168402000Y-80010000D03*
X160782000Y-92710000D03*
D14*
X168402000Y-77470000D03*
%TD*%
D15*
%TO.C,Q2*%
X186690000Y-90786000D03*
G36*
G01*
X188680000Y-91411000D02*
X188680000Y-90161000D01*
G75*
G02*
X188955000Y-89886000I275000J0D01*
G01*
X189505000Y-89886000D01*
G75*
G02*
X189780000Y-90161000I0J-275000D01*
G01*
X189780000Y-91411000D01*
G75*
G02*
X189505000Y-91686000I-275000J0D01*
G01*
X188955000Y-91686000D01*
G75*
G02*
X188680000Y-91411000I0J275000D01*
G01*
G37*
G36*
G01*
X187410000Y-93481000D02*
X187410000Y-92231000D01*
G75*
G02*
X187685000Y-91956000I275000J0D01*
G01*
X188235000Y-91956000D01*
G75*
G02*
X188510000Y-92231000I0J-275000D01*
G01*
X188510000Y-93481000D01*
G75*
G02*
X188235000Y-93756000I-275000J0D01*
G01*
X187685000Y-93756000D01*
G75*
G02*
X187410000Y-93481000I0J275000D01*
G01*
G37*
%TD*%
%TO.C,Q1*%
X186690000Y-82658000D03*
G36*
G01*
X188680000Y-83283000D02*
X188680000Y-82033000D01*
G75*
G02*
X188955000Y-81758000I275000J0D01*
G01*
X189505000Y-81758000D01*
G75*
G02*
X189780000Y-82033000I0J-275000D01*
G01*
X189780000Y-83283000D01*
G75*
G02*
X189505000Y-83558000I-275000J0D01*
G01*
X188955000Y-83558000D01*
G75*
G02*
X188680000Y-83283000I0J275000D01*
G01*
G37*
G36*
G01*
X187410000Y-85353000D02*
X187410000Y-84103000D01*
G75*
G02*
X187685000Y-83828000I275000J0D01*
G01*
X188235000Y-83828000D01*
G75*
G02*
X188510000Y-84103000I0J-275000D01*
G01*
X188510000Y-85353000D01*
G75*
G02*
X188235000Y-85628000I-275000J0D01*
G01*
X187685000Y-85628000D01*
G75*
G02*
X187410000Y-85353000I0J275000D01*
G01*
G37*
%TD*%
D16*
%TO.C,R1*%
X182372000Y-77216000D03*
D13*
X172212000Y-77216000D03*
%TD*%
%TO.C,J1*%
G36*
G01*
X123914000Y-80560000D02*
X123914000Y-79460000D01*
G75*
G02*
X124164000Y-79210000I250000J0D01*
G01*
X125264000Y-79210000D01*
G75*
G02*
X125514000Y-79460000I0J-250000D01*
G01*
X125514000Y-80560000D01*
G75*
G02*
X125264000Y-80810000I-250000J0D01*
G01*
X124164000Y-80810000D01*
G75*
G02*
X123914000Y-80560000I0J250000D01*
G01*
G37*
%TD*%
%TO.C,J2*%
G36*
G01*
X126708000Y-80560000D02*
X126708000Y-79460000D01*
G75*
G02*
X126958000Y-79210000I250000J0D01*
G01*
X128058000Y-79210000D01*
G75*
G02*
X128308000Y-79460000I0J-250000D01*
G01*
X128308000Y-80560000D01*
G75*
G02*
X128058000Y-80810000I-250000J0D01*
G01*
X126958000Y-80810000D01*
G75*
G02*
X126708000Y-80560000I0J250000D01*
G01*
G37*
%TD*%
%TO.C,J3*%
G36*
G01*
X129502000Y-80560000D02*
X129502000Y-79460000D01*
G75*
G02*
X129752000Y-79210000I250000J0D01*
G01*
X130852000Y-79210000D01*
G75*
G02*
X131102000Y-79460000I0J-250000D01*
G01*
X131102000Y-80560000D01*
G75*
G02*
X130852000Y-80810000I-250000J0D01*
G01*
X129752000Y-80810000D01*
G75*
G02*
X129502000Y-80560000I0J250000D01*
G01*
G37*
%TD*%
%TO.C,J4*%
G36*
G01*
X132296000Y-80560000D02*
X132296000Y-79460000D01*
G75*
G02*
X132546000Y-79210000I250000J0D01*
G01*
X133646000Y-79210000D01*
G75*
G02*
X133896000Y-79460000I0J-250000D01*
G01*
X133896000Y-80560000D01*
G75*
G02*
X133646000Y-80810000I-250000J0D01*
G01*
X132546000Y-80810000D01*
G75*
G02*
X132296000Y-80560000I0J250000D01*
G01*
G37*
%TD*%
%TO.C,J5*%
G36*
G01*
X135090000Y-80560000D02*
X135090000Y-79460000D01*
G75*
G02*
X135340000Y-79210000I250000J0D01*
G01*
X136440000Y-79210000D01*
G75*
G02*
X136690000Y-79460000I0J-250000D01*
G01*
X136690000Y-80560000D01*
G75*
G02*
X136440000Y-80810000I-250000J0D01*
G01*
X135340000Y-80810000D01*
G75*
G02*
X135090000Y-80560000I0J250000D01*
G01*
G37*
%TD*%
%TO.C,J6*%
G36*
G01*
X137884000Y-80560000D02*
X137884000Y-79460000D01*
G75*
G02*
X138134000Y-79210000I250000J0D01*
G01*
X139234000Y-79210000D01*
G75*
G02*
X139484000Y-79460000I0J-250000D01*
G01*
X139484000Y-80560000D01*
G75*
G02*
X139234000Y-80810000I-250000J0D01*
G01*
X138134000Y-80810000D01*
G75*
G02*
X137884000Y-80560000I0J250000D01*
G01*
G37*
%TD*%
%TO.C,J7*%
G36*
G01*
X140678000Y-80560000D02*
X140678000Y-79460000D01*
G75*
G02*
X140928000Y-79210000I250000J0D01*
G01*
X142028000Y-79210000D01*
G75*
G02*
X142278000Y-79460000I0J-250000D01*
G01*
X142278000Y-80560000D01*
G75*
G02*
X142028000Y-80810000I-250000J0D01*
G01*
X140928000Y-80810000D01*
G75*
G02*
X140678000Y-80560000I0J250000D01*
G01*
G37*
%TD*%
%TO.C,R2*%
X172212000Y-82380666D03*
D16*
X182372000Y-82380666D03*
%TD*%
D13*
%TO.C,R3*%
X182372000Y-87545332D03*
D16*
X172212000Y-87545332D03*
%TD*%
%TO.C,R4*%
X172212000Y-92710000D03*
D13*
X182372000Y-92710000D03*
%TD*%
M02*
